<mxfile host="app.diagrams.net" modified="2023-10-10T09:35:33.183Z" agent="Mozilla/5.0 (Macintosh; Intel Mac OS X 10_15_7) AppleWebKit/537.36 (KHTML, like Gecko) Chrome/116.0.0.0 Safari/537.36" etag="DmjpqZEkqD5ILM2WeHUk" version="21.6.9" type="github" pages="2">
  <diagram name="Page-1" id="e3a06f82-3646-2815-327d-82caf3d4e204">
    <mxGraphModel dx="2074" dy="1082" grid="1" gridSize="10" guides="1" tooltips="1" connect="1" arrows="1" fold="1" page="1" pageScale="1.5" pageWidth="1169" pageHeight="826" background="none" math="0" shadow="0">
      <root>
        <mxCell id="0" style=";html=1;" />
        <mxCell id="1" style=";html=1;" parent="0" />
        <mxCell id="6a7d8f32e03d9370-61" value="Outside Networks" style="whiteSpace=wrap;html=1;fillColor=#f8cecc;fontSize=14;strokeColor=none;verticalAlign=top;" parent="1" vertex="1">
          <mxGeometry x="1084" y="296" width="493" height="360" as="geometry" />
        </mxCell>
        <mxCell id="6a7d8f32e03d9370-60" value="Enterprise cloud" style="whiteSpace=wrap;html=1;fillColor=#d5e8d4;fontSize=14;strokeColor=none;verticalAlign=top;" parent="1" vertex="1">
          <mxGeometry x="937" y="764" width="602" height="374" as="geometry" />
        </mxCell>
        <mxCell id="6a7d8f32e03d9370-59" value="Citrix XenApp Server Farm&lt;div&gt;with firewalls&lt;/div&gt;" style="whiteSpace=wrap;html=1;fillColor=#EDEDED;fontSize=14;strokeColor=none;verticalAlign=top;" parent="1" vertex="1">
          <mxGeometry x="599" y="98" width="280" height="1010" as="geometry" />
        </mxCell>
        <mxCell id="6a7d8f32e03d9370-58" value="Residential Private Networks" style="whiteSpace=wrap;html=1;fillColor=#dae8fc;fontSize=14;strokeColor=none;verticalAlign=top;" parent="1" vertex="1">
          <mxGeometry x="177" y="863" width="310" height="318" as="geometry" />
        </mxCell>
        <mxCell id="6a7d8f32e03d9370-57" value="Enterprise Networks" style="whiteSpace=wrap;html=1;fillColor=#FFD470;gradientColor=none;fontSize=14;strokeColor=none;verticalAlign=top;" parent="1" vertex="1">
          <mxGeometry x="179" y="98" width="308" height="680" as="geometry" />
        </mxCell>
        <mxCell id="6a7d8f32e03d9370-36" style="edgeStyle=none;rounded=0;html=1;startSize=10;endSize=10;jettySize=auto;orthogonalLoop=1;fontSize=14;endArrow=none;endFill=0;strokeWidth=2;" parent="1" source="6a7d8f32e03d9370-1" target="6a7d8f32e03d9370-14" edge="1">
          <mxGeometry relative="1" as="geometry" />
        </mxCell>
        <mxCell id="6a7d8f32e03d9370-1" value="Client" style="verticalLabelPosition=bottom;aspect=fixed;html=1;verticalAlign=top;strokeColor=none;shape=mxgraph.citrix.laptop_2;fillColor=#66B2FF;gradientColor=#0066CC;fontSize=14;" parent="1" vertex="1">
          <mxGeometry x="350.4999999999999" y="927" width="116" height="86.5" as="geometry" />
        </mxCell>
        <mxCell id="6a7d8f32e03d9370-35" style="edgeStyle=none;rounded=0;html=1;startSize=10;endSize=10;jettySize=auto;orthogonalLoop=1;fontSize=14;endArrow=none;endFill=0;strokeWidth=2;" parent="1" source="6a7d8f32e03d9370-2" target="6a7d8f32e03d9370-9" edge="1">
          <mxGeometry relative="1" as="geometry" />
        </mxCell>
        <mxCell id="6a7d8f32e03d9370-2" value="Client" style="verticalLabelPosition=bottom;aspect=fixed;html=1;verticalAlign=top;strokeColor=none;shape=mxgraph.citrix.laptop_2;fillColor=#66B2FF;gradientColor=#0066CC;fontSize=14;" parent="1" vertex="1">
          <mxGeometry x="352.4999999999999" y="649" width="116" height="86.5" as="geometry" />
        </mxCell>
        <mxCell id="6a7d8f32e03d9370-34" style="edgeStyle=none;rounded=0;html=1;startSize=10;endSize=10;jettySize=auto;orthogonalLoop=1;fontSize=14;endArrow=none;endFill=0;strokeWidth=2;" parent="1" source="6a7d8f32e03d9370-3" target="6a7d8f32e03d9370-10" edge="1">
          <mxGeometry relative="1" as="geometry" />
        </mxCell>
        <mxCell id="6a7d8f32e03d9370-3" value="client" style="verticalLabelPosition=bottom;aspect=fixed;html=1;verticalAlign=top;strokeColor=none;shape=mxgraph.citrix.desktop;fillColor=#66B2FF;gradientColor=#0066CC;fontSize=14;" parent="1" vertex="1">
          <mxGeometry x="365.99999999999994" y="483.99999999999994" width="89" height="98" as="geometry" />
        </mxCell>
        <mxCell id="6a7d8f32e03d9370-33" style="edgeStyle=none;rounded=0;html=1;startSize=10;endSize=10;jettySize=auto;orthogonalLoop=1;fontSize=14;endArrow=none;endFill=0;strokeWidth=2;" parent="1" source="6a7d8f32e03d9370-4" target="6a7d8f32e03d9370-11" edge="1">
          <mxGeometry relative="1" as="geometry" />
        </mxCell>
        <mxCell id="6a7d8f32e03d9370-4" value="Client" style="verticalLabelPosition=bottom;aspect=fixed;html=1;verticalAlign=top;strokeColor=none;shape=mxgraph.citrix.desktop;fillColor=#66B2FF;gradientColor=#0066CC;fontSize=14;" parent="1" vertex="1">
          <mxGeometry x="365.99999999999994" y="320.00000000000006" width="89" height="98" as="geometry" />
        </mxCell>
        <mxCell id="6a7d8f32e03d9370-32" style="edgeStyle=none;rounded=0;html=1;startSize=10;endSize=10;jettySize=auto;orthogonalLoop=1;fontSize=14;endArrow=none;endFill=0;strokeWidth=2;" parent="1" source="6a7d8f32e03d9370-5" target="6a7d8f32e03d9370-12" edge="1">
          <mxGeometry relative="1" as="geometry" />
        </mxCell>
        <mxCell id="6a7d8f32e03d9370-5" value="Client" style="verticalLabelPosition=bottom;aspect=fixed;html=1;verticalAlign=top;strokeColor=none;shape=mxgraph.citrix.desktop;fillColor=#66B2FF;gradientColor=#0066CC;fontSize=14;" parent="1" vertex="1">
          <mxGeometry x="362.00000000000006" y="156.00000000000006" width="89" height="98" as="geometry" />
        </mxCell>
        <mxCell id="6a7d8f32e03d9370-37" style="edgeStyle=none;rounded=0;html=1;startSize=10;endSize=10;jettySize=auto;orthogonalLoop=1;fontSize=14;endArrow=none;endFill=0;strokeWidth=2;" parent="1" source="6a7d8f32e03d9370-6" target="6a7d8f32e03d9370-14" edge="1">
          <mxGeometry relative="1" as="geometry" />
        </mxCell>
        <mxCell id="6a7d8f32e03d9370-6" value="Client" style="verticalLabelPosition=bottom;aspect=fixed;html=1;verticalAlign=top;strokeColor=none;shape=mxgraph.citrix.pda;fillColor=#66B2FF;gradientColor=#0066CC;fontSize=14;" parent="1" vertex="1">
          <mxGeometry x="393.50000000000006" y="1065" width="30" height="61" as="geometry" />
        </mxCell>
        <mxCell id="6a7d8f32e03d9370-39" style="edgeStyle=none;rounded=0;html=1;startSize=10;endSize=10;jettySize=auto;orthogonalLoop=1;fontSize=14;endArrow=none;endFill=0;strokeWidth=2;" parent="1" source="6a7d8f32e03d9370-8" target="6a7d8f32e03d9370-21" edge="1">
          <mxGeometry relative="1" as="geometry">
            <mxPoint x="737" y="846" as="targetPoint" />
          </mxGeometry>
        </mxCell>
        <mxCell id="6a7d8f32e03d9370-8" value="" style="verticalLabelPosition=bottom;aspect=fixed;html=1;verticalAlign=top;strokeColor=none;shape=mxgraph.citrix.xenapp_server;fillColor=#66B2FF;gradientColor=#0066CC;fontSize=14;" parent="1" vertex="1">
          <mxGeometry x="636.9999999999999" y="813" width="76" height="89" as="geometry" />
        </mxCell>
        <mxCell id="6a7d8f32e03d9370-40" style="edgeStyle=none;rounded=0;html=1;startSize=10;endSize=10;jettySize=auto;orthogonalLoop=1;fontSize=14;endArrow=none;endFill=0;strokeWidth=2;" parent="1" source="6a7d8f32e03d9370-9" target="6a7d8f32e03d9370-20" edge="1">
          <mxGeometry relative="1" as="geometry" />
        </mxCell>
        <mxCell id="6a7d8f32e03d9370-9" value="" style="verticalLabelPosition=bottom;aspect=fixed;html=1;verticalAlign=top;strokeColor=none;shape=mxgraph.citrix.xenapp_server;fillColor=#66B2FF;gradientColor=#0066CC;fontSize=14;" parent="1" vertex="1">
          <mxGeometry x="637.0000000000001" y="649" width="76" height="89" as="geometry" />
        </mxCell>
        <mxCell id="6a7d8f32e03d9370-41" style="edgeStyle=none;rounded=0;html=1;startSize=10;endSize=10;jettySize=auto;orthogonalLoop=1;fontSize=14;endArrow=none;endFill=0;strokeWidth=2;" parent="1" source="6a7d8f32e03d9370-10" target="6a7d8f32e03d9370-19" edge="1">
          <mxGeometry relative="1" as="geometry" />
        </mxCell>
        <mxCell id="6a7d8f32e03d9370-10" value="" style="verticalLabelPosition=bottom;aspect=fixed;html=1;verticalAlign=top;strokeColor=none;shape=mxgraph.citrix.xenapp_server;fillColor=#66B2FF;gradientColor=#0066CC;fontSize=14;" parent="1" vertex="1">
          <mxGeometry x="636.9999999999999" y="484" width="76" height="89" as="geometry" />
        </mxCell>
        <mxCell id="6a7d8f32e03d9370-42" style="edgeStyle=none;rounded=0;html=1;startSize=10;endSize=10;jettySize=auto;orthogonalLoop=1;fontSize=14;endArrow=none;endFill=0;strokeWidth=2;" parent="1" source="6a7d8f32e03d9370-11" target="6a7d8f32e03d9370-18" edge="1">
          <mxGeometry relative="1" as="geometry" />
        </mxCell>
        <mxCell id="6a7d8f32e03d9370-11" value="" style="verticalLabelPosition=bottom;aspect=fixed;html=1;verticalAlign=top;strokeColor=none;shape=mxgraph.citrix.xenapp_server;fillColor=#66B2FF;gradientColor=#0066CC;fontSize=14;" parent="1" vertex="1">
          <mxGeometry x="636.9999999999999" y="320" width="76" height="89" as="geometry" />
        </mxCell>
        <mxCell id="6a7d8f32e03d9370-43" style="edgeStyle=none;rounded=0;html=1;startSize=10;endSize=10;jettySize=auto;orthogonalLoop=1;fontSize=14;endArrow=none;endFill=0;strokeWidth=2;" parent="1" source="6a7d8f32e03d9370-12" target="6a7d8f32e03d9370-17" edge="1">
          <mxGeometry relative="1" as="geometry" />
        </mxCell>
        <mxCell id="6a7d8f32e03d9370-12" value="" style="verticalLabelPosition=bottom;aspect=fixed;html=1;verticalAlign=top;strokeColor=none;shape=mxgraph.citrix.xenapp_server;fillColor=#66B2FF;gradientColor=#0066CC;fontSize=14;" parent="1" vertex="1">
          <mxGeometry x="637.0000000000001" y="156" width="76" height="89" as="geometry" />
        </mxCell>
        <mxCell id="6a7d8f32e03d9370-51" style="edgeStyle=none;rounded=0;html=1;startSize=10;endSize=10;jettySize=auto;orthogonalLoop=1;fontSize=14;endArrow=none;endFill=0;strokeWidth=2;" parent="1" target="6a7d8f32e03d9370-15" edge="1">
          <mxGeometry relative="1" as="geometry">
            <mxPoint x="1000.5" y="587" as="sourcePoint" />
          </mxGeometry>
        </mxCell>
        <mxCell id="6a7d8f32e03d9370-52" style="edgeStyle=none;rounded=0;html=1;startSize=10;endSize=10;jettySize=auto;orthogonalLoop=1;fontSize=14;endArrow=none;endFill=0;strokeWidth=2;" parent="1" target="6a7d8f32e03d9370-26" edge="1">
          <mxGeometry relative="1" as="geometry">
            <mxPoint x="1028" y="595.7091836734694" as="sourcePoint" />
          </mxGeometry>
        </mxCell>
        <mxCell id="6a7d8f32e03d9370-38" style="edgeStyle=none;rounded=0;html=1;startSize=10;endSize=10;jettySize=auto;orthogonalLoop=1;fontSize=14;endArrow=none;endFill=0;strokeWidth=2;" parent="1" source="6a7d8f32e03d9370-14" target="6a7d8f32e03d9370-8" edge="1">
          <mxGeometry relative="1" as="geometry" />
        </mxCell>
        <mxCell id="6a7d8f32e03d9370-14" value="" style="verticalLabelPosition=bottom;aspect=fixed;html=1;verticalAlign=top;strokeColor=none;shape=mxgraph.citrix.xenclient_synchronizer;fillColor=#CCCCCC;gradientColor=#000000;gradientDirection=south;fontSize=14;" parent="1" vertex="1">
          <mxGeometry x="636.9999999999999" y="976" width="76" height="91" as="geometry" />
        </mxCell>
        <mxCell id="6a7d8f32e03d9370-15" value="Web Server" style="verticalLabelPosition=top;aspect=fixed;html=1;verticalAlign=bottom;strokeColor=none;shape=mxgraph.citrix.cache_server;fillColor=#66B2FF;gradientColor=#0066CC;fontSize=14;labelPosition=center;align=center;" parent="1" vertex="1">
          <mxGeometry x="965" y="272" width="71" height="97.5" as="geometry" />
        </mxCell>
        <mxCell id="6a7d8f32e03d9370-16" value="DNS" style="verticalLabelPosition=bottom;aspect=fixed;html=1;verticalAlign=top;strokeColor=none;shape=mxgraph.citrix.chassis;fillColor=#66B2FF;gradientColor=#0066CC;fontSize=14;" parent="1" vertex="1">
          <mxGeometry x="1129" y="858" width="137.5" height="177.5" as="geometry" />
        </mxCell>
        <mxCell id="6a7d8f32e03d9370-44" style="edgeStyle=none;rounded=0;html=1;startSize=10;endSize=10;jettySize=auto;orthogonalLoop=1;fontSize=14;endArrow=none;endFill=0;strokeWidth=2;" parent="1" source="6a7d8f32e03d9370-17" edge="1">
          <mxGeometry relative="1" as="geometry">
            <mxPoint x="991.2560521415271" y="587" as="targetPoint" />
          </mxGeometry>
        </mxCell>
        <mxCell id="6a7d8f32e03d9370-17" value="" style="verticalLabelPosition=bottom;aspect=fixed;html=1;verticalAlign=top;strokeColor=none;shape=mxgraph.citrix.firewall;fillColor=#66B2FF;gradientColor=#0066CC;fontSize=14;" parent="1" vertex="1">
          <mxGeometry x="759" y="156" width="75" height="93" as="geometry" />
        </mxCell>
        <mxCell id="6a7d8f32e03d9370-45" style="edgeStyle=none;rounded=0;html=1;startSize=10;endSize=10;jettySize=auto;orthogonalLoop=1;fontSize=14;endArrow=none;endFill=0;strokeWidth=2;" parent="1" source="6a7d8f32e03d9370-18" edge="1">
          <mxGeometry relative="1" as="geometry">
            <mxPoint x="984.906282722513" y="587" as="targetPoint" />
          </mxGeometry>
        </mxCell>
        <mxCell id="6a7d8f32e03d9370-18" value="" style="verticalLabelPosition=bottom;aspect=fixed;html=1;verticalAlign=top;strokeColor=none;shape=mxgraph.citrix.firewall;fillColor=#66B2FF;gradientColor=#0066CC;fontSize=14;" parent="1" vertex="1">
          <mxGeometry x="759" y="320" width="75" height="93" as="geometry" />
        </mxCell>
        <mxCell id="6a7d8f32e03d9370-46" style="edgeStyle=none;rounded=0;html=1;startSize=10;endSize=10;jettySize=auto;orthogonalLoop=1;fontSize=14;endArrow=none;endFill=0;strokeWidth=2;" parent="1" source="6a7d8f32e03d9370-19" edge="1">
          <mxGeometry relative="1" as="geometry">
            <mxPoint x="973" y="595.1734068627452" as="targetPoint" />
          </mxGeometry>
        </mxCell>
        <mxCell id="6a7d8f32e03d9370-19" value="" style="verticalLabelPosition=bottom;aspect=fixed;html=1;verticalAlign=top;strokeColor=none;shape=mxgraph.citrix.firewall;fillColor=#66B2FF;gradientColor=#0066CC;fontSize=14;" parent="1" vertex="1">
          <mxGeometry x="759" y="484" width="75" height="93" as="geometry" />
        </mxCell>
        <mxCell id="6a7d8f32e03d9370-47" style="edgeStyle=none;rounded=0;html=1;startSize=10;endSize=10;jettySize=auto;orthogonalLoop=1;fontSize=14;endArrow=none;endFill=0;strokeWidth=2;" parent="1" source="6a7d8f32e03d9370-20" edge="1">
          <mxGeometry relative="1" as="geometry">
            <mxPoint x="973" y="617.4160539215686" as="targetPoint" />
          </mxGeometry>
        </mxCell>
        <mxCell id="6a7d8f32e03d9370-20" value="" style="verticalLabelPosition=bottom;aspect=fixed;html=1;verticalAlign=top;strokeColor=none;shape=mxgraph.citrix.firewall;fillColor=#66B2FF;gradientColor=#0066CC;fontSize=14;" parent="1" vertex="1">
          <mxGeometry x="759" y="649" width="75" height="93" as="geometry" />
        </mxCell>
        <mxCell id="6a7d8f32e03d9370-48" style="edgeStyle=none;rounded=0;html=1;startSize=10;endSize=10;jettySize=auto;orthogonalLoop=1;fontSize=14;endArrow=none;endFill=0;strokeWidth=2;" parent="1" source="6a7d8f32e03d9370-21" edge="1">
          <mxGeometry relative="1" as="geometry">
            <mxPoint x="985.8569321533923" y="623.5" as="targetPoint" />
          </mxGeometry>
        </mxCell>
        <mxCell id="6a7d8f32e03d9370-21" value="" style="verticalLabelPosition=bottom;aspect=fixed;html=1;verticalAlign=top;strokeColor=none;shape=mxgraph.citrix.firewall;fillColor=#66B2FF;gradientColor=#0066CC;fontSize=14;" parent="1" vertex="1">
          <mxGeometry x="759" y="813" width="75" height="93" as="geometry" />
        </mxCell>
        <mxCell id="6a7d8f32e03d9370-23" value="" style="verticalLabelPosition=bottom;aspect=fixed;html=1;verticalAlign=top;strokeColor=none;shape=mxgraph.citrix.home_office;fillColor=#66B2FF;gradientColor=#0066CC;fontSize=14;" parent="1" vertex="1">
          <mxGeometry x="207" y="955" width="80" height="55.5" as="geometry" />
        </mxCell>
        <mxCell id="6a7d8f32e03d9370-24" value="" style="verticalLabelPosition=bottom;aspect=fixed;html=1;verticalAlign=top;strokeColor=none;shape=mxgraph.citrix.hq_enterprise;fillColor=#66B2FF;gradientColor=#0066CC;fontSize=14;" parent="1" vertex="1">
          <mxGeometry x="227" y="252" width="92" height="88" as="geometry" />
        </mxCell>
        <mxCell id="6a7d8f32e03d9370-25" value="Secure Server" style="verticalLabelPosition=bottom;aspect=fixed;html=1;verticalAlign=top;strokeColor=none;shape=mxgraph.citrix.proxy_server;fillColor=#66B2FF;gradientColor=#0066CC;fontSize=14;" parent="1" vertex="1">
          <mxGeometry x="1409" y="800" width="76.5" height="90" as="geometry" />
        </mxCell>
        <mxCell id="6a7d8f32e03d9370-53" style="edgeStyle=none;rounded=0;html=1;startSize=10;endSize=10;jettySize=auto;orthogonalLoop=1;fontSize=14;endArrow=none;endFill=0;strokeWidth=2;" parent="1" source="6a7d8f32e03d9370-26" target="6a7d8f32e03d9370-29" edge="1">
          <mxGeometry relative="1" as="geometry" />
        </mxCell>
        <mxCell id="6a7d8f32e03d9370-54" style="edgeStyle=none;rounded=0;html=1;startSize=10;endSize=10;jettySize=auto;orthogonalLoop=1;fontSize=14;endArrow=none;endFill=0;strokeWidth=2;" parent="1" source="6a7d8f32e03d9370-26" target="6a7d8f32e03d9370-28" edge="1">
          <mxGeometry relative="1" as="geometry" />
        </mxCell>
        <mxCell id="6a7d8f32e03d9370-55" style="edgeStyle=none;rounded=0;html=1;startSize=10;endSize=10;jettySize=auto;orthogonalLoop=1;fontSize=14;endArrow=none;endFill=0;strokeWidth=2;" parent="1" source="6a7d8f32e03d9370-26" target="6a7d8f32e03d9370-27" edge="1">
          <mxGeometry relative="1" as="geometry" />
        </mxCell>
        <mxCell id="6a7d8f32e03d9370-26" value="" style="verticalLabelPosition=bottom;aspect=fixed;html=1;verticalAlign=top;strokeColor=none;shape=mxgraph.citrix.switch;fillColor=#66B2FF;gradientColor=#0066CC;fontSize=14;" parent="1" vertex="1">
          <mxGeometry x="1175" y="508" width="92" height="41.5" as="geometry" />
        </mxCell>
        <mxCell id="6a7d8f32e03d9370-27" value="Client" style="verticalLabelPosition=top;aspect=fixed;html=1;verticalAlign=bottom;strokeColor=none;shape=mxgraph.citrix.thin_client;fillColor=#66B2FF;gradientColor=#0066CC;fontSize=14;labelPosition=center;align=center;" parent="1" vertex="1">
          <mxGeometry x="1437" y="498" width="71" height="71" as="geometry" />
        </mxCell>
        <mxCell id="6a7d8f32e03d9370-28" value="Client" style="verticalLabelPosition=top;aspect=fixed;html=1;verticalAlign=bottom;strokeColor=none;shape=mxgraph.citrix.thin_client;fillColor=#66B2FF;gradientColor=#0066CC;fontSize=14;labelPosition=center;align=center;" parent="1" vertex="1">
          <mxGeometry x="1359" y="374" width="71" height="71" as="geometry" />
        </mxCell>
        <mxCell id="gV04qvS-8fEDrKoFqRWg-2" value="" style="edgeStyle=orthogonalEdgeStyle;rounded=0;orthogonalLoop=1;jettySize=auto;html=1;" edge="1" parent="1" source="6a7d8f32e03d9370-29" target="gV04qvS-8fEDrKoFqRWg-1">
          <mxGeometry relative="1" as="geometry" />
        </mxCell>
        <mxCell id="6a7d8f32e03d9370-29" value="Client" style="verticalLabelPosition=top;aspect=fixed;html=1;verticalAlign=bottom;strokeColor=none;shape=mxgraph.citrix.thin_client;fillColor=#66B2FF;gradientColor=#0066CC;fontSize=14;labelPosition=center;align=center;" parent="1" vertex="1">
          <mxGeometry x="1203" y="338" width="71" height="71" as="geometry" />
        </mxCell>
        <mxCell id="6a7d8f32e03d9370-30" value="Web service" style="verticalLabelPosition=bottom;aspect=fixed;html=1;verticalAlign=top;strokeColor=none;shape=mxgraph.citrix.web_service;fillColor=#66B2FF;gradientColor=#0066CC;fontSize=14;" parent="1" vertex="1">
          <mxGeometry x="992" y="910" width="63" height="60" as="geometry" />
        </mxCell>
        <mxCell id="6a7d8f32e03d9370-31" value="" style="verticalLabelPosition=bottom;aspect=fixed;html=1;verticalAlign=top;strokeColor=none;shape=mxgraph.citrix.site;fillColor=#66B2FF;gradientColor=#0066CC;fontSize=14;" parent="1" vertex="1">
          <mxGeometry x="1409" y="995" width="107" height="101" as="geometry" />
        </mxCell>
        <mxCell id="6a7d8f32e03d9370-62" value="Citrix Network Architecture" style="text;strokeColor=none;fillColor=none;html=1;fontSize=24;fontStyle=1;verticalAlign=middle;align=center;" parent="1" vertex="1">
          <mxGeometry x="499" y="30" width="861" height="40" as="geometry" />
        </mxCell>
        <mxCell id="gV04qvS-8fEDrKoFqRWg-1" value="Client" style="verticalLabelPosition=top;aspect=fixed;html=1;verticalAlign=bottom;strokeColor=none;shape=mxgraph.citrix.thin_client;fillColor=#66B2FF;gradientColor=#0066CC;fontSize=14;labelPosition=center;align=center;" vertex="1" parent="1">
          <mxGeometry x="1203" y="187" width="71" height="71" as="geometry" />
        </mxCell>
      </root>
    </mxGraphModel>
  </diagram>
  <diagram id="r-CRShjqgx1bCMIo3Uo8" name="Page-2">
    <mxGraphModel dx="709" dy="801" grid="1" gridSize="10" guides="1" tooltips="1" connect="1" arrows="1" fold="1" page="1" pageScale="1" pageWidth="827" pageHeight="1169" math="0" shadow="0">
      <root>
        <mxCell id="0" />
        <mxCell id="1" parent="0" />
        <mxCell id="hdw0nL122C2qMqbyxASW-1" value="Enterprise cloud" style="whiteSpace=wrap;html=1;fillColor=#d5e8d4;fontSize=14;strokeColor=none;verticalAlign=top;" vertex="1" parent="1">
          <mxGeometry x="1590" y="370" width="602" height="374" as="geometry" />
        </mxCell>
        <mxCell id="ps5qEVWJUaTA2GxRnyP9-4" style="edgeStyle=orthogonalEdgeStyle;rounded=1;orthogonalLoop=1;jettySize=auto;html=1;entryX=0;entryY=0.5;entryDx=0;entryDy=0;strokeColor=#00CC00;strokeWidth=3;" edge="1" parent="1">
          <mxGeometry relative="1" as="geometry">
            <mxPoint x="1625" y="539" as="sourcePoint" />
            <mxPoint x="1730" y="539" as="targetPoint" />
            <Array as="points">
              <mxPoint x="1710" y="539" />
              <mxPoint x="1710" y="539" />
            </Array>
          </mxGeometry>
        </mxCell>
        <mxCell id="ps5qEVWJUaTA2GxRnyP9-5" value="&amp;nbsp;443&amp;nbsp;" style="edgeLabel;html=1;align=center;verticalAlign=middle;resizable=0;points=[];fontSize=17;labelBackgroundColor=#d5e8d4;" vertex="1" connectable="0" parent="ps5qEVWJUaTA2GxRnyP9-4">
          <mxGeometry x="-0.0667" y="-2" relative="1" as="geometry">
            <mxPoint x="-4" y="-2" as="offset" />
          </mxGeometry>
        </mxCell>
        <mxCell id="tbnC4OxJD7dCI2JrZYAd-1" value="" style="verticalLabelPosition=bottom;aspect=fixed;html=1;verticalAlign=top;strokeColor=none;shape=mxgraph.citrix.firewall;fillColor=#66B2FF;gradientColor=#0066CC;fontSize=14;" vertex="1" parent="1">
          <mxGeometry x="1550" y="510.5" width="75" height="93" as="geometry" />
        </mxCell>
        <mxCell id="ps5qEVWJUaTA2GxRnyP9-6" style="edgeStyle=orthogonalEdgeStyle;rounded=1;orthogonalLoop=1;jettySize=auto;html=1;strokeColor=#00CC00;strokeWidth=3;" edge="1" parent="1" source="tbnC4OxJD7dCI2JrZYAd-3" target="1ls5Tzde4Fykx0exa6YF-5">
          <mxGeometry relative="1" as="geometry">
            <Array as="points">
              <mxPoint x="1916" y="540" />
              <mxPoint x="1916" y="540" />
            </Array>
          </mxGeometry>
        </mxCell>
        <mxCell id="tbnC4OxJD7dCI2JrZYAd-3" value="" style="shape=image;verticalLabelPosition=bottom;labelBackgroundColor=default;verticalAlign=top;aspect=fixed;imageAspect=0;image=https://nginxproxymanager.com/icon.png;" vertex="1" parent="1">
          <mxGeometry x="1730" y="506" width="102" height="102" as="geometry" />
        </mxCell>
        <mxCell id="1ls5Tzde4Fykx0exa6YF-5" value="" style="shape=image;verticalLabelPosition=bottom;labelBackgroundColor=default;verticalAlign=top;aspect=fixed;imageAspect=0;image=data:image/png,iVBORw0KGgoAAAANSUhEUgAAA+QAAAPWCAYAAABp71K3AAABV2lDQ1BJQ0MgUHJvZmlsZQAAKJFtkMFLAkEYxZ9lGGYQUbei7RIRm4Qadd0MLPKwbQYVHVpX00S3adwIQQj8C7pHt/4I89StkG5BEQQdo3MgQcn2zW6lVjN8vB+PN8PHA7p6dcbyXgAF0+JabEHa2NySfM/wO3ccU7pRZIqqximCb+08jTt4hN5Oi7+Gn6oX9etKeU6p1F/GjnN/8x3Hn0oXDdIPmqDBuAV4ZGL1yGKCy8RDnJYiPhGccflccNLlqpNJaFHiG+IBI6uniB+J5WSbn2njQv7Q+NpBbB9Im+trpIM0I4gjBglLWIRGGsEK9fN/PuLko9gHQwkce8ggC4teKeQw5JEmXoYJA0HIxCHM0IRFz7/7a3mle2B+lWC75SUegJoK9J22vMkJoH8HuJplOtd/WvU0vMXdcMjlAAd63mz7dRTw1YAmt+33M9tuUofd9OflwSeuQGK2Fvyh3QAAAIplWElmTU0AKgAAAAgABAEaAAUAAAABAAAAPgEbAAUAAAABAAAARgEoAAMAAAABAAIAAIdpAAQAAAABAAAATgAAAAAAAACQAAAAAQAAAJAAAAABAAOShgAHAAAAEgAAAHigAgAEAAAAAQAAA+SgAwAEAAAAAQAAA9YAAAAAQVNDSUkAAABTY3JlZW5zaG904sExwAAAAAlwSFlzAAAWJQAAFiUBSVIk8AAAAdZpVFh0WE1MOmNvbS5hZG9iZS54bXAAAAAAADx4OnhtcG1ldGEgeG1sbnM6eD0iYWRvYmU6bnM6bWV0YS8iIHg6eG1wdGs9IlhNUCBDb3JlIDYuMC4wIj4KICAgPHJkZjpSREYgeG1sbnM6cmRmPSJodHRwOi8vd3d3LnczLm9yZy8xOTk5LzAyLzIyLXJkZi1zeW50YXgtbnMjIj4KICAgICAgPHJkZjpEZXNjcmlwdGlvbiByZGY6YWJvdXQ9IiIKICAgICAgICAgICAgeG1sbnM6ZXhpZj0iaHR0cDovL25zLmFkb2JlLmNvbS9leGlmLzEuMC8iPgogICAgICAgICA8ZXhpZjpQaXhlbFlEaW1lbnNpb24+OTgyPC9leGlmOlBpeGVsWURpbWVuc2lvbj4KICAgICAgICAgPGV4aWY6UGl4ZWxYRGltZW5zaW9uPjk5NjwvZXhpZjpQaXhlbFhEaW1lbnNpb24+CiAgICAgICAgIDxleGlmOlVzZXJDb21tZW50PlNjcmVlbnNob3Q8L2V4aWY6VXNlckNvbW1lbnQ+CiAgICAgIDwvcmRmOkRlc2NyaXB0aW9uPgogICA8L3JkZjpSREY+CjwveDp4bXBtZXRhPgpqa9HCAAAAHGlET1QAAAACAAAAAAAAAesAAAAoAAAB6wAAAesAAKPVGNYRGgAAQABJREFUeAHsvWt7E1ea93vrbPkUyxiwJYIDZAIBOmF6cph0z6F7ksz32l9hf4P9bu9PsF9M5+m5rnnS3RkgCXSAJhNIIFjGBizHJ9mSLD1rlb3AlE861GFV1U9Xp22kqnX43csq3frXuv+px48fd4QHBCAAAQgkhkBruy31rW1ZWt2SuefrsrjSltpmXh7URuXmfEmqa8XEsGCiEIAABCBgP4HyaF3+YaYmF0prUhpqyKnxtFSmRmRyrCDFQkaymbT9k2CEEDiEQIqE/BAyPA0BCEAgpgRWN5pOIq4T8npjWx4vF+TG/KQ8rI04iXm9lYnpzJkWBCAAAQhEkUAxu+0k4udL6/LBzJKcndiSYj7jJOQ6MR8bzkVxWowZAg4BEnIWAgQgAIGEEEAZT0igmSYEIACBmBJwK+XlUlberow7iXlMp8y0EkCAhDwBQWaKEIAABDQBlHHWAQQgAAEIRJmAWym/MtMmIY9yQBm7Q4CEnIUAAQhAIOYEUMZjHmCmBwEIQCBhBCpjdfmwvCTvlxtypZITrZSzlzxhiyBG0yUhj1EwmQoEIACBgwigjB9EhecgAAEIQCCqBEZy23JqZEsuTm3Ix2+uyuXptlPkjb3kUY1ossdNQp7s+DN7CEAgxgRQxmMcXKYGAQhAIMEE0imRXKYj5yfW5Hezi/LezBZV1xO8HqI+dRLyqEeQ8UMAAhA4hADK+CFgeBoCEIAABCJNQOXjklL/p23QPn1rQd5RSjlV1yMd0kQPnoQ80eFn8hCAQBwJoIzHMarMCQIQgAAE3ATcVdfxJ3cT4t9RIEBCHoUoMUYIQAACPRBAGe8BFodCAAIQgEBkCbirruNPHtlQJnrgJOSJDj+ThwAE4kQAZTxO0WQuEIAABCDQLQG3Uo4/ebfkOM4GAiTkNkSBMUAAAhDwgADKuAcQaQICEIAABCJHwK2U408euRAmesAk5IkOP5OHAATiQABlPA5RZA4QgAAEIDAogbL2J59ZkmsV/MkHZcn5wREgIQ+ONT1BAAIQ8IUAyrgvWGkUAhCAAAQiRmBY+ZOf1P7kJ+ryydkV/MkjFr+kDpeEPKmRZ94QgEDkCaCMRz6ETAACEIAABDwkoP3JM+mOskNbl9/PLuBP7iFbmvKPAAm5f2xpGQIQgICvBFDGfcVL4xCAAAQgEDECxp/8vPIn/wx/8ohFL7nDJSFPbuyZOQQgEFECKOMRDRzDhgAEIACBQAi4q67jTx4IdjrpkwAJeZ/gOA0CEIBAWARQxsMiT78QgAAEIBAFAu6q6/iTRyFqyR0jCXlyY8/MIQCBiBFAGY9YwBguBCAAAQiESsCtlONPHmo46PwQAiTkh4DhaQhAAAK2EUAZty0ijAcCEIAABGwm4FbK8Se3OVrJHRsJeXJjz8whAIGIEEAZj0igGCYEIAABCFhJwPiTv19uyNUzOdFKebGQkWwmbeV4GVSyCJCQJyvezBYCEIggAZTxCAaNIUMAAhCAgDUEtD/51LD2J99Q/uSropXyytSIjA3nrBkjA0kuARLy5MaemUMAApYTQBm3PEAMDwIQgAAEIkEgpf3JU9qffE35ky/K++UtJyGfHCuglEcigvEeJAl5vOPL7CAAgQgTQBmPcPAYOgQgAAEIWEVAJ+UXJtbk03MLcnFqQ4r5jOiEHKXcqjAlcjAk5IkMO5OGAARsJoAybnN0GBsEIAABCESVgLvqOv7kUY1kvMZNQh6veDIbCEAgBgRQxmMQRKYAAQhAAALWEXBXXcef3LoQJXJAJOSJDDuThgAEbCSAMm5jVBgTBCAAAQjEjYBbKcefPG4RjtZ8SMijFS9GCwEIxJgAyniMg8vUIAABCEDAGgJupRx/cmtCk8iBkJAnMuxMGgIQsIkAyrhN0WAsEIAABCCQFALan/yDmZpcU1XXryh/8gr+5EkJvVXzJCG3KhwMBgIQSCIBlPEkRp05QwACEIBA2AS0Un6i2HCqrv92dgV/8rADktD+ScgTGnimDQEIhE8AZTz8GDACCEAAAhBILgHlhCYpx598XT59awF/8uQuhVBnTkIeKn46hwAEkkwAZTzJ0WfuEIAABCBgAwGdlJ8vrcln+JPbEI5EjoGEPJFhZ9IQgECYBFDGw6RP3xCAAAQgAIHXCbirruNP/jof/uUvARJyf/nSOgQgAIF9BFDG9yHhCQhAAAIQgEBoBNxV1/EnDy0UieyYhDyRYWfSEIBAGARQxsOgTp8QgAAEIACB7gi4lXL8ybvjxlGDESAhH4wfZ0MAAhDomgDKeNeoOBACEIAABCAQOAG3Uo4/eeAhSGSHJOSJDDuThgAEgiSAMh4kbfqCAAQgAAEIDEZAK+Xan/z9ypZcxZ98MJicfSwBEvJjEXEABCAAgcEIoIwPxo+zIQABCEAAAkES0Er5ZLG560/+i1ydaUtlakTGhnNBDoO+EkKAhDwhgWaaEIBA8ARQxoNnTo8QgAAEIAABLwikUik5P6Ht0J7KtfKWk5BPjhWkWMhINpP2ogvagIBDgISchQABCEDAJwIo4z6BpVkIQAACEIBAAAQulNadhPzi1IYU8xnRCTlKeQDgE9YFCXnCAs50IQAB/wmgjPvPmB4gAAEIQAACfhNwV13Hn9xv4slsn4Q8mXFn1hCAgI8EUMZ9hEvTEIAABCAAgYAIuKuu408eEPiEdUNCnrCAM10IQMA/Aijj/rGlZQhAAAIQgEBYBFDKwyKfjH5JyJMRZ2YJAQgEQABlPADIdAEBCEAAAhAImABKecDAE9YdCXnCAs50IQAB7wmgjHvPlBYhAAEIQAACthFwK+XlUlberow7xd5sGyvjiQ4BEvLoxIqRQgAClhJAGbc0MAwLAhCAAAQg4CEBt1J+RfmTk5B7CDihTZGQJzTwTBsCEBicAMr44AxpAQIQgAAEIBA1AudLa/L5uQX8yaMWOEvHS0JuaWAYFgQgYD8BlHH7Y8QIIQABCEAAAl4TMAk5/uRek01meyTkyYw7s4YABAYggDI+ADxOhQAEIAABCEScgHsvOf7kEQ9oyMMnIQ85AHQPAQhEjwDKePRixoghAAEIQAACXhFw7yXHn9wrsslsh4Q8mXFn1hCAQB8EjDJerbXkzlxTFlfa0umIzK0W5eZ8SaprxT5a5RQIQAACEIAABKJIAKU8ilGzb8wk5PbFhBFBAAKWEjDK+N2nafnz43F5/EtBWm2RjUZGapt5qbcylo6cYUEAAhCAAAQg4DUBlHKviSazPRLyZMadWUMAAj0Q2KuMf/ekKbfn8/LtQslRxrfbKWkrlZwHBCAAAQhAAALJJOBWyvEnT+Y66HfWJOT9kuM8CEAgMQSMMn5nXivjY/L9i2F5Uc/LRjPr3LJOPp6YpcBEIQABCEAAAvsIuJVy/Mn3IeKJIwiQkB8Bh5cgAIFkEzDK+JzeM66V8WpevlbKeFXtGd/upJxkPNmEmD0EIAABCEAAAoZAZawuH5aX5P1yQ65UcqKV8mIhI9lM2hzCTwjsI0BCvg8JT0AAAhDYIbBXGf/y0bhSxouypJXx1o4yDicIQAACEIAABCBgCIzktuXUyJZof/KP31yVy9NtqUyNyNhwzhzCTwjsI0BCvg8JT0AAAkkn4FbGb2ll/OmkUsaH1H5xpYwnHRDzhwAEIAABCEBgH4F0SiSX6cj5iTX53eyivDez5STkk2MFlPJ9tHjCECAhNyT4CQEIQGCXwH5lfGfPeL2ZIRlnlUAAAhCAAAQgcCABlY9LSv3fhdKafPrWgryjlPJiPiM6IUcpPxAZT+o18/jxY8QelgIEIJBoAkYRb24rDzP10P7ies84yniilwWThwAEIAABCPRFwF11/dR4GqW8L5LJOImEPBlxZpYQgMARBIwivrLRdI76WfmL6z3j91U1db1nHGX8CHi8BAEIQAACEIDAawTcVdfPTmyhlL9GiH/sJUBCvpcGv0MAAokiYJTxpdUtmXu+7ijjtc28PFwela/nVTX1tSFVSZ0944laFEwWAhCAAAQg4BEBt1KOP7lHYGPWDAl5zALKdCAAge4JGGVcJ+T1xrY8Xi7IjflJlZCPSE0p45st9ox3T5MjIQABCEAAAhDYS8CtlONPvpcOvxsCJOSGBD8hAIHEEDhMGX9QG5WbjjJeTAwLJgoBCEAAAhCAgL8EytqffGbHn/zqGfzJ/aUdvdZJyKMXM0YMAQgMSOBQZbymlHF1y3pdKeM8IAABCEAAAhCAgBcEhpU/+dSw8ic/sSGfnF0VrZRTdd0LsvFog4Q8HnFkFhCAQA8E9C3qP8ytSLXWchJwlPEe4HEoBCAAAQhAAAI9EdBWaJlUx7FD+73yJ3+/jD95TwBjfjAJecwDzPQgAIH9BExCfmc+vbNnHGV8PySegQAEIAABCEDAMwKOP/mE8ic/tyAX8Sf3jGscGiIhj0MUmQMEINAVAbN3XCvjd+ea8m01L9erkzK3yp7xrgByEAQgAAEIQAACfRNwV13Hn7xvlLE6kYQ8VuFkMhCAwFEEzN7xe0/T8tWTUbn/fFgW1guy3sgedRqvQQACEIAABCAAgYEJuKuu408+MNJYNEBCHoswMgkIQOAoAm5l/K/zefl2cUKqShlvbKdku602d/GAAAQgAAEIQAACARBwK+X4kwcA3eIuSMgtDg5DgwAEvCGwVxn/y5Mx+V4p48838rLezEi7k5JOx5t+aAUCEIAABCAAAQgcR8CtlONPfhyxeL9OQh7v+DI7CCSawF5l/I7aM+4o4wslRxlvamWcRDzR64PJQwACEIAABMIkoP3JP5ipyTVVdf2K8ievlLJSLGQkm0mHOSz6DpgACXnAwOkOAhAIjoBRxu/qPeM/K2X8xbA8U8r4htoz3lbJOPl4cLGgJwhAAAIQgAAEXieglfITxYZTdf23syv4k7+OJzH/IiFPTKiZKASSQ+AgZfybp0oZXyuKVsZ1Ms4DAhCAAAQgAAEIhElAV7BJOf7k6/LpWwv4k4cZjBD7JiEPET5dQwAC/hDYq4z/5fG4UsaLu3vGs85+cfJxf7jTKgQgAAEIQAACvRHQSfn50pp8hj95b+BidDQJeYyCyVQgkHQCbmX8tvIZ/2Z3z3hLVVJHGU/6CmH+EIAABCAAAfsIuKuu409uX4z8HBEJuZ90aRsCEAiUgFsZv6+U8RcbymdcVVPXldRRxgMNB51BAAIQgAAEINAFAXfVdfzJu4AWo0NIyGMUTKYCgaQSMMr4XK0ld5405bb2GUcZT+pyYN4QgAAEIACBSBJAKY9k2AYeNAn5wAhpAAIQCJuAUcbvzKflT3rPuPIZX9pU1dRRxsMODf1DAAIQgAAEINAlAZTyLkHF7DAS8pgFlOlAIEkE9inj1YJ8vVtNXXuM69vUeUAAAhCAAAQgAIEoEXAr5WXlT/52ZVwmxwpRmgZj7ZIACXmXoDgMAhCwj8BByviLulLGWzt7xu0bMSOCAAQgAAEIQAACRxNwK+VXZtok5Ecji/SrJOSRDh+Dh0AyCbiV8Vu6mvrTScdnHGU8mWuCWUMAAhCAAATiRkDboX2u7NCulbekMjXiKOTFQkaymXTcppro+ZCQJzr8TB4C0SSwVxn/8tG43H8xLDWU8WgGk1FDAAIQgAAEIHAgAZOQX5zakGI+4yTkOjEfG84deDxPRpMACXk048aoIZBIAgcp4ze1Mr46pPaLp7A1S+SqYNIQgAAEIACBeBJw7yXHnzyecSYhj2dcmRUEYkngIGV8SSnjdV1NPZYzZlIQgAAEIAABCCSVgHsvOf7k8VwJJOTxjCuzgkCsCOxVxr9TPuO3TDV1lPFYxZnJQAACEIAABCCwnwBK+X4mcXqGhDxO0WQuEIgpAaOMf6d8xr989IbcVz7jtc0cynhM4820IAABCEAAAhB4RQCl/BWLOP5GQh7HqDInCEScgFHEm9ttZyaLK20xyvjN+Z1q6h1MxiMeZYYPAQhAAAIQgEAvBNxKOf7kvdCz91gScntjw8ggkFgCRhFf2Wg6DB7/UnipjC/tKuOJhcPEIQABCEAAAhBIJAG3Uo4/eTyWAQl5POLILCAQCwJGGV9a3ZK55+uilfHaZl4e1kbFqaa+VlTV1CnfFotgMwkIQAACEIAABPoiUBmry4flJXm/3JArlZxopRx/8r5QWnESCbkVYWAQEICAJmCUcZ2Q1xvb8ni5IDfULeoPayNOYl5vZQAFAQhAAAIQgAAEEk1gJLctp0a2RPuTf/zmqlyebgv+5NFdEiTk0Y0dI4dAbAgcpow/0Mr4fEmqShnnAQEIQAACEIAABCAgkk6J5DIdOT+xJr+bXZT3ZrachHxyrIBSHsEFQkIewaAxZAjEjQDKeNwiynwgAAEIQAACEPCLgMrHJaX+70JpTT59a0HeUUp5MZ8RnZCjlPtF3b92Scj9Y0vLEIDAMQRQxo8BxMsQgAAEIAABCEDgEALuquunxtMo5YewsvlpEnKbo8PYIBBzAijjMQ8w04MABCAAAQhAwDcC7qrrZye2UMp9o+1fwyTk/rGlZQhA4BACKOOHgOFpCEAAAhCAAAQg0CMBt1KOP3mPAEM+nIQ85ADQPQSSSABlPIlRZ84QgAAEIAABCPhBwK2U40/uB2X/2iQh948tLUMAAi4CKOMuIPwTAhCAAAQgAAEIeESgrP3JZ5bkWgV/co+QBtIMCXkgmOkEAhDQBFDGWQcQgAAEIAABCEDAHwLDyp/8pPYnP1GXT86u4E/uD2bPWyUh9xwpDUIAAm4CKONuIvwbAhCAAAQgAAEIeEtA+5Nn0h1lh7Yuv59dwJ/cW7y+tUZC7htaGoYABAwBlHFDgp8QgAAEIAABCEDAHwLGn/y88if/DH9yfyD70CoJuQ9QaRICENghgDLOSoAABCAAAQhAAALBEnBXXcefPFj+vfZGQt4rMY6HAAS6JoAy3jUqDoQABCAAAQhAAAKeEHBXXcef3BOsvjVCQu4bWhqGQHIJoIwnN/bMHAIQgAAEIAABOwi4lXL8ye2Ii3sUJORuIvwbAhAYmADK+MAIaQACEIAABCAAAQgMRMCtlONPPhBO304mIfcNLQ1DIHkEUMaTF3NmDAEIQAACEICA3QS0P/kHMzW5Vt6SK2dyUillpVjISDaTtnvgCRkdCXlCAs00IRAEAZTxICjTBwQgAAEIQAACEOiegPYnnyo25J2pDfmN8ifXSnllakTGhnPdN8KRvhEgIfcNLQ1DIDkEUMaTE2tmCgEIQAACEIBAtAiktD+5+u/8xJr8m7JDe18p5TohnxwroJRbEEoScguCwBAgEHUCKONRjyDjhwAEIAABCEAgzgR0Un5BJeSfnluQi0opL+YzTkKOUh5+1EnIw48BI4BAZAmgjEc2dAwcAhCAAAQgAIGEEXBXXcef3I4FQEJuRxwYBQQiSQBlPJJhY9AQgAAEIAABCCSQgLvqOv7kdiwCEnI74sAoIBApAijjkQoXg4UABCAAAQhAAAIvCbiVcvzJX6IJ5RcS8lCw0ykEok0AZTza8WP0EIAABCAAAQgkl4BbKcefPNy1QEIeLn96h0CkCKCMRypcDBYCEIAABCAAAQgcSgB/8kPRBPoCCXmguOkMAtEmgDIe7fgxeghAAAIQgAAEIGAIaKX8hPIn11XXfzuLP7nhEvRPEvKgidMfBCJIAGU8gkFjyBCAAAQgAAEIQOAIAsoJTVKpjlworcun+JMfQcrfl0jI/eVL6xCIBQGU8ViEkUlAAAIQgAAEIACB1wjopPx8aU0+w5/8NS5B/oOEPEja9AWBiBFAGY9YwBguBCAAAQhAAAIQ6JGAu+o6/uQ9AhzwcBLyAQFyOgTiTABlPM7RZW4QgAAEIAABCEBAxF11HX/yYFcFCXmwvOkNApEggDIeiTAxSAhAAAIQgAAEIOAZAZRyz1D21BAJeU+4OBgCySCAMp6MODNLCEAAAhCAAAQgYAiglBsSwf4kIQ+WN71BwGoCKONWh4fBQQACEIAABCAAAd8JuJXycikrb1fGZXKs4HvfSeyAhDyJUWfOEDiEAMr4IWB4GgIQgAAEIAABCCSEgFspvzLTJiH3MfYk5D7CpWkIRIUAynhUIsU4IQABCEAAAhCAQDAEtB3a58oO7Vp5SypTI45CXixkJJtJBzOAhPRCQp6QQDNNCBxFAGX8KDq8BgEIQAACEIAABJJHwCTkF6c2pJjPOAm5TszHhnPJg+HjjEnIfYRL0xCwnQDKuO0RYnwQgAAEIAABCEAgHALuveT4k/sTBxJyf7jSKgQiQQBlPBJhYpAQgAAEIAABCEAgcALuveT4k/sTAhJyf7jSKgSsJoAybnV4GBwEIAABCEAAAhCwhgBKub+hICH3ly+tQ8BKAijjVoaFQUEAAhCAAAQgAAHrCKCU+xsSEnJ/+dI6BKwigDJuVTgYDAQgAAEIQAACEIgMAbdSjj+5N6EjIfeGI61AIBIEUMYjESYGCQEIQAACEIAABKwj4FbK8Sf3JkQk5N5wpBUIWE0AZdzq8DA4CEAAAhCAAAQgEBkClbG6fFhekvfLDblSyYlWyvEn7z98JOT9s+NMCESGAMp4ZELFQCEAAQhAAAIQgIDVBEZy23JqZEu0P/nHb67K5em24E/ef8hIyPtnx5kQsJ4Ayrj1IWKAEIAABCAAAQhAIFIE0imRXKYj5yfW5Hezi/LezJaTkE+OFVDK+4gkCXkf0DgFAlEhgDIelUgxTghAAAIQgAAEIBANAiofl5T6vwulNfn0rQV5RynlxXxGdEKOUt57DEnIe2fGGRCwnoBRxueXm3K/2pDFlbY02yl5sjIsN+dLUl0rWj8HBggBCEAAAhCAAAQgYC8Bd9X1U+NplPI+wkVC3gc0ToGA7QSMMv4/iyK3F4bl8XJBftnMqv9yUtvMS72VsX0KjA8CEIAABCAAAQhAwGIC7qrrZye2UMr7iBcJeR/QOAUCthJwK+P3FnNy7/m4/KyU8ZWtrGy10rYOnXFBAAIQgAAEIAABCESQgFspx5+8tyCSkPfGi6MhYDUBtzL+w4uizK0WZVkp483tlLQ7etcPDwhAAAIQgAAEIAABCHhDwK2U40/eG1cS8t54cTQErCSwVxn/W7Up9xaycu/FG2rPeBFl3MqIMSgIQAACEIAABCAQLwJl7U8+syTXKviT9xJZEvJeaHEsBCwlYJTx7xdT8nV1RH5YKsrTtSEnGUcZtzRoDAsCEIAABCAAAQjEiMCw8ic/qf3JT9Tlk7Mr+JN3GVsS8i5BcRgEbCSwVxm/N9eUuws5+e7ZG85t6uuNjDS22TNuY9wYEwQgAAEIQAACEIgbAe1Pnkl3lB3auvx+dgF/8i4DTELeJSgOg4CNBIwyfn8hJTeVMv4/L4ZlYb0gq6qAW0vZnLFn3MaoMSYIQAACEIAABCAQPwLGn/y88if/DH/yrgNMQt41Kg6EgD0EjDJeVT7jWhm/81Qr4xPyRBVwqzczTgE3e0bLSCAQDQKmKM2QuuWOBwQgAIEgCGyqazZ2pEGQpo8gCbirruNPfjR9EvKj+fAqBKwkYJTxvyll/MacVsaLsrg+JKuNnGw7yriVw2ZQELCagPkAoYvS8IAABCAQBIGq+iL95nxJqmvFILqjDwgEQsB8wX1e3br+gSryhj/50dhJyI/mw6sQsIrAS2W8ppRxVU39O6WM/3VxZ8+4VsZbbfaMWxUwBhMJAod9cMhm+HuKRAAZJAQiSMC5nje25f7zYfnix9PyYHlUOp0IToQhQ+AIAuaL7gvqFvbSUEPwJz8YFgn5wVx4FgJWEtirjP+3VsbVhXxR7Rlfa2RlW3mMd/AZtzJuDMpuAu4PDObWurHhnN0DZ3QQgEBkCZjr+a1qQf7XT6floUrIt1VCTlIe2ZAy8AMIuL/wxp/8AEjqKRLyg7nwLASsIrBXGb+rlfH5nNxenHCqqW+1tDKuy2jwgAAEeiHg/qDALXW90ONYCEBgEAImIb8zn5Y/PR6X79UX7M/redlQd7vxgEDcCOitYB/M1ORaeUuunMlJpZSVYiEj3Im2E2kS8riteOYTSwLmwn1P7Rm//mRUvlfV1J+9pozHctpMCgK+EjhMGZ8cK/BBwVfyNA4BCJgv2udqLbnzpCnfKqX8ht5LrvaU84BA3AjoL8BPFBtycWpDfju7Ilopr0yNCHei7USahDxuK575xIqAuWBX1QXbKOO3XirjaaeAW6wmzGQgEAABlPEAINMFBCDQFYGl1S35YW5FtFJ+Y35SHtZGqLreFTkOihIBfR9nOtURXeTtU2WH9r5SynVCzhfgO1EkIY/SamasiSPwShlPy39rZVzd0vZsI+/sGdce4+w1S9ySYMIeEEAZ9wAiTUAAAp4QMAm5/uJd2589qI1Sdd0TsjRiGwGdlDv+5OcWHKW8mM84CTlKOXvIbVurjAcCDoHXlHHlM/5XVU391kLJ2TPe2E6hjLNOINAHAZTxPqBxCgQg4CsB88W7Tszrqur642V96zpKua/QaTw0AnwhfjB6FPKDufAsBEIlYC7Q956m5avdPePP9Z5xVewFZTzU0NB5hAnwQSDCwWPoEIgpAfMFvE7I556vy+JKG6U8prFmWiJ8MX7wKiAhP5gLz0IgFALmwuzsGdfK+HxevlV7xnWRF5TxUEJCpzEgwAeAGASRKUAg5gTMF/FGKddb1P6g7dDULex6exoW5TFfAAmbnvsL8qT7k5OQJ+wPgOnaTcBckLUy/pcnYzs2KGrP+DrKuN2BY3RWE3Bf+I3POMVkrA4bg4NAogiYL+SNUn57viB/fHRa7SkfcbaptcnIE7Ue4j5Z9xflSfcnJyGP+4pnfpEgYC7EWhm/Y5RxtWdcK+NNvWecC3Ek4sgg7SLgvuDjM25XfBgNBCCwn4D5Yv6u+mL+z8qf/P6LomNzij/5flY8E30C+gtz7U/+fmVLribYn5yEPPprmRnEgMDeC/Bf1AX4e3UBfl7Py0Yjq/aMc6taDELMFEIggDIeAnS6hAAEBiLg/oL+27m8XFdF3vAnHwgrJ1tKQH9xPlls7vqT/yJXE+pPTkJu6QJlWMkg4L7w3q7m5ZtdZbzVTjnJeDJIMEsIeEcAZdw7lrQEAQiEQ0Dfuo4/eTjs6TVYAqlUSs5PrMln557KtYT6k5OQB7vm6A0CrxFwK+P61rQXGwVnzzhFXF5DxT8g0DUBlPGuUXEgBCBgKQGTkONPbmmAGJanBC6U1p2E/OLUhiTRn5yE3NPlRGMQ6I7AXmX8uyc71dRRxrtjx1EQOIwAyvhhZHgeAhCIGgHzhb2puo4/edQiyHh7IZD0L9JJyHtZLRwLAY8ImAvtnXldtEVVU38xLC/0nvFmFnsTjxjTTPIIJP2CnryIM2MIxJeA+eLeVF3Hnzy+sWZm+JOTkPNXAIEACZgL7Jyupq6U8dvKZ/ybpyWZU9XUtzspJxkPcDh0BYHIE0ipGQypojClYkPtQVtX1VqXhGrqkQ8rE4AABHYJmC/wjVKu/cm/UP7kD/AnZ43EkEBSv1gnIY/hYmZK9hIwF1atjP9JV1NXF1ZHGW9lSMbtDRsjs5SATsZTqY6URzfl18o2RReFKQ01BJ9xSwPGsCAAgZ4JmC/yjVKu/cn/89Epebg86tii4k/eM1JOsJhAUreekZBbvCgZWnwImAvqS2W8WpCvlTJeXdPKuLI1w2c8PsFmJoEQ0Ml4MaftUhpy8cSG/HZ2Rd58Y8vpe3w4J5WpERlTP3lAAAIQiAMB84W+9if/6ucxua++0F9c3ykCG4f5MQcI7CXgVsrLpay8XRmXybHC3sNi8zsJeWxCyURsJmAupEYZ1xfSJb1nHGXc5rAxNksJ6GQ8rZXxMaWMTy/J++WGXDmTc5RxPeRcJi3FQkay6icPCEAAAnEgYL7Y11XX78w15ZaySb1enXS2vMVhfswBAnsJuJXyK8qfnIR8LyF+hwAEuiZgLqBGGdcX0K+fTjrKuL7NDGW8a5QcCAGHgFHGTyhl/J1dZVxfqFHEWSAQgEASCOhb1/EnT0KkmaMmcL60Jp+fW4i9PzkKOesdAj4S2KuMf/loXO6raupaGa+jjPtInabjSuAwZbyibmVDEY9r1JkXBCCwl4BJyPEn30uF3+NKwCTkcfcnJyGP6wpmXqEQMIp4c7vt9K9tSnQ19Vtqz/hNvWd8dUip4qqaeiijo1MIRJdASmXjw6qaut4zjjIe3TgycghAYDAC5ot+U3Udf/LBeHK23QTce8njWrSVhNzudcjoIkbAXChXNprOyH/+pSBfPnpjVxnPSb2pqqlHbE4MFwJhE9DJeEb9py/Mf79nzzjKeNiRoX8IQCBoAuaLf1N1HX/yoCNAf0EScO8lj6utKQl5kKuKvmJL4LALpLYl+Xpe7xnXyrjaMx5bAkwMAv4QMMq4s2d8akN+c3ZF2DPuD2tahQAEokPACAAo5dGJGSPtn0DclXIS8v7XBmdC4CWBQy+MyyNSU3vGN/We8ZdH8wsEINANgb3K+K+na/Jeecuppo4y3g09joEABOJM4DAh4EFtVG7O79iqxnn+zC1ZBOKulJOQJ2s9M1uPCXBB9BgozUFAEdDF2xxlXPuMD6k94yjjrAsIQAACBxJwCwLaVvU/fjwtD1VizgMCcSPgVsrj4k9OQh63lcp8AiXgvhBSXCVQ/HQWUwJpvWc83ZHKWF2unVbK+MyOzzjKeEwDzrQgAIG+CbiFgW9VEVkS8r5xcqLlBNxKeVz8yUnILV94DM9OAu4LIEVV7IwTo4oWAXOhHc5vSzYtcvaNLflE7Rm/PI3PeLQiyWghAIGgCRg7tDvzabmhatc8rKktc5s7NqtBj4X+IOA3Af2F/YflJXm/rL6wr+REK+VRtj8lIfd7xdB+LAmgjMcyrEwqZALmVjR9odW3rGt7kzhcaEPGSvcQgEACCJiEHH/yBASbKcqI2tJ2amRLtD/5x2+uRv6LexJyFjUEeiCAMt4DLA6FQJcEjDJ+vrQuH8wsSVxtTbrEwWEQgAAEeiaAUNAzMk6IMAG9tS2X6cj5iTX53eyi2tq2JZWpEZkcK0RSKSchj/BiZOjBE+CCFzxzeow/AaOMXyitSUkVcdPKeJQvrPGPGDOEAARsI4BgYFtEGI+fBEzxV/254dO3Fpzir8V8xknI9eeHseGcn9173jYJuedIaTCOBLjQxTGqzClsAijjYUeA/iEAgbgRQDiIW0SZz1EE4vKFPgn5UVHmNQjsEuACx1KAgPcE4nIh9Z4MLUIAAhDojwACQn/cOCuaBOLyxT4JeTTXH6MOiAAXtoBA002iCMTlApqooDFZCEAgUgTcQoL2J//Drj95J1IzYbAQOJ6A+wv+qPmTk5AfH2OOSDAB9wUNn/EELwam7hkB94WTPeOeoaUhCEAAAg4Bt6BwS/mTf/HTaXmg7NA6nZSQlLNQ4kTA/UV/1PzJScjjtBqZi2cE3BcyfMY9Q0tDCSbgvmBSTT3Bi4GpQwACgRAwwoL2J//y0bhopfxFHX/yQODTSeAEytqfXLm1XKtEy5+chDzwpUKHUSBgLmDa17Pe2BaU8ShEjTHaTgBl3PYIMT4IQCBuBIzAMFdryZ0nTflWKeU35ktSXS3GbarMBwIyrPzJT2p/8hN1+eTsSmT8yUnIWbwQ2EPAXLh0Ij73fF1QxvfA4VcI9EkAZbxPcJwGAQhAwCMC+nPND3MropXyG/OT8lDdul7bRCn3CC/NWEJA+5Nn0h25UFqX388uRMafnITckgXEMOwggDJuRxwYRbwIoIzHK57MBgIQiB4Bk5BXlVKuE/EHtVG5qZXyNZTy6EWTER9GwPiTn1f+5J9FyJ+chPywiPJ8ogigjCcq3Ew2IAIo4wGBphsIQAACxxBAcDgGEC/HikDUhAAS8lgtPybTLwEuVP2S4zwIHE4gahfEw2fCKxCAAASiTQDhIdrxY/S9EYiaIEBC3lt8OTpmBLhAxSygTMcKAlG7EFoBjUFAAAIQCICAW4DAnzwA6HQRGgG3MGCrPzkJeWhLhI5tIOC+MFFN3YaoMIaoE3BfAPEZj3pEGT8EIBAXAm4hwviT6yJvbfzJ4xJm5rFLwC0Q2OpPTkLOkk0kAfcFiWrqiVwGTNpjAu4LHz7jHgOmOQhAAAIeETCCBP7kHgGlGasJaH/yD2Zqcq28JVfO5KRSykqxkJFsJm3FuEnIrQgDgwiagLkQ4TMeNHn6izMBlPE4R5e5QQACcSJghAn8yeMUVeZyGAEtGJwoNuTi1Ib8dnZFtFJemRqRseHcYacE+jwJeaC46SxsAuYChM942JGg/zgRQBmPUzSZCwQgkCQCxg4Nf/IkRT15c9V2aOlUR84rf/JPlR3a+0op1wn55FjBCqWchDx5azLRM0YZT3T4mbxPBFDGfQJLsxCAAAR8JmAScvzJfQZN86ET0Em5409+bsFRyov5jJOQ26CUk5CHvjwYQBAEUMaDoEwfSSOAMp60iDNfCEAgbgQQKuIWUeZzFAFbBQQS8qOixmuxIcAFJzahZCIWEbD1wmYRIoYCAQhAwGoCCBZWh4fBeUzAViGBhNzjQNOcXQS40NgVD0YTDwK2XtDiQZdZQAACEAiegFu4+P75sPzhp9PysDYqnY6I+h8PCMSGgFtQCNufnIQ8NkuLiRxEwH2BwWf8IEo8B4HeCLgvZPiM98aPoyEAAQjYRsAtYNyeL8gfH52WB8qffLudUh7lto2Y8UCgfwJuYSFsf3IS8v5jyZkWE3BfWPAZtzhYDC0yBNwXMHzGIxM6BgoBCECgKwJGyLj7NC1/fjwu918U5dl6QTaama7O5yAIRIlARfmTf1heUv7kDblcyYlWysPwJychj9KqYaxdEzAXFHzGu0bGgRA4lgDK+LGIOAACEIBApAkYQUNXXb8z15Rv5/JyfX5SqqvFSM+LwUPgIAIj+W05NbLlVF3/xzOr8u50OP7kJOQHRYfnIkvAXEjwGY9sCBm4hQRQxi0MCkOCAAQg4CMBY4eGP7mPkGk6dAIZ5YWWy2h/8jX53dlF+dVMOP7kJOShLwUG4CUBlHEvadIWBHYIoIyzEiAAAQgki4BJyPEnT1bckzZb7U2eVv+nE/JP31qQd6Y2JAx/chLypK28mM4XZTymgWVaoRJAGQ8VP51DAAIQCI0AAkdo6Ok4BAJhCw8k5CEEnS69J8CFw3umtAiBsC9QRAACEIAABMIhgNARDnd6DYdA2AIECXk4cadXjwhwwfAIJM1AYA+BsC9Me4bCrxCAAAQgECIBt+Ch/cm/UP7kD/AnDzEqdO0XAbcQEZQ/OQm5XxGl3UAIuC8U+IwHgp1OYk7AfUHCZzzmAWd6EIAABA4h4BY+tD/5fz46JQ+XR6W5jT/5Idh4OqIE3IJEUP7kJOQRXTBJH7b7AoHPeNJXBPP3goD7QoTPuBdUaQMCEIBA9AkYAUT7k3/185jcV0r5ovInX8efPPrBZQb7CJS1P/mM8ievNORKAP7kJOT7QsATUSBgLgz4jEchWowxKgRQxqMSKcYJAQhAIFgCRggx/uS3qsqfvDopc/iTBxsIeguEwHBuW05qf/ITdfnk7Ipc9tmfnIQ8kLDSiVcEzAUBn3GviNIOBERQxlkFEIAABCDQDQFjh4Y/eTe0OCaqBLQVWibdkQuldfn97IK857M/OQl5VFdKQseNMp7QwDNtXwmgjPuKl8YhAAEIxIaAScjxJ49NSJnIAQS0P3lq15/8swD8yUnIDwgCT9lHAGXcvpgwougTQBmPfgyZAQQgAIEgCSCMBEmbvsImEJRgQUIedqTpvysCXAC6wsRBEOiJQFAXmp4GxcEQgAAEIGAtAQQSa0PDwHwgEJRwQULuQ/Bo0jsCvPF7x5KWIGAIBHWBMf3xEwIQgAAE4kUAoSRe8WQ2RxNwCxhe+5OTkB/Nn1dDJsAbfsgBoPtYEnBfWPAZj2WYmRQEIAAB3wggmPiGloYtJOAWMrz2JychtzDoDEmEN3pWAQS8J+C+oOAz7j1jWoQABCCQJAJu4UT7k//Hj6flYW00SRiYa0IIaH/yD2Zqcq28JVfO5KRSykqxkJFsJj0QARLygfBxsl8E3G/wj5cLcmN+Ur3Bj0htMy/1VsavrmkXArElgDIe29AyMQhAAAKhEHALKN9WCyTkoUSCToMgoP3Jp4oNeWdqQ36j/Mm1Ul6ZGpGx4dxA3ZOQD4SPk70m4H5jX1xpOwn4A/VN6835klTXil53SXsQiD0BlPHYh5gJQgACEAiVgLFDw5881DDQuc8EtBVaRv13Rivl5RfyvlLKL5XzMjORG0gpJyH3OXA03xsBlPHeeHE0BLohgDLeDSWOgQAEIACBfgmYhBx/8n4Jcl5UCOik/I1CU86M1x2l/O9n1uWdUzKQUk5CHpXox3ycKOMxDzDTC4UAyngo2OkUAhCAQOIIIKgkLuSJnnA+05bR/LacL63JJ5Xncvl000nIJ8cKfSnlJOSJXk72TJ43cntiwUjiQwBlPD6xZCYQgAAEbCaAsGJzdBib1wTSqY5k0x2VkK/L72cX5O9O1KWYz4hOyPvZU05C7nWEaK8nAuYN/OlyU+7PN0TvGW9up+TnlWH2jPdEkoMh8IoAyvgrFvwGAQhAAALBEUBgCY41PYVPwC189OtPTkIefiwTPQLzxv3DM5G/LhRFV1Nf3szJcj1HNfVErwwmPwgB9wUCn/FBaHIuBCAAAQh0S8AILXpP+dzzdUdo0e44FOftliDHRYmAWwDp15+chDxKUY/RWM0b9rxSxv9WVf8tZOVvS+PyZKUov6iEfLM1mJ9fjFAxFQh0TcB9YcBnvGt0HAgBCEAAAh4SMIKLTszrjW3R/uR/+HFaJeYjHvZCUxCwg8Cg/uQk5HbEMXGjMG/U3y+m5OvqiPywVJSFtYKsbOWcW9a3O6qEIQ8IQKAnAijjPeHiYAhAAAIQ8ImAEV6MUq79yXVC/nB5VDqdjk+90iwEwiGgBZETxaZcVP7kv539pWd/chLycOKW2F7NG7RWxu8pZfzu05x89+wNmVstynojI41tlPHELg4m3jcBlPG+0XEiBPYRcK5TStFrtdr7XuOJ4AlsbWfUl/VZ2VQ/9z725nQv0zv1Zf7L3/cerH53nn/54v7j9DNp9RFEv59qS6ORQscp0pTN8LnEhbKnfxoB5rv5tHz56A1HKV9S2xLrrdfj2VOjHAwBywhoGVHboVWUP/mH5SXHn/zdck7Kpe78yUnILQto3Idj3pjvK2X8G6WM/8+LojxdG3Iutq12Stoo43FfAszPBwIo4z5ApcnEElitN2X+xYasbTQTy8CmiS9uFOTO83HRP53HbtLdVsm1Tsp1jt3Zfc781MftJOyvEm/nWOcc56Pza4m7fi2Tbksh2xF96+nVk7/Iham2zJwYlrFizumW/+uPgBFi5mot+e5JU27NFeTGfEmqa8X+GuQsCFhKQL+zjBZaMj2640/+UWVdLp3udFV1nYTc0qDGbVjmDdlRxueacmchJ3eUMv5kddhRxnVldR4QgEBvBFDGe+PF0TsEkqoAbypFrraVf1WjRGdy8iphM+tjdaOhEvK6rNYbryVt5nV+Bkvg2XpBvnv+hjzbTcg7OmZOYm2S8R4T8t3zdezNo60inVU2RoVcWy5MrMu/nH0mV6abUlYJ+YT2FVZ2RijlhlZ/P/Wt6z/MrcgdpZTfmJ+Uh2ovuS72hlLeH0/OspOAtkIrqLtstD/5v7z5XK5ON7ryJychtzOesRvVS2V8ISU3HWV8WBbURVbvGd92lPHYTZkJQcB3AijjviOOZQdJVYDn1d1YXy+URP90HrtqqZOX70ZaJ3rN7bZsbKlb1rc7uwrs3iNiuSSsntTOLes52drd0uZEYzckLyNzwK3qL18zs1NP7Dz3KhHf85Lz1Yy+O/2C+iD92VuL8o7aCzqUz0pJJeQo5YZU/z9NQl5VSjlV1/vnyJl2E9C3rWfUl3s6If+32Z33kW78yUnI7Y5r5EdnlPGq3jOulXFnz/iEUsaLUm9mnAJukZ8kE4BAwARQxgMGHpPujDK+rJSqqrol+9lKW5aUq0VSFKqn6hbZr5/uSchVXJ1bnPdkblopFXP7s6Ok7nkxJuuAaRxNYGcPaM1JzCeHmnJyPI1SfjSyrl41woypuq5tblHKu0LHQREk0KtgQkIewSBHacjmDfhvShm/MbezZ3xxfUhWGyjjUYojY7WLQK9v9HaNntGERcAo4zWVkG82WvJIfSC+Xp1URTV3FeOwBhZQv/qW9eVjbpF10u/dHJxUPKDAWNaN/sJzsthQCfm6U5xpdmILpdyDGBmBxlRdX1RfCKKUewCWJqwk0KtwQkJuZRijPyjzxlut7VRT/04p439d3KmmrpXxVpuqpdGPMjMImkCvb/BBj4/+7CRglPF5dauovlPp2WpbFdAUx93ierXk/LRz5IwKAuERcCvl5VJWzs2MObewhzeq6PdshBqjlO/4k59We8qVHVr0p8cMIPAaAbeAot9H3q6My6TaCrP3QUK+lwa/e0bAvOFqZfy/tTL+fFgW1Z7xtUZWtMe4vk2QBwQg0BsB9xv7KXUrZWVqxHljLxYoOtQbzeQcbZTxe/Mp+fPPY44y3lKFNNfVl6NLdYoqJWclMNNeCLiV8qszHRLyXgAecqwRbIxSfkv5k3/xk07IRxynHZLyQ8DxdCQJuIWUKzNtEvJIRjJigzZvtFoZv6t8xr+bz8ntxQlHgdlStwtqazMeEIBAbwTcb+hn1S2U3RQJ6a0Xjo4bgb3K+F2ljP91Pu/soZ5TNTy0s4VWyXlAAAJHE9BK+ceVmlwrb8m7lZzMKIWLqutHM+vmVSPc6KrrXz4ad/zJX/AFYTfoOCaCBIw/+bVKQy47/uTqfWSPkIJCHsGg2jxk8wZ7TyvjT0ble6WMa6uS9ZfKuM2jZ2wQsJMAyridcbF9VEYZv6uU8T89Gnv5gXe9md2tHm77DBgfBMInMJLfltMjW3JRVV3/5M1VeVcp5VRdHzwuRsDR/uR3lD/5t0opd/zJ1ReGPCAQNwKj+ZacHt15H/nozJq8e7r9mj85CXncIh7SfMwbq1HGtRJza2FHGW8oqxJtbcYDAhDojQDKeG+8kn60UcRbrbaDQu8Vv/OkJbfV+/HN+Z33450tQ0knxfwh0D2BtPr4kst0nKrrnyo7tF/NNKi63j2+Y4/Ut67jT34sJg6IOIGM8ifP776P/MubO+8je7cckpBHPMC2DP8wZVzvGW87e8ZtGSnjgEB0CKCMRydWNozUKOJrG01nOLqK+n/t3gpaq+dkQ20b0j7bPCAAge4JaDlBewu/rXyFPz+/4Cjl+JN3z++4I01Cjj/5caR4PcoE9HtIWvuTT6zLp28tyDvqjpu9Ww9JyKMcXQvG/koZb8nOHsWc3NrdM44ybkGAGEIkCaCMRzJsoQ3aKONuf/EHqmrxDW1rpvy3O2TiocWHjuNBwF11HX9yb+JqBB1TdR1/cm+40oqdBA4TWkjI7YxXZEZl3kjvPU3LX56MOXvGn2/kneq9KOORCSMDtYzAYW/Y2iZjbxEQy4bNcEIiYJRxt7/4A1W1mCrqIQWFbmNHQH9Rij+592E1wo6puo4/ufeMadEeAocJLiTk9sQoUiMxb6D6FqM7u9V7v10oSXW3eu82t0VGKp4M1g4Ch71R60Rc7zUaG87ZMVBGYQWBo5Rx/MWtCBGDiCEBt1KOP7k3QTYCj1HKtT/5Fz+elgfLyp+cz5TeQKYVawi4hRcScmtCE62BmDfOu0oZ/0r52n7/QldTz8uGs2dchPfOaMWT0dpBwP0Gjc+4HXGxdRQo47ZGhnHFmYBbKcef3JtoG6HHKOXan/yPj06J3npDMUpvGNOKPQTcAgwJuT2xicRIzBvmXmX8m6dKGVd7FPG1jUQIGaSFBNxvzPiMWxgki4aEMm5RMBhKYgkYpfxaZUuu4E/u2Towgo/2J//zY2XXqASf58o+d6OZ8awPGoKALQSMPzkJuS0Ricg4zBulVsb/8nhcKeNF9Uap94zjaxuREDJMCwmgjFsYFIuHhDJucXAYWmIIDOe25USx4VRd/6e3VuQK/uSexH6v8POd8ie/Vc3L9flJZ0ukJx3QCAQsIjCi3kdOjWwJCblFQbF5KHvfIPWe8dvqDfKb3T3jLeUx3uYedZvDx9gsJYAybmlgLB0WyrilgWFYiSSwY4fWkTPjdfmovCTXyg25VM7LdCnr2BllM+lEcvFq0vrWdfzJvaJJO7YSSKs3kpzyJychtzVClo3LrYzfV8r4C3UL0bq6hUgX2yAftyxgDCcSBFDGIxEmawaJMm5NKBgIBBwCOikfLbRkZrQul06qxLyyJhenRWZODMtYkSKcgywTk5DjTz4IRc61ncDOF3tCQm57oMIen1HG53Q1dXXr0O35vJhq6ijjYUeH/qNKAGU8qpELZ9wo4+Fwp1cIdEMgm+5IQVmivV1al3+dfSZXp5tSVgn5hLapzGcEpbwbivuPMUKQqbqOP/l+RjwTHwIo5PGJpS8zMW+IurjGn/SecWVDsbSpqqmjjPvCm0aTQQBlPBlx9mqWKONekaQdCHhPIKUkrkyqIxdKa/L5uUV5Z2pDhvJZKamEHKW8f95GEDJV1/En758lZ9pPgITc/hiFMkLzRvhSGVf2E1/vVlPXHuN4QoYSFjqNOAGU8YgHMODho4wHDJzuIDAAAVN1XSfmk0NNOTmeRikfgKc51QhDRinXwtAXPyl/cmWHxpZJQ4mfUSdAQh71CPo0fvMGaJTx+1oZrytlvLWzZ9ynbmkWArEmgDIe6/B6PjmUcc+R0iAEfCOgv3CdVFXXL6hb1z9URd5mJ7ZQyj2gbQQio5Tfni/Ifyp/8ofLo9jtesCXJuwgQEJuRxysGYV54zPKuLab+PqpsptQPuO6kjrKuDWhYiARIaALdgypD2ol9UHt/MS6fDCzJPiMRyR4IQ3TKOPzqnbHPeVq8Wy17bz/zq0W5Xq1JPonDwhAwE4CbqW8rKqun5sZc25ht3PE0RiVEYq07e5XPyt/ciUULa7vFBeOxgwYJQQOJ0BCfjibRL5i3vC0Mv7lo3G5/2JHGa+jjCdyPTDpwQjsVM/sSHl0U349U1MJ+ZqUhhpySt3KWJkakUld9KdA0Z/BKMfvbKOM35tPyZ/VB89HywVpbaccVwt9p5J+P+YBAQjYScCtlF9V/uQk5IPHyghGuuq6tt91/Mmrk3xBOThaWrCAAAm5BUGwYQjmjW6vMn5TK+OrQ0oVT2FrZkOQGEOkCOhkvJjbuYXx4okN+e3sirz5xpYzh/HhnJOQj6mfPCBgFPFWq+3A0Ir4XfWB87a6Q+mbhR1FvKkScn2XEg8IQCAaBLRS/nGlpvzJt+TdSk5m8Cf3JHD61nX8yT1BSSMWESAhtygYYQ7lUGVcV1MPc2D0DYEIEtDJeFpV3S2PKWV8ekneLzfkypmco4zr6eQyaZTxCMbVryEbRXxto+l08fiX/M4dSuqWzBe6dgeuFn6hp10I+EZgJL8tp0e25KKquv7Jm6vyrlLKqbo+OG6TkONPPjhLWrCHAAm5PbEIdCRGEW9u7ygy2k7iO+UzfstUU0cZDzQedBYfAtoCZ3i3uM87u8r4lZk2inh8QuzZTIwyvqwUn+qLDXmm3oeXNnPyUFUPvjlfcmp34GrhGW4agkCgBNLqWpDL7NihffrWovxqpkHVdQ8iYAQkU3Udf3IPoNJE6ARIyEMPQTgDMG9oKy8VmYJSZN5wimTU1AfCOsp4OIGh10gT2PGjFbVnvC5/v0cZr+hbFdkrHunY+jF4o4zXVEK+2Wg5e8Wvqz2RD2ojUtvc2StOIU0/yNMmBPwnoO+U0teEt7U/+fkFRynHn3xw7kZQMlXX8ScfnCkthE+AhDz8GAQ6gsPeyBxFZreaeodPgIHGhM7iQcAo41TQRksAAEAASURBVCdUNfV31C2Kvzm7Iijj8Yit17M4TBnXvrpUUfeaNu1BIFwC7qrr+JN7Ew8jLKGUe8OTVsIlQEIeLv/Ae+cNLHDkdJgAAjvKeEf0B6+/n67Je+rWRL1nHGU8AcHvY4pHKeNUUe8DKKdAwGIC7qrr+JN7E6zDBCb9xabZ8uNNT7QCAf8JkJD7z9iKHnjjsiIMDCKGBBxlPNeSKa2Mqz3jn5xdRRmPYZy9mBLKuBcUaQMC0STgVsrxJ/cmjm6hSfuT/8ePp51aHN70QCsQ8J8ACbn/jK3owf2GRREMK8LCICJO4CBl/KpSxvUHLfaMRzy4PgwfZdwHqDQJgYgQcCvl+JN7Ezi34PStKk5MQu4NW1oJjgAJeXCsQ+nJ/UZF8YtQwkCnMSOgP1iVhhoyrHzGM+mOnFX+4ijjMQuyh9NBGfcQJk1BIOIEjFJ+rbIlV/An9yyaxg7tznxabsxPKoX8VXFMzzqhIQj4RICE3CewtjSLMm5LJBhHnAjoKur/MFNTPuN10ZV0T42nBWU8ThH2di4o497ypDUIRJmA/iJXF//U/uT/9JYu/ok/uRfxNAk5/uRe0KSNoAmQkAdNPKD+UMYDAk03iSJglPHzpXX5YGZJzk5sSTGfkcmxAj7jiVoJ3U0WZbw7ThwFgSQR2LFD68iZ8bp8VF6Sa+WGXCrnZVpvdVLXk2wmnSQcns0VAcozlDQUAgES8hCgB9Elb0xBUKaPpBEwyvgF5Surb1nXynhlasRJyNkznrTVcPx8UcaPZ8QREEgiAZ2UjxZaMqPutrp0UiXmlTW5OC0yc2JYxoq5JCIZeM4IUQMjpIEQCZCQhwjfj655Q/KDKm0mnQDKeNJXQG/zRxnvjRdHQyCJBLKq/khB1SN5W91x9a+zz+TqdFPKKiGfUHdcoZT3vyIQpPpnx5nhESAhD4+9Lz3zRuQLVhpNOAGU8YQvgB6njzLeIzAOh0ACCRiXDn3H1efnFuUdtad8KJ+VkkrIUcr7XxAIU/2z48zwCJCQh8fe0555A/IUJ41BwCGAMs5C6IUAyngvtDgWAhDQBEzVdZ2YTw415aTaCoVSPvjacAtU+JMPzpQW/CNAQu4f20Bbdr/x4DMeKH46iykBlPGYBtanaaGM+wSWZiEQYwL6i99JVXX9grp1/UNV5G1WFQtFKR884G6hCn/ywZnSgn8ESMj9YxtIy+43HHzGA8FOJzEngDIe8wB7PD2jjM/XWnJvrimLq23pdETmVotyvVpyfnrcJc1BAAIxI+BWysuq6vq5mTHnFvaYTTXQ6Rg7NPzJA8VOZz0SICHvEZhth6OM2xYRxhMHAijjcYhicHMwyvi9+ZT86fG4PFouSKststHMyFI9L/VWJrjB0BMEIBBJAm6l/KryJychHzyUJiHHn3xwlrTgHwEScv/Y+toyyriveGk8oQRQxhMa+B6nbRTxls661eOZUsTvKmX8drUgN59qRXxIttspaSuVnAcEIACBXghopfzjivInrzTk3XJOZvAn7wXfvmMRrvYh4QkLCZCQWxiUbobEG0w3lDgGAr0RQBnvjVdSjzaK+NpG00Hw+Je8fPloXP72fNhRxLUyrm9ZJx9P6gph3hDon8BIviWnRrbk0lRdPjm7Ku9Od6i63j9OQcAaAB6nBkaAhDww1N50xBuLNxxpBQJ7CaCM76XB74cRMMr48uqWVF9syLOVtixt5uRhbXRXGS86qrhOxnlAAAIQ6IdAOtWRXKbjFHn7t7cW5b2ZBlXX+wHpOgchywWEf1pFgITcqnAcPxjeUI5nxBEQ6JUAynivxJJ5vFHGayoh32y0nL3i16uT8qA2IrXNnb3iJOPJXBvMGgJeEUiphlIqKX9bVV3//PyCXMSf3BO0CFqeYKQRnwiQkPsE1utmeSPxmijtQUAEZZxV0A2Bw5TxB0oZp4p6NwQ5BgIQ6JWAu+o6/uS9Ejz4eLewpf3J//DjaedOJ25uOpgZz/pPgITcf8ae9OB+A8Fn3BOsNJJwAijjCV8AXU7/KGWcKupdQuQwCECgJwLuquv4k/eE79CD3QLXLVWM84ufTjt3OnU6KWp/HEqOF/wkQELuJ10P2na/ceAz7gFUmkg8AZTxxC+BrgCgjHeFiYMgAAEfCbiVcvzJvYFthC7tT66Lcmql/AU2ld7ApZWeCZCQ94ws2BPMG4b2Uaw3tgVlPFj+9BZPAijj8Yyr17NCGfeaKO1BAAK9EnAr5fiT90rw4OON4DVXa8mdJ035VinlN+ZLUl0tHnwCz0LARwIk5D7CHaRp80ahE/G55+uCMj4ITc6FwA4BlHFWQjcEUMa7ocQxEIBAkASMUq79ya9UsviTewRff87+YW5FtFJ+Y35S7SV/VaTToy5oBgLHEiAhPxZROAegjIfDnV7jTQBlPN7x9Wp2KONekaQdCEDAKwLDuW05UWw6Vdf/6a0VuTLTxp/cA7gmIa8qpVy7ZehinTe1Ur6GUu4BXprokgAJeZeggjoMZTwo0vSTJAIo40mKdv9zRRnvnx1nQgAC/hLYsUMTOTNel4/KS3KtvCWXynmZLmWlmM9INpP2dwAxbR0BLKaBjdi0SMgtCxhvDJYFhOHEggDKeCzC6PskUMZ9R0wHEIDAAAR0Uj5aaMnM6KZcOrkhH1XW5OK0oJQPwBQhbAB4nOoZARJyz1AO1hBvCIPx42wIHEQAZfwgKjznJoAy7ibCvyEAAVsJZNMdKWS35e3Suvzr7DO5Ot2U8olhmRgroJQPEDS3IKarrn+h/MkfLI9KB4PyAchyajcESMi7oRTAMe43AqqpBwCdLmJPAGU89iH2ZIIo455gpBEIQCAAAiklk2dSHblQWpPPzy3KO1MbMpTPSkkl5DMqMR8r5gIYRfy6cAtj2p/8fyl/8ocqId9WCTlJefxibtOMSMhDjob7DYBq6iEHhO5jQQBlPBZh9H0SRhl/qor53K025dlKW9rqg9ecsr25Xi05P30fBB1AAAIQ6IOAqbquE/PJoaacHE+jlPfB0X2KEch01fU/PR6X75VS/lz5k280M+5D+TcEPCNAQu4Zyv4aMn/4+Iz3x4+zIHAQAZTxg6jwnJuAUcbvPU3JXx6PyaPlgjTbKVlvZGRJfQCrt/gA5mbGvyEAATsI6C+eJ4sNpZSvy4eqyNvsxBZKuQehMUIZ/uQewKSJrgmQkHeNytsDzR88PuPecqW1ZBNAGU92/LudvVHG55Uyfm+uKbfn8/LN0x1FvLmdcm5P7LYtjoMABCAQJgG3Ul5WVdfPzYw5t7CHOa6o923s0PAnj3okozF+EvKQ4oQyHhJ4uo01AZTxWIfXs8m9VMbnU84tifdfFOX5hrolsZF1blmnfo9nqGkIAhDwmYBbKb860yEh94C5ScjxJ/cAJk0cS4CE/FhE3h6AMu4tT1qDgCaAMs46OIqAUcRbrbZz2LPVttzRyrgq2vP10wlnr/i2ulVd7x/nAQEIQCCKBLRS/nFF+ZNXGvJuOScz+JMPFEaEs4HwcXKPBEjIewQ26OH8gQ9KkPMhsJ8Ayvh+JjzzioBRxNc2ms6Tj37Jy//+aVy0rc3Sptorror16Aq65OOvmPEbBCAQLQIj+ZacGtmSS1N1+eTsqrw73aHq+gAhREAbAB6n9kyAhLxnZP2dwB92f9w4CwJHEUAZP4oOrxllfHl1S6ovNpwq6kubOXlQG5Wb83rP+JBKxFMk4iwVCEAg8gTSygotl9F2aOvyb28tynszDaquexBVt5Cmq67/QduhqesIX+R6AJgmHAIk5AEtBPcfND7jAYGnm1gTQBmPdXgHnpxRxmsqId9stJwq6terkyohH5GaUcYH7oUGIAABCIRPQNmTS0ol5W+rhPzz8wtyEX9yT4LiFtRuzxfkj49OO9cRtjp5gphG9N/u48ePuUvPx6Xg/kPGZ9xH2DSdGAIo44kJdV8TPUoZx1+8L6ScBAEIRISAu+o6/uTeBM4Ia3efpuXPyp9cFwN9tl7An9wbvIlvhYTc5yVg/oDxGfcZNM0nigDKeKLC3fNkj1LG8RfvGScnQAACESLgrrqOP7k3wTMCm666rouCfjuXl+vzk1JdLXrTAa0kmgAJuU/hN3+4+Iz7BJhmE0kAZTyRYe960ijjXaPiQAhAIOYE3Eo5/uTeBNzYoeFP7g1PWtkhQELu00pAGfcJLM0mmgDKeKLDf+zkUcaPRcQBEIBAQgi4lXL8yb0JvEnI8Sf3hiet7BAgIfd4JaCMewyU5iCgCKCMswyOIoAyfhQdXoMABJJMwCjl2p/8SiWLP/mAiwHBbUCAnH4gARLyA7H0/yR/qP2z40wIHEYAZfwwMjyvCaCMsw4gAAEIHExgOLctJ4pNp+r6P721Ildm2viTH4yqq2cR3rrCxEE9EiAh7xHYYYfzB3oYGZ6HQP8EUMb7Z5eEM1HGkxBl5ggBCAxCYMcOTeTMeF0+Ki/JtfKWXCrnZbqUlWI+I9lMepDmE3uuW4DT/uRfKH/yB/iTJ3ZNDDJxEvJB6O051/2Hic/4Hjj8CoE+CaCM9wkuIaehjCck0EwTAhAYiIBOykcLLZkZ3ZRLJzfko8qaXJwWlPIBqLqFOO1P/p+PTsnD5VFpbqekjan0AHSTdyoJ+YAxd/9B4jM+IFBOh4AigDLOMjiKAMr4UXR4DQIQgMB+Atl0RwrZbXm7tC7/OvtMrk43pXxiWCbGCijl+3F1/YwR5LQ/+Vc/j8l9pZQvKn/y9Wam6zY4EAIk5AOuAfOHiM/4gCA5HQJ7CKCM74HBr/sIoIzvQ8ITEIAABI4kkFIyeSbVkQulNfn83KK8M7UhQ/mslFRCPqMS87Fi7sjzefFgAkaYM/7kt6rKn7w6KXP4kx8MjGcPJEBCfiCW4580f4D4jB/PiiMg0C0BlPFuSSXzOKOMz9dacm+uKc9W285tgfqDz/VqiQ9AyVwWzBoCEOiBgKm6rhPzyaGmnBxPo5T3wO+wQ40dGv7khxHi+aMIkJAfReeI11DGj4DDSxDokwDKeJ/gEnKaUcbvzafkz+rWwEfLBWmpvXr61sClel7qLW4RTMhSYJoQgECfBPQX35PFhlLK1+VDVeRtdmILpbxPlntPMwk5/uR7qfB7twRIyLsltXscyniPwDgcAl0QQBnvAlKCD9mrjN9Vyvhf5/Py9dMdRZziOQleGEwdAhDom4BbKS+rquvnZsacW9j7bjTBJyLUJTj4HkydhLxHiPzB9QiMwyHQBQGU8S4gJfgQo4zfVcr4nx7tFM15oRTx9WZWOqqSLcVsE7w4mDoEINAXAbdSfnWmQ0LeF8mdkxDsBoDHqUJC3uUiMH9oT5ebcn++IbqaulZmfl4ZlpvzJamuFbtsicMgAAFDAGXckODnXgJGEW+12s7Teq/4nSctua2U8ZvzE85e8e1OyknG957H7xCAAAQg0BsBrZR/VK7JtcqWXK7kZAZ/8t4Auo5GuHMB4Z9dESAh7wqTiPkD++GZyF8XiqJ9xpc3c7Jcz0ltk72LXWLkMAi8RgBl/DUc/GOXgFHE1zaazjN6r/h/PRp37GRq6j13Q+0V18o4DwhAAAIQGIzAcG5bTg5vySVVdf03s6tyWSnlVF3vn6kR8Cj63D/DJJ5JQn5M1M0f1rxSxv9WVf8tZOVvS+PyZKUov6iEfLOVPqYFXoYABNwEUMbdRPi3JmCU8eXVLam+2JBn6k6kJfU++6A2Kje0jYy6E6lDJs5igQAEIOAZAWOH9raquv6ZskN7r9yg6roHdI2QpxPzemPb+UL5P348LQ/V9YwHBNwESMjdRFz/Nn9Q3y+m5OvqiPywVJSFtYKsbOWcW9b1bZM8IACB7gmk1NXfUcanl+S8+gBQGmrIKWW7UpkakUnlh1osZCSb4Yuu7onG50ijjNfUB5jNRsupoq79XB/URqiiHp8wMxMIQMAyAjop1wn5v59fkIv4k3sSHSPoGaX822pBSMg9QRvLRkjIDwmr+UMyyvidpzn57tkbzt7F9UZGGtskDIeg42kIHEhAf3VVVLfGlZTvqb7g/3b2Fzn7xpZz7PhwzknIx9RPHskjcJQyjr948tYDM4YABIIn4K66jj+5NzEwdmj4k3vDM66tkJAfElm3Mv4/L4rydG1IKeNZabVT0kYZP4QcT0NgPwGdjOtv4Mtjm/JrpYy/X96Sq2dyjjKuj84pRRxlfD+3pDyDMp6USDNPCEDAVgLuquv4k3sTKZOQ40/uDc+4tkJC7orsXmX8nvK7vbuAMu5CxD8h0BMBo4xPFpUyfmJHGb8y00YR74liPA9GGY9nXJkVBCAQXQJupRx/8sFiaQQ+s5dcF4W+MT+p9pKPUBR6MLSxOpuE3BVO84dzfyElN9We8f95MSwL6wVZRRl3keKfEDiewI4y3nGU8X+YrjnK+BWljFe0rQp7xY8HGPMjUMZjHmCmBwEIRI6AWynHn3ywEBqhz+wl17bJ2p1JFyvFNnkwtnE6m4R8N5rmD6aqqqlrZXxnz/iEPFktSr2ZcQq4xSnwzAUCfhPQt6ibC/uOMr4iKON+U49G+yjj0YgTo4QABJJLwCjl1yoNuVLJ4k8+4FIwgh9K+YAgY3o6CfluYM0fyt+UMn5jTivjRVlcH5LVRk62nT3jMV0BTAsCPhDQyXha/aerqe/sGVcXdJRxH0hHs0mU8WjGjVFDAALJIaD9yU/orWaqCOs/vbXzhTr+5P3H3wh/KOX9M4zzmYlPyM0fSLWm9osrn/E78zn56241da2Mt9pUU4/zHwBz856ATsaHs9syWWw4F/LfnEUZ955yNFtEGY9m3Bg1BCCQPALqUu4UYz0zXpePyktyTRVjvVTOy7TecpbHnrTfFWEEQKOU338+LH/Y9Sfv9Nso50WeQOITcvOHcU8p49efjMr3as/4s/W8rDWyoj3GO1RTj/wiZwLBEdDJeOalMl6T99QFHGU8OP6294QybnuEGB8EIACBVwR0Uj5aaMnM6KZcOrkhH1XW5OK0CEr5K0a9/maEQKOU31L+5F/8dFrtKR9xcg6S8l6JxuP4xCbk5g/CKOPfzefl1uKE4zO+1Uo7t6nHI8TMAgLBEDDK+AmljL+jbnFDGQ+GexR6QRmPQpQYIwQgAIH9BLLpjhTUXW9vl9blX2efydXpppRPDMvEWAGlfD+urp8xgqD2J//y0bhopfxFPS/1VqbrNjgwPgQSm5CbPwStjP+3VsbVH8KzjYKjjGuP8Q5fUcVnlTMT3wnsKOMd0UVg/l5VU39vhj3jvkOPUAco4xEKFkOFAAQgsIeAub5fKK3J5+cWnS/ch/JZKamEHKV8D6gefzXC4FytJXeeNOVbpZTfmC9JVRWT5pE8AolLyM0fQFX9AdxV1dT/+jQntxZ2lPHGNsp48v4EmPEgBMwes+FcSxV/Ucq48hn/5Owq1dQHgRqDc40i3mq1ndmYhPyZsntZ2sw5di/XqyXnjqQYTJcpQAACEIg9AVN1XSfmk0NNOTmeRin3IOr61vUf5lZUDas0/uQe8IxqE4lLyF8q40/T8tXunvHnes94Myso41Fdxow7LAK6krq+na2slfHTNfmVUsavqmrqZXzGwwqJFf2aBHxto+mMp7ndlvrWtjxa3lEA9F65JW7NsyJWDAICEIBANwSMjekFdev6h6rI2+zElqCUd0Pu6GNMQq6FQvzJj2YV51cTk5DvU8bVnvFv1Z5xfWtIYzvFnvE4r3Lm5jkBo4yPaFuU4S25eKIu/6iqqV+ebktlakTGhnOe90mD9hMwyviy+sa/+mJDjCKuHSv0LiD9fnudW/LsDyQjhAAEIHAIAbdSrr+APzcz5tzCfsgpPH0EASMUmqrrj50vriflofriWifo7Ck/Al6MXkpMQm4W/D2ljP/lyZizZ/z5Rl7W1QdFlPEYrWimEggBtzL+XlntGa+gjAcC3+JOjDJeUwn5ZqPlKOLXq5Pq1vQhZ9T6g0UNZdziCDI0CEAAAkcTcCvlV2c6JORHIzvyVSMYmqrri2prF0r5kchi+WLsE3Kz0PWtIHf0nnGtjC/sFE1oamWc4m2xXNhMyh8Cr5TxlkwN6z3jKOP+kI5Wq4cp4w9qo8Je8WjFktFCAAIQ6IaAVso/KtfkWmVLLqsv5GfwJ+8G26HHGOHQKOX4kx+KKpYvxD4hNwv8rlbGH48rn/GiPFcKzYbyGW+rZJx8PJbrmkn5REAr47mM2jM+ulNNXe8ZRxn3CXaEmj1MGWeveISCyFAhAAEI9EBgWG1ZO6m2rF3SNqezq3JZKeVUXe8BoOtQIyAapdz4k+tb1507eV3H8894EYhtQm4WtlHGb1fz8s2uMt5qp5xkPF6hZDYQ8I+AVsZ1Mj6cb6kL8E419Y/fVBdg9oz7Bz0CLaOMRyBIDBECEICADwSMHdrbqur6Z8oOTW9dw598cNBGSMSffHCWUWohtgm5WdBGGb+vlPEXymdc7xnXHuMo41Fapow1bAIZo4yrW9Su7VZTRxkPOyrh948yHn4MGAEEIACBsAjopFwn5P9+fkEuKqWcquuDR8IIiviTD84ySi3ELiE3CxllPErLkLHaSkBfbNOpjuhq6s6ecXXB/cczq/IuyritIQtkXCjjgWCmEwhAAALWE3BXXcef3JuQ6VvX8Sf3hmUUWoldQo4yHoVlxxijQiCjPMbzes+4VsZPLTs+47p4Cz7jUYmgP+NEGfeHK61CAAIQiBoBd9V1/Mm9iaBJyPEn94an7a3EJiE3yri5xeP2nmrq7Bm3fRkyPtsIGGV8dHfP+N+d2JCPz6yhjNsWqIDHgzIeMHC6gwAEIBARAm6lHH/ywQJnBEZTdR1/8sF42n52bBJys3B1EYQ/6Wrqz4dlaVNVU2fPuO1rkPFZSEAr44VsW/QF9n2ljF+dbjq2JijjFgYrwCGhjAcIm64gAAEIRIiAWynHn3yw4Bmh0VRdx598MJ62nx35hNws2JfKeLUgXz9VPuNrRcdjXBdw4wEBCHRHYK8yfmpkS/mMb8iHWhk/3ZHK1IiMDee6a4ijYkUAZTxW4WQyEIAABHwjYJTya6rq+pUzWfzJByRtBEejlGvB8Q8/nZaHtVGKVA/I1qbTI5+Qm4VqlPH7WhnXPuOtnWrqNsFmLBCwncA+ZVz5jF8u6z3jOSkWMpLNpG2fAuPzgQDKuA9QaRICEIBADAlopfxEsSkXT27IP8+uyJVyG3/yAeJshEejlN+eL8gfH52WB8qffBsb5wHI2nVqZBNys0CNMn5L+Yx//XTSUcbb2tYMZdyulcZorCaQUpXUM+o/Z8/4yI7POMq41SELZHAo44FgphMIQAACsSKQUrfbnVFb3j6qvJBr5S15t5yX6VJWinm+2O830EaA1HbOf1Zbc7Wd87P1grM1t982Oc8eApFNyM3C1Mr4l4/0wtxRxuso4/asLkYSGQLZdFuKytpM32r2q5O/yJUZtWccZTwy8fNroCjjfpGlXQhAAALxJqC/4J8e3ZRLyi714zfX5NK0oJQPEHIjRBpb52/n8nJ9XgmRq8UBWuVUWwhEJiE3C7G53XbY6eIG3z1pyi2zZ3x1SKniKUEYt2VpMY4oEEgrn3F9m/pYvimnRjbl707U5YPKulxiz3gUwufbGI0yPl9ryb25piyutp27jubUhf96tST6Jw8IQAACEIDAYQScLXCZtlworcnvZ5/JVfVFf/nEsEyMFVDKD4PWxfP61nX8ybsAFbFDIpOQG0V8ZaPpIH78S0Ep42+I3jNe28xJXVdTjxh8hguBsAnklMe4Vsb1rWVXTy7LFVVN/V3tMz7BnvGwYxNm/0YZvzefclwrHi0XpKW+C9WuFbpGh74TiQcEIAABCEDgMAKmSOzbKiH/7NyiXFRK+VA+KyWVkM+oxHysSJHYw9gd9bxJyPEnP4pS9F6zPiE3yrgpZmDK/uvqgjd394x32DAevZXHiEMlsFcZnx7dUsr4hvxDeV0uooyHGpewOjeKeEtn3erxTCnid5605Pa8rs2hFfEhiseEFRz6hQAEIBBhAqbqulbKJ4eacnI8jVI+QDyNQKnzonpjW/AnHwCmRadan5Cz8CxaLQwlNgT2KuO/2qOMz6CMxybGvUzEKOJru3cgaUX8v3Rtjr13IOlimb00yrEQgAAEIJB4Am5/8tmJLZTyAVbFYULlAy1Uzu/YPg/QPKeGRMDahJwFF9KKoNtYE0irSupZvWe80JLTymccZTzW4T52ckYZX1bftFdfbMgzVZtjSW0B0hf2G9VJmVsrqr3jpOHHguQACEAAAhA4koBbKS+rquvnZsacW9iPPJEXDyTgFiy1P/kXyp9cX7/1ZZsr94HYrH3S2oTcvdC4JcPaNcTAIkQgrwqsjOR3qqlfVdXUL5/e2TOOMh6hIHo4VKOM11RCvtloiVbGr6tEXPubslfcQ9A0BQEIQCDhBNxK+dWZDgn5AGvCLVxqf/L/fHRKHi6PSnM7JdoCmkd0CFiXkLsXmNkzzq0Y0VlUjNQ+AloZ17epjytlXNuQvD1Zl1+rPePvnOpIZWpExoYprmJf1Pwb0VHKOFXU/eNOyxCAAASSTkAr5R+Va3KtsiWXVRHZGfzJB1oSRsDU/uRf/TzmbDVbVP7k66oIK4/oELAuITcLi2IF0VlEjNR+AoVs20nGz4zX5d0Tv8i7p1tySfmMo4zbHzs/Rogy7gdV2oQABCAAgeMIDCtnl5PDW44/+W9mV+WyUsqpun4ctcNfN0Km8Se/VVX+5HrLGfakh0Oz8BVrEnKzoNzV1FHGLVw1DCkyBDK7yviEqmxaVt9Kv618xt87vSF/d0pQxiMTRe8GijLuHUtaggAEIACB3gloOzT92cTYob1XblB1vXeM+87Q+RP+5PuwROYJaxJylPHIrBkGGiECQ0oZf0Ml428qZfySUsYvnWrJxXIeZTxCMfRyqCjjXtKkLQhAAAIQ6IeATsp1Qv7v5xfwJ+8H4AHnmIQcf/ID4ETgqdATcpTxCKwShhg5Arp4SmmoIRPFpmh1/KyyGfnVaaWQn0QZj1wwPRgwyrgHEGkCAhCAAAQ8I+Cuuo4/+WBoETYH4xf22aEn5CygsJcA/ceRQHm0Lv8wU1PK+IZTzO3UeFouzuRlGp/xOIb72DmhjB+LiAMgAAEIQCBAAu6q6/iTDwYfgXMwfmGfHVpCzsIJO/T0H0cCRhk/X1qXD2aWHGW8mM/I5FiBPeNxDPgxc0IZPwYQL0MAAhCAQKgE3Eo5/uSDhQOhczB+YZ0dWkLOggkr5PQbZwJGGb+g9mbpW9a1Mq5tzXRCXixkJJtJx3n6zM1FAGXcBYR/QgACEICAVQTcSjn+5IOFB8FzMH5hnR14Qs5CCSvU9BtnAijjcY5u73NDGe+dGWdAAAIQgEB4BIxSfk1VXb9yJos/+YChcAuf958Py3/8eFoe1kYHbJnT/SAQeELuXiCPlwtyY35SLZARqW3mpd7CyN6PQNNmvAmgjMc7vr3ODmW8V2IcDwEIQAACYRLQwsIJVYj24skN+efZFblSbuNPPkBA3ALot9UCCfkAPP0+NbCE3L0wFlfaTgKOz7jfIab9OBNAGY9zdHufG8p478w4AwIQgAAE7CCQUn5oZ8bq8lHlhVwrb8m7yqZ1upQVXQuHLXf9xcjYod2ZTyOA9ocwkLMCS8hRxgOJJ50kjADKeMICfsx0UcaPAcTLEIAABCBgNYHRfEumRzfl0tSGfPzmmlyaFpTyASJmEnL8yQeAGMCpvifkKOMBRJEuEkcAZTxxIT9wwkYRb7XazuvPVttyd64pz9QdSB31zNxqUa5XS87PAxvgSQhAAAIQgIBFBDLpjhQybdHFaX8/+0yuzjSlfGJYJnRxWpTyniOFINozslBO8D0hZyGEElc6jTkBlPGYB7jL6RlFfG2j6Zzx+Je8fPloXB6p2hxtlZFvNDOyVKc2R5c4OQwCEIAABEImoO5al3SqI2+rhPyzc4tyUSnlQ/mslFRCPqMS87FiLuQRRqt7hNFoxMu3hJwFEI0FwCijRQBlPFrx8mu0RhlfXt2S6osNRxFf2sw51VNvzpekulaUbZWQd7RMzgMCEIAABCAQMQKm6rpWyieHmnJS2biilPcfRATS/tkFcaZvCTmBDyJ89JE0AijjSYv4wfM1ynhNJeSbjZajiF+vTsqDPW4VJOMHs+NZCEAAAhCwn4AWICaLDXXr+rp8WF6S2YktlPIBwoZQOgC8AE71PCEn4AFEjS4SRwBlPHEhP3DChynj2q2CveIHIuNJCEAAAhCIMAG3Ul5WVdfPzYw5t7BHeFqhDd0tmGp/8j/8OO18oR/aoOhYPE/I3YHGZ5xVBoHBCaCMD84wDi0cpYyzVzwOEWYOEIAABCCwl4BbKb860yEh3wuox9/dwqn2J9cJ+cPlUbXNjX1uPeL07HDPEnJ3gPEZ9yxGNJRgAijjCQ7+nqmjjO+Bwa8QgAAEIJA4Alop/6hck2uVLblcyckM/uQDrQEjoH6n/Mm/fPSGaKV8qZ6TeiszULuc3B8BzxJyE1jtd1dvbAvKeH8B4SwI7CWAMr6XRnJ/RxlPbuyZOQQgAAEIiAzntuXk8JbjT/6b2VW5rJRyqq73vzKMkDpXa8l3T5pya64gN3aLwvbfKmf2S2DghNwEVCfic8/XBWW831BwHgReEUAZf8Uiyb+hjCc5+swdAhCAAAQMAW2Hltljh/ZeuUHVdQNngJ86f/thbkXuKKX8xvykcmsZkdomdqkDIO3r1IETcpTxvrhzEgSOJIAyfiSexLyIMp6YUDNRCEAAAhA4hoBOyrU/+b+fX8Cf/BhW3b5sEvKqUsp1Iq6LxBr71G7b4LjBCfSdkKOMDw6fFiDgJoAy7iaSzH+jjCcz7swaAhCAAASOJuCuuo4/+dG8jnsVYfU4QsG83ndCTgCDCRC9JIsAyniy4n3YbFHGDyPD8xCAAAQgkGQC7qrr+JMPthoQWAfj59XZPSfkBM4r9LQDgVcEUMZfsUjybyjjSY4+c4cABCAAgW4JoJR3S6q749xC644/+Wm1p1zZoXXXBEcNQKDnhNwdMKqpD0CfUyGwSwBlnKWgCaCMsw4gAAEIQAACxxNAKT+eUS9HuAXXW8qf/IufTqs95SPKnzxFUt4LzD6O7TohdweKaup90OYUCLgIoIy7gCT0nyjjCQ0804YABCAAgYEIuJXysvInPzczJqWxwkDtJvVkI7zqqutfPhp3/Mlf1Km67vd66DohNwHCZ9zvkNB+kgigjCcp2ofPFWX8cDa8AgEIQAACEDiMgFspv6r8yUnID6N1/PNGgNX+5HeUP/m3Sil3/MlXi8efzBF9Ezg2ITeBwWe8b8acCIF9BFDG9yFJ5BNGGZ9XF757c01ZXG2rW8NE5tSF73q15PxMJBgmDQEIQAACEOiBwJmxunxcWZJrlYa8W87JtFLKi/mMZDPpHlrhUEPA2KHhT26I+Pvz2IQcZdzfANB6MgmgjCcz7u5ZG2X83nxK/vR4XB4tF6TVFtloZmSJW8TcuPg3BCAAAQhA4EACo/mWnB7dkktTG/KPb67JpemOzJwYlrFi7sDjefJoAiYhx5/8aE5evXpoQo4y7hVi2oHAKwIo469YJPE3o4i3dNatHs+UIn5HKeO31S1hXz+dcBTx7XZK2pQ0TeLyYM4QgAAEINAngUy6I/lMRy6U1uT3s8/kVzMNKauEfELtJUcp7x0qgmzvzAY549CEnEAMgpVzIXAwAZTxg7kk5VmjiK9tNJ0pP/olL//7p52iKUubqmiKUsb1Levk40lZEcwTAhCAAAS8IJBKiaRTOiFfl8/PLchFpZQP5bNOcTeU8t4JI8z2zmyQM/Yl5ARgEJycC4GDCaCMH8wlKc8aZXx5dUuqLzbk2UpbljZzyk5kVG7O673iQ9iKJGUxME8IQAACEPCNgLvq+snxNEr5ALTdAq32J//iR2WHtqz8yVEPBiD7+qn7EnI3eHzGXwfGvyDQDwGU8X6oxecco4zXVEK+2Wg5e8WvVycdf8+aUcbjM11mAgEIQAACEAiFgLvq+uzEFkr5AJFwC7Xan/yPj045gsK29icnKR+A7qtTXybkbuD4jL+CxG8Q6JcAyni/5OJx3lHKOFXU4xFjZmE/AfMBfSi7bf9gAxjhZisjy1u53S0y6gN1AH3SBQSCJuBWyvEnHywCRrDVVdf//HhM7r8YlucbBacI7WAtc7Ym8DIhN6DxGWdhQMA7Aijj3rGMYktHKeNUUY9iRBlzFAmYD+ZlZYvEQ+Tp2pB8szAhVWWv2NzWRSTV5lseEIgZAfNFnN5T/mF5SfAnHyzARrjVVde/U/7kt6p5uT4/6byPDNYyZ2sCqYc//tSpb20LPuMsCAh4RwBl3DuWUWwJZTyKUWPMcSPg/kBubl3NJdyX+OeVvKNw/e15URbXC7LeyMYt9MwHAi8J6C/kPirXlD/5llyu5GQGf/KXbPr5xdih4U/eD73Dz0nd+duDztzzdSchrze2hT3jh8PiFQh0SwBlvFtS8TwOZTyecWVW0SJglHFtgzQ51BRT3Gk04b7E2m7xXrUp387l5au5ScduMVqRZbQQ6J7AcG5bTg7v+JP/ZnZVLs/gT949vf1HmoQcf/L9bAZ5JvVf1+86CTl7xgfByLkQ2CGAMp7slYAynuz4M/twCegbr7X1kX4fnhhqOPZH+lZVo4yXlB8x9kciurjkj/Or8t18SkxxSbbQhLt26d0/Avo9IaPs0N4crzu3rr9fbsjFck6mJ3L4k/eBnS3OfUDr4pTU//v/X++gjHdBikMg0AUBlPEuIMX4EJTxGAeXqVlPIK0/eKc7UhnblF9P1+TcxOvK+IRKyIv5jGQTfsu6Sci1wmXsFykyaf3yZoADENBJ+Xihqd4b6sqfvC4fVNblndPCF3R9MDV7ydnq3Ae8I05J/d//31cdbbtj/HCra8UjDuclCEDgIAIo4wdRSc5zKOPJiTUztY+A2Suub03NpsVRxH9zdkXefKPhDHZ0WO0bPTEsYwm/Vd1Eji8ODQl+JolALtMW/R6hi7z985vP5cp0E3/yARaAWyn/XvuT/6T8yWs7/uS4N/QGN/V//T/fdG6oKnkPayPi+OEqOwweEIBAbwRQxnvjFbej+YAbt4gynygRMHvF9U+thJ0aS8u7qnjTSfVTP7IqS0cZfxVRvkB8xYLfkkMgrW5b13fQ6IT8s7cW5Z2pDfzJBwi/Wym/PV/4P+x92XYbV7JlgMTA2ZxJABKpyZKowXaVJdkuVbna1+Xn/p37Af3SH3Gf+rFf+rXLQ9UtX7tsDS5ZFiXK1kSKADiIgyiOAIcbcaCwyRQHZCIB5ElsrOUFgcjhnB3pgxOxI2LT31mf/Mli22v1hjIuXoenRv79P+7ufP50gB3ytjqcPqYMBMpDAMx4efjZfjY2trZbEOO3GQFlxlXWCLXi7qyJQKI7vHB0OBDQAJ6z2SNKWrzZV5ny+1MN9P1z1idnptyoNxRA8LpBFA65G7RwLBBwIABm3AFInX3EhrbODI7pBgoBbKzLMwcCiuXhh7PtRACBPH/tpky59KQYzbzWJ89CvcEtykhZd4sYjgcCjACY8fp+DLCRrW/7Y/a1RQAban/xdwYWheH665MBevS6FtTfu+FqQCAYCDgDeinWJz+ZbCdRY8DLPQIqhwZ9cvfYyRlo6uYNN5xV5wiAGa/vB8C5gR1fTEA+qL4fCcy+igg4N9KqL46UU29GcAYY72bjJKWM0pxpizsz7aA7kzdgcVagEXAG9i6xPjkccu8mU4cc+uTeMPxV9uyXuWZHMT53RsELCACBPQiAGd8DR9180A3r5ua2mfPsq226z6lZs0vbJHvVzKtmdsi7zHvdgIKJAoEqI+DcQKNm3F8DaKDxPuuTfzPeQWOzLfRiLU6rqAX1F2hcLVAIHONmkB+k5+m9dJ5GRJ+cmXI0gXRvIq0lF8ccctru8Yt8ffP+TubFCj2YjtGNXI+JiC5tRGljs9id1P0lcQYQCC8CYMbDa9vDZqYb1eXVgjls4mWcvh1vJ2HGt3YiZsM6zxvXNahUHAYjvgMCZSEAZrws+I48WQOPOa4FlYDjnUyCbiDQeCRuOMBuBNrimzTQtkHnuev6h8eX6fzgDmQSPZjUrB8bWwR9cg/g8SmR0bHHxiH/ZYbo7nQLiY7cxMsWWlyPmTQlZCp5AxZnhQsBMOPhsmeps9EN6iJHfLNzq4YRn+e1UVQpfpjqNIy4OORI6SwVURwHBNwjAGbcPWblnLHA693T3Cu6x0z5TW7O9JhlcRFwLAdRnBtkBEQKLd4ocmjL9MnwLF1O5qFPXobBwJR7Ay/y5OmznTWOaOQWC/Qwm6e7uTjdYqZ8cqmZNrcjtA2P3BuyOCtUCIAZD5U5S56MMuOyQV3PbxpGXDeoC+tFRhzOeMlw4kAg4AkBMOOeYPN8kjrkUgsqAUipJUdJjmc4cWLAEYhwha5olIt84mcnp+kc9MnLshiYcm/wRSYmJozLrREN0ZH7bqKDHnJN+exKglZQO+QNWZwVCgTAjIfCjK4ncRAzjo2payhxAhDwjACYcc/QlXXiYYFIMOVlQYuTA4wAAn/+Gkf9Sq0pF/UGaRYpGYZ4vYnArw65RjRUR+5OJk43c92U5WZFeAGBekUAzHh9Wh4b0vq0O2YdLASwQa6NPRCQrA3uuGttEUAA0F/81a/UmvI72QQc8kMg/tUh12MEuEeZJYKOnCKC93pEAMx4PVqdCBvR+rQ7Zh0cBETfpTm2RV1NeZNCejU1T+imXhv7IDBZG9xx19oi4AwEQp+8PHvArywNvwMdcujIlQYgjgonAmDGw2nXo2aFDehRCOF7IFA5BMQZj3AtZ7p9nd5PLpgmS91NBYLOeOUwP+zKCFAehg6+CysCTqYc+uTlWVodcviVh+P4hkPuzPmfYFmfW5y6/oS7bGoTo8MviW+BgL0INFKBYjsrdKpzmf58apne7isYPcru9gSle1upvSVm7+Qw8gMRwMbzQGjwBRCoOAJFR5yoJbZJ4oCf5aZKfzyxRMNv5c2923jdTfa0UHsz1t+KG2OfGzgDlWNcC/r/Hw+YZm/7HI4/AYFQICBM+bXUAuuTb9CFNK9B0Cf3ZFf4laXB9oZD7sz5n1naNo64NDO6neui7DJqykuDFkfZiEDTziK9tfWMTnG3zaunm2jkWLNxxMUhb040UrSxwcZpYcxHIODccIq+uHZTRxOjI8DD10CgTAQa2COPseyQbIB/N7BAl1N5usgb4L724nobjTaYwCjW3zKB9ni6M2B5JxuHQ+4RS5xmDwItXDrT25yn832rdH14iS4koU/uxXrwK0tD7Q2HXE9zRjREn/yr8X7THQ+6u4oS3sOGgNMhvzzcSmfSHSQOOV7hQ8C50ZzlACRkfsJnZ8womAhoamgrb3yj7JBLrfhHx1/RCDa+gTSYyqFBnzyQ5sGgfEZA5NAa+b9jwpSn5+hdDhSeS8VosDOGAKEHrJ1+JTKw94J4oEPujGjcm4rTP573God8Y7PRaJTvvRQ+AQH7EXCmrP9+iOCQ22/WA2cAZvxAaPAFEKg4Ato8Sd6FJRdGfASpoRXH3esN1CGHPrlXBHGebQiIU96RKJi+FqJPfiW9QmcHCCU0Hgzp9CuRgb0XxAMdcj1MIxpj0xG6kWklYcqnOG19eSNKRsBcD8Q7EAgRAtLU7Qo3FXqXa4cuHYtRWmqHkLIeGguDGQ+NKTERCxFQZvy0lAahi7o1FkQA0xpTYaA+IhBr3Ob+FltG9eFPx1/QxcECpbinRaeUMsZRyugWavUrpdnbWn6LoE9eRPBIh1wjGtmFAj3IFuhHrh2S2soM65Pv7ETglLt9EnG8FQgUN4wFkojo9eGXdCm5jaZuVliutEFiY1kaTjgKCFQCAWXGT3ctmyZu6KJeCZT9vyYCmf5jiisGH4EGVn5obNgxDvlfTsyYppNN8Sh1sUOOZpPu7ad+pTjkmRcrBH3yIoZHOuQKtUY0RJ/8m/EOE9GYW4vTGqev4wUEwohAhHOVzMYxybVD6Txd4Noh0aMEU26vtbGhtNd2GLn9CIAZt9+GMgMENMNhR8zCHQIIJLrD66ijVQ5N/EqoebHk58TEREmZ5xrRyCxs0uhkwUQ0bknXdWbK8QICYUWgLb5FA23rhim/dmyZRgbAlNtsa2wkbbYexm47AtjQ2m7B4vgR2AyHHTELdwggoOgOr6OOVocc+uRFpEp2yBVYBRARDUUE72FGQNKU4tz9V1IrPz4+Q5eTecigWWhw3UDmOKD4IFOgmVfbXHJDpvTmZrbLvFs4LQwZCFiBADayVpjJ9SCdAU7pMfTFs356NN9GUONxDSdOsAQBZ2BRMidPJttNCrslUwjEMDXzWvxKqSWv967rnh1yRDQC8TxjEBVGQDpsSv3Qqc4V+vTEtKkdkiYeIoOW7m2l9pZYhUeAy/uBgG4cH+Qi9O1EB4nO+OY20WqhkaAz7gfCuAYQOBgB5wYWNeMHY2XTNxroXOQNdXZulUanYvSPiT56tNBKa7y2bm7zDyheQCBkCDgDjJdYphEOuXsja+a1OORSS17vXdddO+TOiMajuWb6+0RRn7ywFTFRUfdmwRlAINgISNf197nrujDlXU156u9oAFMebJPtGZ0w47efrtPt5zH6YarTMOJbvFncLqlgZ8+l8AEIAIESEXBuXEVnHM2QSgTPosM04PlwmujWZBuNMVOee9VES3lW48Eaa5ElMVQ3CIg++QfpeXqPewyNiD659BhC13U3EJpjnX5lvTLlrh1yZ0RjbCZGN3Pd9HihjV6ux2h9s8G1MXACEAg6ArKxFEf8FMv0XEnO0xBvLMGUB91qv41PSmz+7w+NdGsiRvPr3IyS2RvZKGKv+BtG+BcQ8BsBMON+IxrM6ylTPrW4SWPZPKvxJOhmppsmucfQlqyzWGiDaTiMqiwE2uKb3GNog86zGs+Hx5fp/OAOuq57QNTpV9YrU+7aIVesNaLxaJbop+lmo0/+bLGVFtkpx0ZXUcJ72BBwMuVSO3Qm3WFS2MM21zDNZ7dDLuoQkqqOFxAAApVBAMx4ZXAN+lWVKb/PpUGixjM220IvsN4G3WwYn0cEdvcY+mR41vQYgj65RzD5NPUrtaZc9Mm/eDpAT5jwrYeYnmeHXCMaU4sFepjL013RJ8/10ORSs6kbQiqo94cSZwYXASdTfpH1yeGQB9deOjJNWb/JDDmauCkqeAcClUEAzHhlcA36VZUpl/X2PjfPvJNJ0A00zQy62TA+jwhoj6HTnDn52clpo8aDkhyPYPJp6ldqTblk2nz5bIAzsFuZ6I2E3in37JAr5BrRuD/VQN9xs6SHXFM+u5KgFTBQChHeQ4hAimuHrnLq+rupPF06Bn3yoJt4gZuGPM29onvM3NzMSolNK5q5Bd1oGJ9VCMjmVAOWskG9mpon1IxbZULfBov11jcocSELEEAA0l8jqV8pmY2SaSNMuWQ2rm2GO7OxbIdcIxrSdX3URESFKe+GPrm/zyeuFjAEWmJb1NuyQed6VumjoVckTDm6rgfMSLuGoxtEWafmuaxGel6AKd8FEP4JBMpAoMgUEcnG9P3BBe61sUzdTQVCN/UyQLX4VKy3FhsPQ3eNAEp0XEN26AnqV2bEr5zkTBtmym/lukLvV5btkCuqkmLwKLNE0CdXRPAeZgRkA9rIcmjHOla5yduCYcrPc5fNZGeMmhONFG1Ec8Mg2V9rG2WjuJ7fNLJnYMqDZCGMxUYERNRK1kIJUHY3501zo+vDSzT0Vt5Mp41lIZM9LdTeDHlIG+3rdcxYb70ih/NsRsDJlEOfvDxr1ptf6btDDn3y8h5AnG0PArIRfStRoHTHOp1lpvz3qRU6278DpjyAJtTaRtXLnV3aBlMeQDthSHYh0CCByQZe89rXDTP+TmqDLqRj1NdeDEhGow2QAbLLpL6MFuutLzDiIpYh4GTKoU9engHVIa8Xv9I3h1xz/gXAtfwW1auOXHmPH862DYF44za1xreMHNof0rN0YYAd9N5W03UdTHnwrAnmJng2wYjsQ0A3nsKMs89tasX/MLREI0nI/thnzcqN2LneSi3o59w1+fF8K23XQZOmyiGLKwcZAWHKr6UWWJ+8GKBMQp/ck7nqza/0zSHXnH9xyDMvVqhedeQ8PXU4yVoEGjhtPcoMkeiTfzI8TW/3rEGfPMDWBHMTYONgaNYgoKmZ8i6ZQv3MiI8wM46NpzUmrMpAnevtT7kYffWs3zTVLGw1sEY5Pzx4AYGQIWB6DEkJT98qSQnPBQQqPVm43vxK3xxyRdsZ0fj5RTP9bbzYtl4WX2ldjxcQCBsC0Ce3y6JO5mZ8MYHu63aZEKOtAQLKjKOLeg3At/iWut4+mIqwGk8bjTFTPi1qPPmoxbPC0IHA/ggUewwRHROmPC1qPNwAmHsMDUqPoTh6DO2P2sF/dfqVkmnzpWTaLLI+eYgEyn13yJ0RjXtTMfqv5330ZLGV1lgKbXMbza4Ofuzwja0IyEa1qylvmPIrLIcGffJgW9LJ3KCmPNj2wuiCgYAy46fRRT0YBrFkFLreTok+eVb0yeP0faabMq+aLZkBhgkE3CEgTnlHYtMoT5zr5ea/ae4xNEBocukORnO0068UffKvWJ/8CTvkW+yQh8Up990hV6w1ojE2HaFbmVb6mSMaueUmerURC724u2KA9/pDQJhy03Wda4dEnzwttUPouh7YB0GZG3RfD6yJMLAAIABmPABGCMEQVA7tXi6CjKQQ2BNTOByBWOOOUaCQAOafjr+gi4MFSrHqRGd7Akz54dDt+636laLm9e1Eh/ErX7A++SqTvWF4Vcwh14hGdrFAD1if/Mcs65NnixFRSVsPUZZBGJ4DzMEnBIob1wJJRPT68Eu6BH1yn5CtzGWUuUH39crgi6uGAwEw4+GwY61noQ65dE2eX49xLXkb7wu7wJTX2jC4f0UQUBUKccj/cmKGzvK+sCkepS52yCEH6R5y9SvDqk9eMYdcod4d0fhmvIMk93+OIxprm+GIaOg88Q4EFIEI5yqZDWxyjt5N5+kC1w6JHiWYckUoeO9gyoNnE4yo9giAGa+9DcI0AqyzYbIm5lIqAgholopUacepHJow5bdy3fRkoZUW1u33KyvukIc9olHa44Oj6g2BNpZCG2hbN0z5tWPLNDKwDX3yAD8EYMoDbBwMrWYIYCNZM+hDeWOss6E0KyZ1BAIIbB4BkMuv1SEPmz55xR1yxVkBDFtEQ+eHdyCwG4FGlkKLc/2QpCp9fHyGLifz0CffDVBA/w0GJ6CGwbCqigA2kFWFu+5u5lxnpcfQF0YOjZs0bUdYo7zuIMGE6wABZ4BTMidPJttNCnsdTN+3KWrmtfiVa/ktmmCVnDAw5VV3yMMW0fDtCcOFQoWAdNgUjfJTnSv06YlpUzskchfdXDuU7m2l9pZYqOYblsmAwQmLJTGPchBwbhz7OhrQjKgcQHHuHgSc6+woq/F8/bzX1JRLg6bCFuRx9wCGD6FAwBnovMT65HDI3ZvWrB8bWyQOeebFCs0sbZuUdelJcTvXRdllO9UbquaQhzWi4f5Rwhn1hIBTn7yfN7bikItjjpry4D4JTgZHel/89ckAPeIFPywSG8FFHyOrFQLODeNw5waaENXKGHVwX11nf54mo8Yj66xIoS1tRLHO1oH963WKEvD8gPXJ33vdY2hQegxBn9z14+D0K4uZNiyH9nqfZluiTdUc8rBGNFw/QTihrhCQDe5uffIh3uCCKQ/+I+BkcO6ySsQXT/uNQ74lKhG2rfTBhxwjDAACYMYDYIQ6GoKus1OsxvOQ9clFX/gG65NPslMeJn3hOjIpploCAq3xTRpo3aDz3HX9wyHuMTS4g67rJeDmPMTpV97NJehv4wOcadNqZelL1RzJHUS2AAAjiUlEQVRyBXK/iMaXLPAuqQayycU+V5HCe5gQcDLlUjt0Jt1hmPIwzTNsc1EG5z7r5n473k5jzOC8WE3QSkh0L8NmL8zHPQJSXqOBw9NdK3Q1NU9gxt3jiDO8I7B7nRU1nrFZXmdDpC/sHRmcGUYEGrmcMda4zT2GVujfWA7tchL65OXYWf3K+1MN9E/WJ38410yzKwnr9Mmr7pDvF9H4+3g/PVlsM3VDaOZRzmOJc4OKgG54T/ECfCU5TxdZnxwOeVCt9du4lMHJsW7u/cxrBifbbdIqd0CT/wYU/mUlAsVeF2RkGt8fXKBT3ISyu6lAqBm30pzWDtq5zt7JMFMOfXJr7YmBH46AdEiQHkOnu1fos5PTRo0H+uSHY3bYt+pXSo+yUd6n3cnE6SbLoWU508amV9UdcgVnd0Tj++ftRp98hiMaYJ4UIbyHEYEU1w5dZYdcaocupqFPbouNlcEZzTbQ18zgPGQGZ24tRmubjbZMAeMEAr8iIBvCCG8IW2Jb1NNcMBvC68NLNPRW3hzTxk0nkz0t1N6M5pO/goZ/VByBBW7S9DT3iu5xRtJNDnxK6uk8M+VYZysOPW5QAwRQIuQv6LaredXMIXdGNH7kGk1ZgKWhB15AIKwItPIGuI9rh871rHHt0BJdGIQ+uQ223s3gjE5u0h2zXnVhvbLBeBjjGwgIOxNjWUYJEP5+YJHeSeXpAgcI+9obzLHRaAOaDL2BGv5QaQTUIRema349ZkoZb4IprzTsuH6NEEATTX+BV4fcVjWvmjnkagYFEPrkigjew4xAA1NTUdYoP9axRu8PztNl3giPpJiN6oyh67oFhtcNIxgcC4yFIb6BgG4AJTAYZYdcasU/GnqFpkJvIIU/1AIBzUSSdXY9v0njrC8MprwWlsA9q4mAkymHPrk39DXzWvxKG/XJA+OQ2xrR8PbY4Kx6RaCYKkrUkShQumOdzvas0u9SK3Sufwf65BY8FOqQg8GxwFgY4hsI6MZP3qV+XGQYTUAQsjtvYIU/VB8BzURa5A11dm6VZllfGEx59e2AO1YXAQ2UalNN6JN7w18zr8Uht1GfvOYOue0RDW+PDc6qdwQkXbQ1vsVdNpfpo/QsXRxgBx365IF/LMDgBN5EGOA+CDg3fOiivg9I+FNgEHCus6JP/vnTopzRNmQnA2MnDMRfBCRQei21wD2GNkwJURKBUk8A2+pX1twhtz2i4elpwUl1j4Ckrjdy6ro45J8MT9PbXFMOffLgPxZgcIJvI4zwTQSUGZf1Bl3U38QHfwkWAs519qdcnPWF+0xNeX4rYjSGgzVijAYIlI+ANNnsbc7T+b5VkiabF5LQJ/eCqq1+Zc0dcgXbGdH4hXXkvmJ9cpFD29qOEOTQFCm8hwkB6JPbaU0ng4NaRzvtGPZRgxkPu4XDPT9dZ8emIvTd8zYaY6Z8ermJlvNQtwi35etzdlJG1Mj/HROmPD1P76a4ATD3GBqUHkPxRu77UWy6WZ/ouJ+106+UTJsvJdOG/cogqtYGxiF3RjRGp+L0zWSvAW6t0Gg0yt2bA2cAgWAjIBvmrqY86/9CnzzYlto7OieDg1rHvfjgUzAQADMeDDtgFN4Q0HV2iruuP8gW9YVvZHtoktV4doK4o/Y2TZwFBH5FQJzyjsQmydp9rneVrqRX6OwAQYbyV4RK/4fTr/wxm+BMGyl9YaJ3hwLnlAfGIVeINaLxcDpCt7OtRp9cxN1f5aOBA0/HjHcgUC4CwpRfSS7Qu1w7dOlYjNJSO5RARLRcXCt9vjI46ApcaaRxfTcIgBl3gxaODToCus6OZhvo6/EOejjbQnNrMeiTB91wGJ8nBKTHkKSvS4nRn46/oIuDBUr1tFBnewJMuQdE1a8UNa9/TvD6MddCL1bjtMpkb5BegXPINaKRWyzQg0yBRJ/8Vq4YEZW0dQRFg/T4YCx+IVDcQBdMRPT68Eu6lIQ+uV/YVvI6yuCgK3AlUca13SIAZtwtYjg+yAjoOptjpnx0cpPu8L4Q+uRBthjGVg4Cu3sM/eXEDJ1lprwpHqUudsiT7Ji3N8fKuXzdnat+pajj3JsUv5LlFHNdJGRvkF6Bc8gVnN0RjW8losG5/3NrwYto6HjxDgTKRSDCuUpmI52cY6Y8Txe4dkj0KMGUl4ts5c9XBgdMeeWxxh0ORgDM+MHY4Bv7EVDZyXu5CPTJ7TcnZnAEAgisHgGQy69FDu1RZomEKb+V66YnC620sB4PTKZNYB1yjWhkTESUa4c4onErgBENl88DDgcChyLQxlJoA23rhim/dmyZRgbAlB8KWEC+VAYHTHlADFKnw8AGrk4NXyfTVodcmC7ok9eJ0et4mgiw+mt8dchl/RBHXGrJb4tfuRwMpjywDrmaQQEMakRDx4l3IOAHAiKFFuf6Iakd+vj4DF1O5qFP7gewVboGmPIqAY3b7EEAG7c9cOBDSBFwrq8/c+bkF8/6eWPd+lqNhzti4QUEQoaAM9AqmZMnk+0mhT1kU63odDTzWvzKtfwWTSwK0RscptwahzyoEY2KPj24eN0hIB02GyI7dKpzhT49MW1qh6BPbs9jAKbcHluFaaTODVtfRwOaAIXJwJiLQcC5vo5Oxejr56zGww65NGgqbEEWCo9K+BBwBlwvsT45HHL3dtbMa3HIMy9WaGZpO1BMeeAd8qBHNNw/EjgDCByNgFOfvJ832OneVuqWLpvovn40gDU+wsnkQKe8xgYJ4e0leCcbNZFNPM2yiVdT8zTcuYHmPyG0Naa0FwFdX3+eJrqVETWeZspwg6aljRga/+6FCp9ChIAEXj9IL9B7rE8+ko5RUnoMQZ/ctYWdfmUx02aAa8qL+uTcP7wmr8A75EGPaNTEarhp6BHQjbbqkw/xRhtMuT1mdzI50Cm3x3Y2jLSYSUOmCeT7gwt0iktcupsKBGbcButhjOUioOvrFKvxPGR9clHjuZntpudLzawvHIFTXi7AOD+QCLRKj6HWDdNj6KPjr2iEmXJ0XXdvKqdfeTdX1CeXJm+b2xESRa9avALvkCso+0U0vnzGEY3FVgYPC7DihPdwIeBkyqV26Ey6wzDl4ZppOGejTI52Xxe1iL8+GaBHryOx4Zw1ZlUpBKRCNsIlLaJR29OsMolLNPRW3tyyrYVZE8jiVAp+XDdgCOj6ep+7rn873k5jvL7OriYCpy8cMNgwHEsREDk00SiXHkOfshya9BiCPrl3Y6pfeX+qgb4z+uTNNLuSoJUa6ZNb45A7Ixo/5eL0nxP97JC3UX4rYhp6eDcLzgQCwUTAyZRfZH1yOOTBtNV+o1ImR7uv32Um54un/cYhB5OzH2L422EISH8J2ZClOHXx9wOL9E6K5RE5dbGvvVg7G402IIXxMADxXagQ0PVV9MnvZ1iNJ5OgG9kuk74eqoliMkCAESgGZInOsEP+2alpw5RDn9z7o6F+pfQoGzXrB2facJO3WumTW+OQK+Qa0XjAEY3vJ9uMPvm0RDTyUT0E70AgdAjIBvxqcp7eY33yi7wBhz65XSYGk2OXvYI2Wm3q08rMeJQdcqkV/2iIUxYHkbIYNFthPNVHQOXQoE9efexxx+ojgCae/mIeFDUv6xzy3RENExF9XTskDT3wAgJhRUA24n1SO9SzRh8OLdGFQeiT22RrMDk2WSt4Y9UNmLxL/bg0eRxJoalP8CyFEdUCAXXIoU9eC/Rxz2ojoAFaNPP0B3l1yGut5mWdQ67wK4DQJ1dE8B5mBKR2KMoa5cc61uj9wXm6zKmqZkPeGUPXdYsMrxtHMDkWGa2GQ8XGq4bg49bWIKAZSNqrA6oW1pgOAy0DAQ3USk25NPWEPrk3MDXzWvzKWuqTW++Q1zqi4c38OAsIuENAa4c6EgVKd6zT2Z5V+l1qhc717xg5tHZu5oRX8BFQhxxMTvBtFYQROjdc6KIeBKtgDEFDQDOQtFcHVC2CZiGMpxIIOAO20Cf3hrJmXotDXkt9cmsd8qBENLyZH2cBAW8ISEMnkb6QiOhH6Vm6OMAOOvTJvYFZg7PA5NQAdAtv6dxoQV/cQiNiyFVHwLm+iqqFNtGEGk/VzYEbVgkBDdy+l94wPYagT+4NeKdfKfrk1VTzstYhD0pEw5vZcRYQ8IaApK43cuq6OOSfDE/T21xTDn1yb1jW4iwwObVA3b576gZLUxHBjNtnQ4y4+gg419d7uRj9bbyPHrPM5MZWA9R4qm8S3LEKCBRlMPOm6/ofTyzRReiTe0Ld6VdWW83LWodc0XZGNH6Za+YFeMAswFs1FHjX8eEdCFQCAeiTVwLV6l3TyeSg5rF62Af5TmDGg2wdjM0WBHR9HZsi+v55UY1narmJllmNZ8eWSWCcQKBEBIoljcUeQx+kFuhdZsrPp+I02BmFDGaJGO4+TP3Kaqt5We+QOyMao9Mx+memGBFdyTdSgTXK8QICYUNANu5dTXk61bVCV1gODfrkdlnYyeSg5tEu+1VqtGDGK4UsrltPCOj6OsX6wg+yefoxW9Qnn1xqpp2dCJzyenoY6mSu4um0JzYp1b5O53tX6cqxZTo3QJTsaaH2ZvQYcvMYqF8pvX6qqeZlvUOuIGtE4+FMhP6VbaWf51pIFt+lDY6IIiSqMOE9ZAiIPvmV5AK9l+LaoWMxSndxRDTRyFrFDSGbaTino0wOugOH076lzgrMeKlI4TggUDoCur6O5iL0X886SGrK59bitFpoLP0iOBIIWIKAKPE0s0TuGSZqPh7iHkOD3HmdHfLO9gSYcg82rLaaV2gcco1o5BYLHBEt0F2jT95Dok++xQ45nHIPTyNOCTwCspHvaS6Y2qHrwy8NUy5N3tB1PfCmMwNUJgfdge2wV6VGCWa8UsjiuvWMgK6vOWa6RjMFupNJ0M1sl9kX1jMumHs4EYhIj6HIDp3pXqa/nJihs8yUN8Wj1MUOOZhy9zZXh7xaal6hccgVamXKRZ/824kOki55LxARVXjwHjIEirVDRGlOU7qSnOPaoTxdSMWMHiWYcnuMrUwOmHJ7bObHSMGM+4EirgEEDkdA5SbvMVN+M9vNPYZaaZ73hWubYMoPRw7f2ogAArz+WE39yWrpk4fOIVemPCMR0UmOiHLt0K1cF2WZKccLCIQRAXHKRQptoG3dMOXXuHZoZGAb+uQWGVuZHDDlFhnNh6Fi4+QDiLgEEDgCAXXIhemaX4+Zpr9gyo8ADV9biwACvf6YTv3JaumTh84hVzNoqoEw5bdy3fSEI6IL64iIKj54DxcCIoUWZ41ykUn6+PgMXU7moU9uoYnBlFtoNJdDlrRC2TBJU8bTXOt3NTVP0Bl3CSIOBwIuEMC66gIsHBoaBJwB3xT3GDqZbDcp7KGZZBUm4mTKJfP6q2f99HixjbalSaRPfcpC75BXK/e/Cs8EbgEEDkRANvkNXDt0qnOFPj0xbWqHoE9+IFyB/QJMeWBN48vAiv+fSonJGr0/uMAqCcvU3VQg6Iz7Ai8uAgT2RQDr6r6w4I8hR8DJlF9ifXI45O6N7mTKRZ/86+dFNa+NrQYSiW0/XqF1yJ0RjYlFSV0HU+7HQ4NrBBcBpz55f0cDmPLgmuvAkYHRORAaK7+Qn2txxlu4A25Pc/51E8YlGnorb+bT1hJD0x0rLYtB24SAc12VruufPxmgRwtthuXyieiyCRKMtQ4QkADwB+miGs9Imn9rRI0nDjUet6ZXv/LBFPeiyLQZ1Yap5SZazkfdXmrf40PrkDsjGjNL2yZl/TEvvLelpnwZNeX7PhH4o9UIaCqs6pMPdW6Yhbebu2yi+7o9pgWjY4+tShlpAzvjMS4pkY3R7wYW6J0UN1/kjVFfe1GeMBptwAapFCBxDBAoAwHnuipM15eSesr7wsJWhNNPy7g4TgUCAUXA9Bhq3TCB4I+Ov6IRZsrRdd29sdSvzC4UjD75j9yj7AY3iRQ1Lz9eoXXIFRyNaGiXPMn9lwX4ic+5/3o/vAOBICDgZMqlduhMuoPEMcfLHgScjM44Z/qgS7A99tOUwVZmxqPskEutODZE9tgPIw0nArquPuCu6/983m6YrumVBK3k0XU9nBav71lpQFh6DH3KcmjSYwj65N6fiUr1KAu9Q64RDe2SJxHRf7zO/c/7mPvv3bQ4Ewj4j4CTKb+Y3IZD7j/MFb+ik9GZ5UwfdAmuOOy+3UCb6si7bIqEEUfKoG/w4kJAwBMCuq6KPvkD0Sdnpuv7DPTJPYGJkwKPgJZMnWGH/LNT04Yphz65d7OpQ+53j7LQO+QKuTLlD6YjdGOymPs/7WPuv94H70AgSAik2BG4mpyn91if/CKnyApTDn3yIFmotLEoo6M65VL7+NddtY+lXQVHVQsBZcbRRb1aiOM+QMA9AiqHBn1y99jhDPsQ0ACxMOVoJurdfupPaua1Xz3K6sYhV6bc5P5nOSKaKaZ++pX77920OBMIVA4BSZXtk9qhnjX6cGiJLgxCn7xyaFfuysroqE753Wycvnjab5oRbfkou1G5GdTXlbHxqS97Y7Z2IqAOOfTJ7bQfRu0OAQSK3eF10NHqT2rmtV89yurGIVdgNdUA+uSKCN7DjICkyUZZo/xYh8gszZtmUudT3GWzMwam3ELDK1N+n2sfvx1vpzFmymdXE7RaQO1jEMyJDU8QrODfGHTjVdja3nPRWCM34UugS/EeUCz8oOupZh6hR4eFRsSQXSPgDBhDn9w1hOYEJ1P+y1wz65MPmB5lIoXmtklk3Trkfuf+ezMnzgIClUVAa4c6EgVKd6zT2Z5V+n1qhc72c8fn3lZqZ7klvOxBQJlyqX28L7WPnOlzI4vax6BY0LnRgb54UCzjbRy64VpaLey5QAevm1g/90Bi5QddTzXzCD06rDQjBu0SAWfgGPrkLgF8fbgGbJUpH52K0zeZXqPasMYkiSg3uHnVnUOuP7B+5/67AR3HAoFqIxBv3CaRvhA5tD+kZ+nCADvo7JBL13UwPdW2Rvn301RL1D6Wj6UfV3BucKSbOprm+IFsda+hGyxlxCUV8d5kgeRdXmLnrqY89Xc0YP2srmkqejcnUy5qPJ9zSZDIoaEkqKLQ4+I1READyO+lN0yPIeiTezOG+pUPuUfZ7WwrPZxroexSM73aiJIbJcW6c8j1B1cjGn7l/nszI84CAtVBoCGyY1LXxSH/ZHia3uaa8uZ4o3HIwfRUxwZ+3kUdctQ++omq92vpxgbNcrxjGIQzdWOljPjEywR9M/4WSSqzvJJta3SFm2QOccAF62cQLObPGJxM+b2pGP3neB/36Giljc1G2uT0U7yAQNgQaOEeQz3NedN1/Y8nlugi9Mk9mVj9ytxiwag2/Mg9fm5me2iS9cl32CMv1SmvO4dc0dYfXmXKJff/b+Oc+88LsCy+29woCS8gEDYEoE8eDos6GR3UPtbGrmDGa4O733fVDZUzUP+EGdLbU92UXZaN1Q45108w5X5borbX03X14RTRjUwbjc020xTb/lWema5Sd9W1nQLuDgRKRqBY0ljsMXQtxWo8qTydT8VpUNR4mLCJcq8MvEpHQP1K6VEmgVxRw5lbi9EaB/VKedWtQ+78Ab4/HaNvM33GIV/JN5JolOMFBMKGgKZcClMuTA/0ye20sJPRQe1jbewIZrw2uPt9V91IaYD+IBkb5/oJptxvS9T2erquTnGPjrFsnn5kffKb2W7DdG0J0wWnvLYGwt19R0Cc8rbEpsn+Od+3RtfSy3RukLOBelqovRk9htwArn5lhtePUS51usPrx61cF2WZKS/lVbcOuYKjP8Q/z0ToB879/5lz/zNLTbS0EXOVaqDXwzsQsAEBYXquJBfoXa4dunSMGxRBn9wGs70xRmV00CX4DWgq+gcw4xWFt2oX1w2UkxmX2uHbspFidnS/l5Mply7FZ9IdpgRov+PxN7sQ0HVV1Cy+Ge9gpryFXqzFoWZhlxkx2hIRECWeBPfHOMNEzZ+HZ+nSYIFS7JB3So8hMOUlovjbYfJ78iizRG7VvOreIdcfZMn9H2N9ctH3lRS1SS7IL6au/wYy/gUEwoJA0aEomNqh68Mv6VIS+uQ22lYZHXQJrq71wIxXF+9K3U0D8kcx4877O5lyZBo5EbL7s66rULOw244YfWkIRJgmb+Q+Q9ID5bOTM3S2dxVNSUuDbt+j1CF3q+ZV9w65oqk/zPenGui7iQ7uktdMsysJWoG+r0KE95AhEOFV2DgWyTlmyvN0gfXJhelB13X7DK2MDpjyytlONi3qiJ1mJuEq19yhm3rl8K7klTUQ75YZd44JmUZORML1WZtnQs0iXHbFbPZHAIHm/XFx+1f1JzXQW2qPMjjkr5HWH2iJaIwafV/ukpfjZi4l5v67NRiOBwJBQKCNpdAG2tYNU37t2DKNDIApD4Jd3I5BGR0w5W6RK+34IoNAvzb1OsVMQndTgaAzXhp+QTvKuWE6qGb8qHEj0+gohOz+Xh1yqFnYbUeMvjQEiutZnplyBJxLQ2z/o9Sf1IBvsUdZL/coa6PDepTBIXfgqakGbnP/HZfBRyBgBQKNXDsUbyymKn18fIYuJ/PQ17XCcvsPEkz5/rh4/WuxCy3RbnmY68NLNPRW3lyyrSWG5jdewa3Bec6Nkh+yp5JpVGTKOdOIuxRLTw5kGtXAuBW4JdbTCoCKSwYeASdTLuvZyWQ7dXFNOV6lI6CB32KPshbTo0zKobVHmfNKcMgdiKhD7jb333EZfAQCViAgzJ9olJ/qXKFPT0yb2iHo61phun0HCaZ8X1g8/7GB//+IccBKNii/G1igd9jhupCOUV97UYUjGm1A0xvP6Fb/RN0gaSqhV2bcOXIJ2PS2bNC5nlX6aOiVUa9I97ZSOwds8LIXAayn9toOI/eOgJMpv8T65HDI3eOpAWDtUab65BnOvN5PtQEOuQPjSv1gO26Dj0AgUAg4uwZDXzdQ5nE9GDA7riHbc4JuSFrZ0YqyQy614h8df0UjvDGBHMweqKz4oBsjTSH0gxnfPfFiSUMx0+iT4RlmyjeQabQbIMv/7VxPRV/486cD9Hi+lbZ3IgQ1NMsNjOHvi4AEoj9Isz459xga4R5DSekxhK7r+2J12B/Vr5TM62+5R9nPvH7sp9oAh9yBYqV/uB23w0cgEAgExAHpasqT6pNDXzcQZvE8CDA7nqEzJ2rKnrwLSy6M+Agz49iQlIdrrc7WDZHfzPju+YhTfrpzmT49OW16ciDTaDc6dv/buZ7+lIvRV8/66fFCKxW2GpjtYuPjBQRChkBrfJP6WzfofO+ayfwZGURA2ouJ1a88Sp8cDvkB6Dp/wCWi8dW4LMBtxYgoQqIHIIc/24yAkymHvq7N1iRyMjvjiwm6me02G8l51tVd22y0e4I+j16ZcTS18RnYGl1ON0KVYsad03Kun8g0ciJk92ddTx9MRViNp43GeF84LWo8+ajdE8PogcA+CEg5o5Rsye/hv52YoXe4xxD0yfcBqsQ/ye/QYfrkcMgPANL5Q/7TVJy+nuijx4tttLHJEdFtREQPgA5/thgBJ1MOfV2LjclDdzI7s0vbNL8eM4HFm9kuklomvH5DQJlx0WNFF/XfcLH1X87Aul814wfh4Vw/kWl0EFJ2/l3X0ylW47mfLdCdTJy+z3RjHbXTnBj1EQiIlxNhp/wMO+SfnSpm/jTFo6a5G0q3jgBvn6/VIT+oRxkc8n1A2/0n/UF/MB2hm5NtJLVD08tNtMwRUZDku5HCv8OEQIpTda8mi7VDFzlVF12D7bauMjvQKd/fjmDG98fF1r9qQF02PvcmCyQ14/J7LTKmt3NdlF2ubCAKTLmtT05p41Y5NOiTl4YXjrIbAQSq/bGf+pMHlU7BIT8C599+2AsmIipd8m5xyqcwSzto5nEEevjaVgSkmVUf1w6d61mjD4eW6MIg9MlttaWMW5kd6JTvb0VsOPbHxda/6sZHmuj8c6KdJl4mTFbbaqGRFtYrX6oBptzWJ6e0catDDn3y0vDCUXYjgIC1P/ZTf/KgEio45CXivPsH/pvxDsOUz6EGs0T0cJhtCEgjqyhrlB/rWKMryTlTO3QuFadkZ4yaE43ceboo+2TbvOp9vE6mXDJ+/vpkgB5xb4ydOkz5wUYjHP9H6EansLVtJiSM+Cgz4xJA/9c0M+JGZoa7YVf5GQdTHo7nyzkL5zqK3hxOhPA5jAg4A9fQJ/dmZfUnlSmXHmVfPBsgOOQl4qk/+Ed1ySvxcjgMCAQagWLtEFFnU4GG3lo1+uTvDKzS2/1k5Hygrxto8x04OCdTfpcdli+e9huHXDoFV9thOXCgVfrCucHo62hA05oqYe/nbXSDs7RaMJd9zoy4CZzPNdMCB85XN7nErMrOuAwETLmfVg7OtZzrKHpzBMc2GEnlEHAGsKFP7g1r9SeVKb+bS9DfxuGQu0ZTADysS57rC+IEIBBgBBLRbepIbHKXzWW6xkz5yEAB+roBtlepQ1OG534uQt+Ot5tuwbOrCZKU3np4OTcWojOOZjX2Wd65sVF98SfcfPUHUyvexI547XWiwZTb92yVMmJdR7U3R5Hp4gDnfJuRQqtFEKiUceMYIFAOAhrIFn3yi+ko5EA9gqmB5PtTUlrVAYbcLY7qkB/UJc/t9XA8EAgyAip7cYr1df/H8Ay9zTXl0NcNssVKG5syPDnpFpyRbsEJulFHXdd1Q4Fu6qU9L0E9Sjc0mvr3axf1xVbDjK+zrF8NiPE34AJT/gYkofiDrqPam2N0Kkb/YDWeR6xPvsbBzU2o8YTCzpjEXgRauMdQT3OBzvWu0h9PLJGo8aDr+l6MSvmkAWXxJ0d5H4aU9VJQ23WMcwPwiFPi/j7RT0+4BrOwFTFR0V2H459AIBQIOBke6JOHwqykzYnqpVswmPFwPLe6kdGUP2XGH/PvcDW6qHtF0bmOQqfcK5LBOk+Z8ofTRLdYjUf0yXOvmmhJ1HiCEBEKFlwYjeUIaEmj9Bi6lmI1ntQGneceQ4NdUUPYoMeQOwMr0QuH3B1uxW7FG1ukG4GxmRjdzHUbXd+XrO+7zhrleAGBsCHgZHigTx4OC6tDXi/dgsGMh+O5dQbGf2XGmZmsRhd1ryg611HolHtFMljnKVM+tbhJY9k8NxNM0E3WJ580zQQJTnmwzIXR+ICAOOVtXM6YbFun832rdC29TOcGCUy5B2x/dch/HP3FxO+i0QZENlwAqRuCR7NEP003k9QOPeM0uUV2yiUiiqCoCzBxqDUIiD75leSCiYhePBajtERE0XXdGvs5B6rMjtZAhrFbcIR3DuoIne5aoasc0UfNuPNJsOOzrcy4E10nU46MIydCdn7W9VR6c0hTwbHZFnohTQXrpDeHnVbDqL0iIEo8iegWneHf1T8Pz9KlwQKaonoAU/3JyP/74gfjO7a1xBDZcAGkbgymFgv0MJcn6VZ8M9dDk0vNpm5oGx65CzRxqC0IiGOjtUPXh1+a2qF0byuh67otFtw7TmV2tAYybN2CxRlv5P/UATrFzQm7WTkA3dT3Pge2fNKNizAKa/ktsoUZd+KrAaJTvJG9kpw36+iZdAd1tyech+KzRQjoelqvvTksMhWG6gMCxd/XHdP097OTM0aNB81R3QOr/mTkf/2ff+3IBgV6cu5BlDN0gyBd8r7jLnkPuaZ8diVBK4iIegMUZwUaAUlTkkVYUn+vMNP4LtcOXUjFeP2APnmgDXfE4JTZCQtTLs+oNCRs4QBS9+vmM9eHl1jCL2+QQAD6iAciYF/rhkVLxWypGT8KRmQcHYWQnd9rKVC99Oaw00oYtV8IoBTMHyQj//N/j+9ICh/05LwBqhsF7ZJ3JyNMeTdluXYILyAQRgTEKW+Lb9IA1w5Jl82rx5ZZDm0H+uQWG1uZnbAw5Y2cShdv5GeSA0fvDSzS5WSeLqRj1Nde7PGBEi27HlYNfNvOjDtRL2Yc5c06KgEj6c2BjCMnSvZ9Voe8Xnpz2GchjNhPBGQd627OM1OOkrBycI1c+vcXO9dSXBOaZqaLNyxJdMnzhKcW5Y/mGugWO+RPAt5cxtMkcRIQeI2AODyiUX6a5dD+NDRLlwfz0CcPwdNhO1OuG4PW+BY75NumVvzD48t0fnAHJVkWPp8a8A4bM66mKGYcScrnCn16YtpkHIlDLqnr6M2hKNn3bvs6ah/iGHEQEHAy5ci8dmeV/wYAAP//eP2ZPAAAQABJREFU7L3pehvXtfe5MBMgSHMQRQKgRE1tDZRtnUQeYifvOYnt9IX0x36fp/sC+mPfQT9P30B/fK+gO4mTk8SObck+HjRbkkWKAEhKHEwCBAGQRK9V4JaoLZIYqgqoXfXHOQ5EoGrXrt8qFmvt/97rH8r97xuNiVSVLp3Yog9nNulKpkGZ8RQNJWOEV/sEVjer9DC/QYW1HVrbjtOjtTR9UxylQinZfiPYEgQMIRAKEYVDDTo/WqI/zCzTm3z/SMYjNDaUoNyJQRpK4f5hSChf6ebO7h5Varu0zvezwsoWPdvYo9XtmHU/u1EYpfymt+9nuaEKvZtdI3kP8zV6cjhMl7MxmhqNWtdnNBJ+5Xzxg7cJbG7VKf+8TPL3Va7L+fUE3SyO0eO1QevvbGUn4u0TaKN3fJnSOb6PfnJ2iS7iPtoGMe9vYvp91PuE0UMvEkhGd2ksWePnwjL/HV6lq5xPns0M0Sg/F+LVmkBo7L+XGxF+sL5g/UFYprezNcpyQj7CAOUBGw8wrSHKFkF4cGiPBLYKEoFsukK/zqxZifnoQM1KgCQhl8Q8mcD9w9RrYbNSpyIn5GucCG3XdmiOE6EbhTFOzAdptRInryVC+oPAzEiVBuJR60EAA8zmXYVWQlPdtRJxSciXeWDIzwPduI+ad42202P9Pnr/eYr+9PMkPVodpL1GiBrtNIJtQMAwAjIg/h4PjF/LVelKLkYZDIi3FcHQ6P9abojaJQn5H881R2jxINMWu1c2CtoDxCsnjx8CS0ASIUnEz/GI6PXMKp3mRAhKufmXg2kKj1LGZcbG2ECdJlgZx8Cyuddh0Aa4cR8191o9ruf6ffTHYow+e3LSGtis74Zpl5NyvEDAbwRSsV3CzOvOo2ol5LIbHmg6h3fYHvqDxAMeEf1s7iRPsUtbN98GhkQPw4bPDCegKzxZHhG9kBu2lHLDTy3Q3dcVHq8p5VDG/XV5Bn1gW7+PypILzDgy/xpX99G7iyH6cj5N9/i5cKmcoHItav7J4QxAQCMgIi9mXmtQ2vjxRUKOB5s2aLWxif5AcWsxTn9/esJKyKu83m1nDyOibWDEJoYR0BWe2cweEnLDYnhYd3WFx2tryjGQfFjUzP1MH9D245rx46Kj30cx4+g4WuZ8p+6ji1xj6E6hTt/l4/RVfszzNTnMIYyeeo0AZl53HpEXCbnaVX/AEaULi/IVnfbf1YPFvaUQfZ0fJFHKF7nAW6kaxbqh9jFiS8MIZKWoFk9dv5ar0SyvHZL7B9aSGxbEQ7qrFB6vrCnHAPIhQTLwIzWAXedigvKSteK3F+rWu0wmK3ARwSAWR4VSbl0OvvsfuX/+XNykW8WQp2ty+A48TqgvBPR8EkvJjg/Dawm5/qCDKnnHAzzqW/WgUVir010eEf2+ELduwFKluIFiHkdhw+eGExiUtUODVbo4XqEPTm/Qlak9VF03PKbSfaXweKX6Ov7Q++Ci4lNQA9cbXE1dXk9/SdDnc8M0z+97nJFX6hHfVFO3TrDN/4FS3iYowzZTCbm48ZjkXmEYZnTXIwT0fBLFVo8PzGsJudpcPfBIlTxRulAlT5Hp7F09cNwuhq0HDamyueLBKsWdnRW2BoHDCYjVVDTcoOlhUcpXLNeGi5k4TY3EoJQfjsyoT/utlOMPvFGXy5GdVQPWYmd2sIr64/U0fWvZhQ5g4JrpQSk/8hIy8ot+3z+NhIZOG09A5ZOq6CpmXh8e0iMTcqmSN85+cuKL+dszGzQLf/LDCbb4VD145HlEVKbifVcQH1X2J/e4n2+L08LXIHAoAamQIGuHRrjS9ZmRsuVP/tZkhS5McOFI+JMfysykD/utlOt/2DEFzqSr52Vf1UD1a/7i6+wvzgPW21xvBfVPiaCUv7xm/PCvft8//cAQ52AeAX0gHTOvD4/hkQl588G6qXS9n+M1oexPfjEbaypd8Cc/nOYxn8qDx8P8BolSfrM4xkXe+MFj23t+vsecAr4CgbYJDET36A1OymVEVNaUXzpZR7Xgtul5f0Nd6ZGZP//f40l6yG4SbjhJ6H/QMfXN+9fIYT1UA9S6Mv6Ir5sgrhU/jNFhn0EpP4yKuZ/p90+pMfRnyw6N3Xi48K8s18ALBPxGQA2oSz45Ox3FzGstwEcm5LKdJOXDCX6QHt62lPLrOVa8Joky4ykaSsa0pvDjcQRUQi5rhyQRxwPIcbTwnekExPIiFmmwP3mJ/uP0Ml3gNeXwJzc9qi/7rys9P3CNjD//fNJKyMVb18mkPMRTLnLpCl3PrloDPPAZfxkH0/51pDKOAepjQwml/Fg8xn2p3z9vL8boH+zGI8+FW1w3ob4rT994gYC/CMh9bDxZp4sTW/S7GZ55nd1DPnkgxMcm5LKdPFTL9HVRun536jnNTtUpywn5yFDCesCORsIHmsM/jyKAB5GjyOBzPxPQlR34k/sr2krpucNVg7+YG7L8dZ9tJayHSrtnKksfUvwHfFT+gPPSKfkDLsq4vNIprmuCgWG7iHu2P5RxZ1Dr91P4lDvDtV+tqPvngyWim+zGIzONpPDvhrjxQCXvV1hwXBcJyAD7NLvxvJdb4ZnXVbqc5RpD4saDmdfUMiGXIk0RLtIkCfknZ5atNaED8SiNckKOB6L2r1o8kLTPClv6h4Cu7MCf3D+xlTNRSk9R/HXz4q+boK8Lo7b9dSUZl1kWMsXt15l1ejvTnOI2MdQcAI5Gw/gDbtClhAFpZ4Kl30/hU+4M1361ou6fi+t1um+58fD9k/3JFzgp3+WEHEl5vyKD47pJIB3foan0Nl3igfb3T5Xo0hRmXgvvlgm5Coqa+6+q5KGYjiLT2bv+YCJrh/7yZNKaqiQ3XwyKdsYTW5tBQPzJr2fWrBHR2ekY5eBPbkbg2uylsvOx668riXiYE/EXRUXHt+jDmU26gqKibUbCW5thINqdeOhKOWYeucO5V60qpVxmGont371nKXrOxQ1l+jpeIOA3AiLyJiJ7ltD7+5lndDWDmdcS47YTchmZHeOq6+dHy/Qur+VDUZ3ufkX0B5Qfign629xJErsXWTeEYh7dccVe3ibwYu0Qj4h+NPMLuzbAn9zbEeusdyoht+uvK3+o47xMSgaAr02u01usjF+B7WZnwfDQ1voA9Py6uIygqKndEOlKOWYe2SXa3/2VUu70TKP+nhWODgKHE1AD7xdk5vXZZWtJGmZed5CQK6y6Ug4/OUWms3f1oHJnMUxfPR2y1g4tlxNUxohoZyCxtREEWPi07NCa949VesdaOxSj7Cj8yY0IYItOKoVHEvPt2g7NceJ1ozDGM38GaZWVngrbWB33UgO+g/FdTsj3rAHfD6ypbA0sjToOnEe/0weelzf2UMzUhVhh5pELUPvYpBrYtDvTqI+ngEODQNsE9Hwy6DOv21bIFWH14KSUcvjJKTKdvasHFlGUbvPay++5SrE8wEpBD7xAwI8EJClPJ2TtUMWqRfEeuzZcmmQ1FP7kxodbKTzrnJAXVrboGSdgq9sxaynOjTbWlKs/zPIudUukWNVlsdlEsRcjrw014PyazziqqTsaT1nacYJnLr7JM48+PM1VizHzyFG+vW5MJeR2Zxr1ut84Hgh0Q0DPJ4M+87rjhFxBlyp5lj95DlXyFJNu3pUdGvzJu6GHfUwjEJW1Q7z8RezQ/hu7NlydqsGf3LQgHtPfTpVy/EE+BqaBX6mBZviM9yZ4zeKHROdGSvSHM0vWzCMZ4BwTF5xEhOCC05s4OHWUTu+fTh0X7YBAPwmoAXlVoyyoM6+7TshRJc+Zy1cl5PAnd4YnWvE2AVU9WxLyP8w0XRvgT+7tmHXSu06Vcv0PcdCnrHXC2ovbQhnvfVTknnqeE/KPzy5ZazFxP+19DJw6Yqf3T6eOi3ZAoJ8E9IH5oM687johR5U8Zy5fPMA4wxGtmEVArxIMP12z4teqt62UHtkfRUJbUTTneyjj/Y0V7qf95e/00fX7p/iT/+lnceMZ5MK/IdihOQ0c7XmCgAzQv5dlNx6eeR3EYq5dJ+SokufM9YsHGWc4ohWzCMiI6OhAjaeul9kObZXgp2tW/Fr1tpXSI/u/y3941RQ1KOOtiHr7ewws9zc+uJ/2l7/TR9fvnz8W4/TXuQmrJkeN3Xh296QiC14g4C8CUhNjIlW1/MmDaHfadUKuLgNMOVQk7L3rDzQPnif5BtwcEd21RkRxA7ZHGHt7kYCu7MBP14tR6r5PutKjqq9Li7DP7J5rv/dUA8n13T2rK1JF/fZCneS9wZ8UuDjpN8VRKpRQpLSXsdLvp5h51Ev6zh9L3T/vLYboy6dpusdK+VJpgEq1410rnO8JWgQB9wmoJY3KDu3tbI2y4ykakZoYcf/XxLCdkOtz/4NeJa/bS1Y94KhiOLcWY/TPpxPsTz5IFbZC29kLd9s09gMBzxLQlR346Xo2VF11TFd6VPV1aWxsoE5QxrvC2ved1ADyxlbd6svTXxL0+dwwzfP7Hmfk8jdrbbu13V3fT8RnHdDvp5h5ZHaA1f1zkd147hbq9F0+Tl8XxmmBB7waDRn6wgsE/EVAknJJyP94rlkTI0j+5LYTcnUp6Ep5UKvkKR7dvqsHnXtLIbqZH6QHPCJaZJVhsxbFuqFuoWI/zxNo3j/En7xGsznxJ4+iSrDno9Z+B5XSU9pP4NSe6VQMPuMKhgHv+sCx8hd/vJ6mb1kRL7J6Z61xNeBc/NxFKOX+iq66f94uhOkfPPB1/1mKVioxquxAKfdXpHE2QkDPJ4MycO9YQq4r5UGtkmf310k98BTW63SX/cl/EH/y4rjlTy7KAwZF7RLG/l4kMMhrh04OVq0qwe+f2qQrU3vwJ/dioLrsk1J6dnaaU5xVM9FoOBBT0dT5mv6uBoxlJleltkvz6wm6WRyzZnKtVeK0zQkCdLv+RxlKef9j4GQP1P2zyEr57YUd+k6eCwuj1nOhk8dBWyDgBQJ6PhmUmdeOJeQqiDKy0fQnr9GVbIymROkKwNx/df5OvasHH/En/2KeR0RZKV/hB54tngqIFwj4jUCYpynFIg3LT/c/2A7t7UwV/uR+CzLOx1gCaqBYLalSyvijtTTWins4qlDKPRycLrq2xgNhPxc36VYxxAn5mFV1fZWfC6GUdwETu3iegK6U+33mteMJ+WB8hyZZ6bp0Yos+OF2iy1MNTEns4rJXD0B5a0SU1w4VRIngIjm8dggvEPAbASlZaPnp8tqhj88s0Zt8/4Cfrt+ijPMxlYAaIH5NGWcbJqwV925UoZR7Nzbd9Ewl5AV+LlzdjllV16GUd0MS+5hAQFfK/T7z2vGEPBJqsNK1x3Y2ZfrDmWV6K1MPVJU8py9yeQB6mN8gUcqtqYF4AHIaMdrzEAEoOh4KBroSeAJqYBjKuNmXAu6rZsdP9V6tJZfEfLu2Y9UY+vOTk1ZiLlZosqwRLxDwGwGllF+TGkPTUcr4dOa14wm5KF1hTsrPj5Xp07PBq5Ln9C+CSshlRFSUCEwRdJow2vMSASg6XooG+hJ0AlDG/XEF4L7qjziqteTrnJAXVrboNrvx/OPpCeu5UJYz1tmjHC8Q8BsBuX+NJ+t0cWKLfjezQbPZPV/OvHY8IVcXghrROM9TUGFvo6h0/o4Hos6ZYQ/zCeiKDvzJzY8pzsAcAlDGzYlVJz3V76vwKe+Enne2VUr5gyWy3HikxlB+c4A2qjEU/vVOmNATBwmEeE3jNNcoey+3QteyVbqcjfuuRplrCbk+9z8oVfIcvP6spvBg5DRRtGcCAV3RgT+5CVFDH/1CAAPBfonkq+eh31fhU/4qH1N+Ukr5Irvx3Gd/8u+tqutj9HQjSbuNEJJyUwKJfnZEIM01yqbS21aNsvdPlejSFPlKKXctIVeUdaXc71Xy1Hk7/a4/IIk/+V+eTNJjrnJr2aE5fUC0BwIeIJDlEdHrmTVrRHR2OkY5+JN7ICrogl8JYADYr5F99bx0pRwzkF7lY8pPSim/w1XXv5gbonv8XPhsKwE3HlMCiH52RCASblDCqlFWot/PPKOrPqtR5npCrivlfq+S19HV1cHG+oPSj8UE/W3+pJWQy7qhXRTz6IAmNjWFQIr9yceTNcuf/MPTvHYoA39yU2KHfppHQB/4feEzjmKi5gXzmB7rSjlmIB0Dy8NfKaVc/Mnv5NmNJ5+gr+FP7uGIoWt2CIgTj9Qou8BLoT85u2w9Fw7EozQ6lPCFUu56Qq7gi1Ku/Mkvsz+5X6vkqfN16109MN1dDNOXC0OWP/lyOUHlGvzJ3WKOdvtHoHkDJrJm2mRW6G2usnk5F6PsSIySiQhFI+H+dQ5HBgGfENAHfOEz7pPAtjgNzEBqAciQr5UdGvzJDQkYummLgD7zemI47As3r54l5OJPftLyJ6/Qb05vwp+8y8tRPThJ1XVrRHR/7VAe/uRdEsVuXicgSfkQ3z8y6YrlT349V6ZLkw3KnRikoVTM691H/0DA8wTUQC98xj0fKkc7KDOQTvAMpDdPbBFmIDmKtqeNqYQc/uQ9xY6D9YmAPvPaLzXKepaQyzSDWITt0Pb9yd/O1HwxotGn65GUHRr8yfsVARy3lwSi4T1K8sPjuZEy/fYUrx2aqlsJ+RhPVYJS3stI4Fh+IqAGeOEz7qeotn8uMtgZ4f/OjZToD2eW6B2uXiwDnbivts/QC1uqteTKn3xuPUE3CmNshzZIq5U4VXYwg9ILcUIfnCWgK+Wm1yjrWULO93wKWXP/2Z/8HPzJ7V6WKiGHP7ldktjfBAJy74jwfzKg9/uZJVZ0KpSMR6wHRyjlJkQQffQiASjjXoxKb/skSfl5Tsg/Ptt8LsN9tbf8nTiaWkuu/MmfbezR6nbM8ie/gTXlTiBGGx4koCvlptco61lCrmKpj2j4Ze6/Or9eveNBqlekcRwvEdCrA8NH10vRQV+8TkAp4vXdPaurslb89kKd5F3qghZ46dM3xVEqlJJePxX0z0ECuK86CLOPTelKufiT/+nnSUsp34MdWh8jg0O7SUDyyvey7MaTq9IVrjFkao2ynifk+oiGX+b+u3mxHda2erDCVMPD6OAzvxLQqwPDR9evkcZ5uUFADeRubNWt5p/+kqAv5odJqqmLfeZWPUJr25ji6gZ7L7eJ+6qXo9N+33Sl/MdinP46N2Ep5TVx49mTuap4gYC/CEgtjIlU1fIn/3Bmk65kGkZWXe95Qq4uA10pN33uvzqvXr+rByxJzCu1XfppJck3YPEnH6QdvvnKqCheIOA3ArqiAx9dv0UY5+MkgaMGcB+vp+m7xaYiLtaZDdhnOonduLb0+ypmIBkXQqvDSim/txiiL5+mLX/ypdKA5caDX3EzY4peH02gWQvjpR2auPFkx1M0IjWGeGmjKW48fUvIdaXc9Ln/R18q7n6jP2jdWYrRF/kJKyEXK7TaLmyh3I0AWu8HAV3RgY9uP6KAY5pCQB+4feEvvj5I6/uKOJJxU6LpXj/1+ypmILnH2s2WlVK+yG48dwvsTy5uPPlxWtgcsAbdkJS7SR9t94OAJOXiT/5Hg2uU9S0hVwHzy9x/dT79elcPXA+WQ/RtYZAerKRoYSNJG9UoVI9+BQXHdZ1Ac6bNKl3jEVFZOyRKOaquu44dBzCEgD5gC39xQwLX525CKe9zABw6vFLKxY3nn0+GSdaUr1Ri1tIUhw6BZkDAMwT0mdem1Sjre0KufDAvTWzRRzMbxs797/cVqR68iut1uscjot9b/uTjJP7kmIrY7+jg+G4RGIzv0snBKl1kH90Ppjfp8tQe/Mndgo12jSOgBmrVkqYXyjgvacJacePC2bMOQynvGWpXD6SU8iIr5bfzO/RdnpVyVF13lTka7x8Bfea1aTXK+p6QKx/M8zzV4FO23TB17n//LsFXj6wewGREVIr1POAR0efsQynFevACAb8REA/dWKRB5/j+8R+nl+mtDHx0/RZjnE/nBNQALYp+ds4Oe7wkAKX8JQuT/yX+5D8XN+lWMQR/cpMDib63RcBUpbzvCbnQ9cPc/7aukh5spB7E8jIiynY23xUSdFNsbFgpxwsE/EZAShaG+X8kIf/4jPiTb8Gf3G9Bxvl0TEANzEIZ7xgddjhAAEr5ARgG/1Ml5AV+LoQ/ucGBRNfbImCqUu6JhFwImzqi0dbV0YeN5EHsYX6DRCm/WRyzirxhimIfAoFD9oQAlJyeYMZBPE5ADchCGfd4oAzrHu6vhgVM665aSy6J+XZtx5o5+ecnJy1/crFCgxuPBgw/+oKAnld63c3LMwm5qSMaXr1qVUIuI6KSiD9aS9M3opSXoJR7NWboV/cEoOR0zw57+ocAlHH/xNJLZ4L7q5ei0Xlf1FrydU7ICytbdHsxRv94esJKyGU5Yx1uPJ1DxR6eJ6DnlV538/JMQq4ia9qIhuq3197xYOa1iKA/vSCgKznwJ+8FdRyj3wSgjPc7AsE4vn5/hU+5WXFXSvmDJaKb+UGuup60Cv9uVGNw4zErlOhtBwSmhyr0fo7deHI1upyN0ZS48XjQn9xzCblpIxodXBM93RQPaD3FjYN5hICu5MCf3COBQTdcJYABWFfxovF9Avr9FT7lZl0aSilfZDee+y/ceMboKVvk7jZCSMrNCid62yaBdHyHJtNVuiRuPKdKdGmqQZnxFA0lY2220JvNPJeQq9NWSvm1XJVm2V8449ERDdVfr77rD2pSdf0vvHbo8XraWjfUaHi15+gXCHRPIMsjotcza+xPzveP6Rjl4E/ePUzs6VkCGHj1bGh83TFdKcdMJLPCrZTyO1x1/Yu5IbrHz4XPthJw4zErjOhtmwQi4QbF2Y1H3Lx+P/OM3XhqlOWEfGQo4Sml3LMJufiTjydrlr/wb89s0GzGmyMabV4PfdtMf2D7sRinvz+dsNaU13jdkBT0wAsE/Ebg4P3jw9Ny/4A/ud9ijPMh0gdc4TOOq6IXBHSlHDORekHduWMopVz8ye/k2Y0nn6Cv4U/uHGC05CkC4uQVDklCXrbstS+yUj4Qj9IoJ+ReUso9m5BLmhhigNPDPPc/u0bvsFJ+KRunqRFvzv331NV3SGfUg9vdpRB9vZDmtUMpWioNUKkWPWRrfAQCZhNo3oCJZO3Q9cwKvZPltUMy02YkRslEhKKRsNkniN4HmoA+0Lq8sYfinYG+Ivpz8piJ1B/uTh1V2aHBn9wpomjHywTUzGtRyscG6jQxHPaUUu7ZhFyCKkn5UGKHskPb1tz/69MlujhJnhrR8PLFd7Bv6gGusFanO7J2iEdEb7AdWn4zxeuGMG/9ICv82x8EJCkf4rVD8tAoI6K/zpb5/tGg3IlBGkp5a+2QP4jjLHpFQA2wwme8V8RxnMMIiFKuZjJ+NIOZSIcx8vJnKiGHP7mXo4S+OUVA7ldjPPNalPJ3s6s0M1L1lFLu6YRcghDluf9Jnr5+gQH+t9PPaHaq7qkRDaculF61ox7kbrE/+edzb1hK+WolRpWdSK+6gOOAQM8IxHjdkNw/zo+U6KPp53z/qFkJ+ZisHYJS3rM44EDOEFADq3meanp7oU6ijMtwamEzCVtLZxCjlQ4IqJmM8oD78ZklnolUxf21A3793lStJVf+5HPrLNQUxiw7tNVKHM+F/Q4Qju8KAV0p94o/uecTclG5Ijx1/cJYiT45s0xvenTuvytXjQuNHnygu8UPdKKU34Q/uQuk0aQXCITl/sGDeuc4If8DPzD+T+MVq4iHJORQyr0QIfShEwJqQPU2D6h+MT9MsmZ8jzNy8RJe28YDdCcssa0zBCQpP8dTQD85u2TNRBI7IdxfnWHrdivW82Btl5Q/+TMe4Fvdjlk1hm5gTbnb+NF+nwjoSrlX/Mk9n5CreOkjGl6b+6/6acq7THV8mN8gebC7yVPXH68N4oHOlOChnx0T0KsCwz+3Y4TYoQ8E1ABqfXfPOroo4jKQ+kMhQf+1OEqFktgVEeyK+hAbHPIlAdxfX7Iw8V+6Ui41hv7086SllO/BDs3EkKLPbRCQvPI9rlEmbl5XPODmZUxCro9oeG3ufxux99QmKiGXtUOirDxaS2PKo6cihM44SUDuH6MDNVZyylzkbZXgn+skXbTlFgGliG9s1a1DzP+SeLHUaI2VLFlqhBIgbtFHu+0SwP21XVLe3E5XysWN569zyo0nBDceb4YNvbJJQNx4JlJNf/IPZzbpSp/dvIxJyBV3XSn3ytx/1T9T3tWDnioK9NNKkv421/Qnr++GLI9yU84F/QSBdgnoSg78c9slh+16SUAp43J/zj8vW2vFZeD0sQycLo5ZyjiKcfYyIjhWOwT0+ytmIrVDzTvbKKX83mKIvnyatvzJxY2nXOOBP+90Ez0BAUcIvFgSbS25Waa32Y2nn/7kxiXkulLulbn/jlwdPWxEf+C7uxSjr4vjllK+UY1SdQe2UD0MBw7VIwK6kgP/3B6Bx2E6IqAPmMJfvCN82LhPBPT7K2Yi9SkQXR5WKeWLPHPyLrvxfFeI0438OC1sDlgzcZCUdwkWu3mWgCTlFzgh/+O5Zg2MfvqTG5eQq6iKv/D7uVVr7v9l8ScfhT+5YtPJu3rw+2mZ6IelFD3gtUPzv6RonadDylRI3IA7oYltTSHQnGnD9w8eEZW1Q6KUo+q6KdHzbz/1gVL4i/s31n4+MyjlZkdXKeVSY+ifT4YtN54VduOR4pF4gYDfCOgzr/tVo8zYhDzN/sJT6aY/+funSnRpCv7k3fySqAfA4nqd7hdq9AOvHbrJSvnCRpJ29mTqejetYh8Q8DaBQb5/TA5WrarA70+X6PLUHqqueztkgeidGiBVS4mgjAci7L47SSjlZodUKeVFsVfM79B3eVbKUXXd7KCi90cS0Gde96tGmbEJuVgZJSJ7bPBeot/PPKOrGfiTH3m1tfGFehC8sximL9lO5z6vKX9WTlAZI6Jt0MMmphGQ+0ecPcrFDu3fTy/TWxn4k5sWQz/1Vw2M6mvGUWzTT1EO3rlAKTc75uJP/nNxk24VQ/AnNzuU6H0bBPqtlBubkMu8/7D4k+8vxr8If/I2LrejN1EPhFJ1/Xae1w7JiCjboRU2k0fvhG9AwFAC6v5xbqRMH7M/+Zt8/4B/rqHB9EG31YAolHEfBBOn8IIAlPIXKIz8h0rI5bkQ/uRGhhCd7oBAv5VyYxNyxbjfIxqqH355lwdC+JP7JZo4j1YEoOC0IoTv3SSgBkKhjLtJGW33mwDus/2OQHfHV2vJJTHfru3Q3HoCSnl3KLGXQQT0vLJXbl7GJ+T9HtEw6Bprq6sqIYc/eVu4sJHhBKDgGB5Aw7sPZdzwAKL7bRHAfbYtTJ7bSK0lX+eEvLCyRc829qCUey5K6JDTBPS8slduXsYn5CoQ/RrRUMf3yzseEP0SSZxHJwR0BQf+5J3Qw7adEoAy3ikxbO8HAvp9Fj7lZkRVV8rvsxvPnx5P0sO1QXbjCcGNx4wwopcdEnjp5lWjy9mY625evknI+zWi0WF8Pb85HhQ9HyJ00AUCuoIDf3IXIKPJFwQw8PkCBf4RIAL6fRY+5WYEX1fKxY3nsycn6REn5PVdcePhok54gYDPCIib12S6Spe4xtAHlptXgzLjKRpKxlw5U98k5IqOKOXv59bYX7hKl9lfOAN/coWmo3f9gVH8yT+bO0mP19K0KyOisEPriCc2NoNAlu8f72ZW6R32J786DX9yM6JmTi8x4GlOrNBT9wjoSjlmJLnH2smWlVJ+dzFE/5ofonvPk7Qsbjy1qJOHQVsg4AkCyo1HuXmJG0+WE/KRoYRVBDgaCTvaT98l5IPx3Rf+wr85tUmXM+6OaDgaDQ81pj843lqM09+fnrAS8upOxPIo91B30RUQcIRAKrZLJ1LsTz6+Rb85vUmilOdODNJQyp0RUUc6jUaMIaAPdMJn3JjQoaMOEtCVcsxIchCui00ppVz8ye8Wmm48X+XHKA83Hhepo+l+EVBuPOdHy/Tp2SVy283Ldwl5mGfOxNhfWEY0Pj7T9Bd2c0SjXxdKr46rHiDvLYXo6/wgiVK+yDffTYyI9ioEOE4PCcgNOMJ2inL/+APfP962/MlTNCYjookIOT0i2sNTw6H6SEANcEqxzFsLdVrm4kgyyUhsJb8pjlKhBHvJPoYHh+4TAZmRdD3TnNE4yzOScjKjEffZPkWj/cMqOzT4k7fPDFuaS0CvUTYxHHZFKfddQi4rWeShWvzJPz3n/oiGuZdYez1/+SBZb46IFpq2F/nNFE9bx7z19ihiK5MIyP3j/EiJPuER0TdPVPb9yeNQyk0Kosf6qgY2bxfD1lTP+V8StLsXoq16hNa241ThWUd4gUDQCIhSPp6sWcrTRzMbmJFkyAWgEnL4kxsSMHTTFgG5T43xfUqU8nezqzQzUqWBeJRGWahxck257xJyRb1XIxrqeH5/Vw+Ut/iB8vO5N0iqbK5WYniQ9HvgA3p+Srk5N1Km0YEqoRpwQC+ELk9bDWTWd/esFkQRv83K+PeFOP3XEivirIyjFkeXcLGbbwg0BRSZkVTmGY1LXLujag18YkaSt0Os1pLDn9zbcULvnCWg55VO+5P7NiHv1YiGs+H2bmvqATO/P+Xy+3yCbmKqpXcDhp7ZImCtceQRUUnIr3ORN1QDtoUzcDurAcyNrbp17k9ZEf98bpjuryRprRKnrZ0oCmMG7qrACR9GQJLyczyjUWYkyRrNZDxiLRFC7Y7DaHnjM+t5sLZL8Cf3RjzQi94Q0PNKp/3JfZuQq/C4PaKhjhOU99XNKj3Mb5BMvbxZHOMib4OYchmU4AfwPPVqwFDKA3gRdHDKauBS7pP552VrrbhMSX+8nqZvrQHMAfj2dsATmwaDAO6zZsZZV8pl5uSffz7J/uRpywoNqxrNjCt6fTwBySvfy3Lti1yVrjjo5uX7hNztEY3jw+a/b1VCLmuH5EHzEd94UZTIf3HGGTUJWEr5ACvlPKUSSjmuilYElDIu98kKK0gvqqiv88AlK+PbvFYclTdaUcT3QSOA+6yZEdeV8lvFGP1tfsJKyKs7YatOhplnhl6DwNEELDcenkF5aWKLpPbFFYfcvHyfkCukbo1oqPaD8n7kAyeU8qBcAoE8Tyg4gQx72yd9lDKOAcu2EWJDECDcZ828CJRSfm+R6OuFNPuTsxtPaYBKVV6aY+YpodcgcCSBphsPF/+V4uG81ObtrDP+5IFJyGVEY4L9hS/xGqUPZzYdG9E4MmI+/QIPnj4NLE7rWAJQcI7FE/gvMVAZ+EsAABwggPusAxD70IRSyhctf/IaF69M0NeFUVrYSGKJTh/igUO6T0C5ef3RQTevwCTkzRGNhmWH9slZ9hd2aETD/bB78wj6A6j4k//5ySSvKU9bxYowKurNuKFX9gjoCo5U2byQG7aKENlrGXubSAADlCZGDX32OgH9PovaHV6PWLN/Sim/XQzRP59wEUt+LlyRIpZs74gXCPiNgF6jzK4/eWAScrkQ3BjR8NsF1u756A+iPxQT9Nc5ScgHaYf9dfeQkbeLEtsZREBXcGYze0jIDYqf013VByZfrBnHEh6nUaO9ABHQ77NwuTAj+EopL7JSfjtfp+/YjecGK+V5tnnECwT8RkDuU076kwcqIZeLwekRDb9dYJ2ej3ogvbMYpi/nm7Y+z8oJKmNEtFOU2N4gAmLTI2uHrsE316CoOddVfUBSfMZR5NI5vmgJBIQAlHIzrwPxJ/+5uEm3WCm/URjj4r+DtMpKeYWLWuIFAn4j4FReGbiE3OkRDb9dWJ2ej3owlarrzRHRON1gO7QCRkQ7RYntDSKgEnL45hoUNAe7qgYiX6umDmXcQcpoKugEoJSbeQWohFyeC1e3Y5YbD5RyM2OJXrcm4FReGbiEXKHVRzRkLejZzBCNDiXUJnjvgICyQ4M/eQfQsKmxBKDcGBs6Wx1XA5ByvzvoM45q6rawYmcQOJaAfr9F7Y5jcfX9S7WWXBLz7doOza3L1HUo5X0PDDrgKgG7eWVgE3J9ROMq+8ghIe/+WlUJOfzJu2eIPc0hAOXGnFg52VMo407SRFsg0B4B/X6L2h3tcevXVmot+Ton5IWVLXrGS3qglPcrGjhurwjYzSsDm5CrAMmIxnvZNbqWq9KVXIwyrJQn4xGKRsJqE7y3QQAPqm1Awia+I6ArN6gG7LsQWycEZdyfccVZmUEACbkZcdJ7qSvlUnX9T48n6SHceHRU+NlHBKY5r3w/t8p5ZY0uZ2M01WZeGfiEXPzJT6Rqlj/5RzMb8Cfv8pcCD6xdgsNuRhPQHxRRDdjocB7ZeQw4HokGX4CA6wT0gU9MWXcduSMH0JXyH4tx+suTk9aa8vou3HgcgYxGPEcgHd+hyXTVyis/OFWiS1MNyoynaCgZO7avgU/IxQotzP+dEqU8t0LvsD/5RRnRGIlBKT/20jn8S/3B9aeVJH0m/uTradqFHdrh0PCp8QTwwGh8CA89AQw0HooFH4JATwhgwLMnmF0/iFLK73LV9X89HbL8yZfEjaeGquuuw8cBek4gEm5QPNKg8+zG8/uZZ/RWpkZZTshHuEbZcTOwA5+QS6QkKR9O1NkSbZukavL1XJnenKS2RjR6HmmPH1B/gL29GKfPF07QI07IK2yFJqOieIGA3wjoD45Y4+iPCOsDjPAZ90dccRZmENAHOrEkyIy46b1USrn4k98Vf/JCgr7Kw59c54Sf/UGgKfRKQl627HElrxyIR62i4ccp5UjI9+Mfi+yRTF8XgL879Zxmp+ptjWj44/Jx/izUg+z9pRB9Uxi0RkQLmwO0WY1Rw/nDoUUQ8ASBLM+0uZ7hmhTsTz47HaOcrB1KoCaFJ4LTRifUgGJ9d8/aWvzFby/USd7lviV2jt8UR6lQSrbRGjYBARDohoA+wImlQN1Q9N4+yg4N/uTeiw165DwBver6xHD42LwSCfl+DMKhBsk0A0nIPzmzTG+2OaLhfAj90aJ6sC2u160R0e8L7E/OthcL/EDbaISQlPsjzDgLjYBVkyJZs+4fH57eIFHKcycGaSh1/NohrRn82CcCaiBxY6tu9eDpLwn6fG6Y5vl9jzNymeWzth2nyg6mWvYpRDhsAAhAGfdnkFVCDn9yf8YXZ/UqARlYHOPnQckr382u0sxI9VilHAn5q/x42nqFwa0xwBKNDdSp1YiGtjt+1AioB1zxJ5cHW6myuVLBA62GCT/6hIBMVYrwf+dGSvSHM0tck6JqJeRjsnYISrlno6wGEHV/cal98a2liA9gINGz0UPH/EIAyrhfInn4eai15PAnP5wPPvUnAT2vlKKUh9lsIyHX4t/piIa2O37UCKgH3TyvHZKpn7J26KY84LJSjhcI+JGAJOXnOSH/+OySVZNCinhIQg6l3LvRVgOHkpBXarv0Yq34+iCt8QDiNiviWGrj3fihZ/4gAGXcH3E86iys50G+v8Kf/ChC+NyPBPS88mqmgYS8k0C3O6LRSZtB3lYedB/mN0iU8pvFMXq8xg+6mPoZ5EvC1+eOB0szwqsGDHVl/BH75GKtuBkxRC/NJwBl3PwYdnIGulL+QPzJf27aoe3KkkaMfnaCE9saQkDyyvd4Bva1XJWu5GKU0fzJoZAfEch2RzSO2B0fawRUQi5rhyQRxwOvBgg/+ooAHjDNCOeRyjgGDM0IIHrpCwIYwPRFGNs+CV0pv7UYo/+cm6CHfN+t8mykHbbIxQsE/EZA1Ri6NLFFH81s0BVWyg9WXUdC3iLi08MV+iC3alVNvpSN05Q2otFid3y9TwAPvrgUgkgAD5rejDqUcW/GBb0KFgEMXAYr3upskZArEngPEgFVY2halPLcCtcYqtHFbIymRmKWPzkS8hZXw1B8hzIM79KEACzRxSn4k7dAdujXeAA+FAs+9DkBPHB6M8AYIPRmXNCrYBHAgGWw4q3OFlPWFQm8B42AJOXDiToXEN+2agxdz5XpzclmXomEvMXVEGUrtASXrr/AZev/feYZXYU/eQtix3+tPwjL2qG/PJmkx1w8aQ9rh46Hh2+NJaA/eEqVzQu5YavYm7EnZWDHMTBoYNDQZV8RkMnIA/xMNcp2QOdGynQ9s0rwGfdViI88GV0Zf7axR6vbMWsJ443CKOVR7PdIdvjCPwRikT2S6etih/a7U89pdj+vRELeIsbNKQbiT16iT8/Cn7wFrpZf6w/EPxbj9J/zJzkhT1NtN0S7WDvUkiE2MI+ArpSLPzkS8t7HUR8QfFFNHWvGex8MHDFwBCQZD4UalE1v068ya5Y95OhAjU4Oh2EPGYCrQVfG59YTdKMwxgn5IK3CDjcAVwBOUQiE+R4YYbFXEvJPzrzMK5GQt3l96FXX4U/eJrgjNlMPxncXw/TVQtryJ18qJ6hcix6xBz4GAfMJnLMG9pasmhRigwZ/8t7EVB8IXGZlBsUle8MeRwEBNSCZZFUozFn56TeqVlGjU/wur+FUDLaQPr5MoIz7OLg4ta4J6HklEvI2UcoflDGeYiUjGu9mV2lmpEoD8SiNsr/wwSp5bTYX+M3UA7JUXb+TF3/yuDVSiilLgb80fA1AJeQXT2xZRTzgT96bcKsBwNd8xqGM9yYAOEqgCaglO1muxyMquSjis9Mx613AxCJhSiYiFOV3vPxHAMq4/2KKM7JPQM8rkZB3yFQf0ZC1oGczQ1Zi3mFT2JwJKDs0+JPjcggCAfVgKktgMFXT/YirgT/4jLvPGkcAAZ2AUsbPsZCBteI6Hf//DGXc/zHGGdonoPJKJOQdstRHNK6yjxwS8g4hHthcJeTwJz8ABf/0LQE8oPY2tFDGe8sbRwOBgwQwAHmQRvD+DWU8eDHHGXdOQOWVSMg7Z2ftIT5y74s/ea5Gl8VHDv7kXZHEA3NX2LCT4QTwoOpuAKGMu8sXrYPAcQQw8HgcHf9/B2Xc/zHGGTpPAAl5l0zT7E8+ma7SJV4L+sGpEl2aamAteRcs8eDcBTTsYjwBPLC6G0IM9LnLF62DwHEEMOB4HB3/fwdl3P8xxhk6TwAJeZdMpWR9PNK0Q/s9+5O/lalRdjxFI1zkLRlHcZJOseoP0D+tJOmvc+xPzkWXdtgKTTzK8QIBvxHQH1zhT95dhNXAXn13z2pAqqjfXqiTvDf4kwL7235THKVCKdndAbAXCIBASwIYaGyJyNcbQBn3dXhxci4TQELeJWDxJxcvOam6/unZJZKqyai63iVM3k09UKviS3eWYvRFfsJKyMu1CHuUo/pq93Sxp1cJ6A+w8CfvLlJqQG9jq2418PSXBH0xP0ziM77HGflWPWLZnFV2It0dAHuBAAi0JKAPMMJfvCUyX20AZdxX4cTJ9JgAEnKbwFV1PKmaPDZQJ/iT2wOqHqwfLIfo28IgPVhJ0cJGkjaqUWqI1IUXCPiQgNgBXc+sWf7kYgeUk5oUsAFqGWl9IE/5iz9eT9N3i01FfJfvG7h3tESJDUCgawL6wOJptoWVmYKwdewaqVE7Qhk3KlzorEcJICG3GRj5QwR/cpsQD+yuHrCL63W6V6jT95Y/+TiJPzkerA+Awj99RSAV26UTyRq9yTNtPjy9QaKU504M0lAq5qvzdPpk1ACezKyp1HYtRfxmcYwerw/S+nacRBFHMu40dbQHAq8SgDL+Ko+g/QRlPGgRx/m6QQAJuUNUdaUc/uT2wKoHbfEnl6mnD56n6Hklbk09tdcy9gYB7xGQJTAR/u/cSIn+cGaJ3slWrYRcFCYo5a/HSw3cqSUuShl/tJbGWvHXceETEHCFAJRxV7Aa0yiUcWNChY4aQAAJuUNB0pVy+JPbA6seuPNrO1Zxpu8KCbopRZlYKccLBPxIQJLy85yQf7xfkwJTPo+Oshqwe00Z5yKQa/vK+NF74xsQAAEnCEAZd4KiuW1AGTc3dui59wggIXc4JqKUH/Qnz8Cf3BZheeB+mN8gUcqtqah44LbFEzt7mwAecI+PjxqogzJ+PCd8CwJuEoAy7iZd77cNZdz7MUIPzSOAhNzhmA2yP/nJQfEnr9BvTm/SZfiT2yKsEvICK+WifGFKqi2c2NnjBPCge3yAoIwfzwffgkAvCGDgsBeUvXsMKOPejQ16Zi4BJOQOx06s0GKWP3mZ14Iu09vwJ7dFGA/gtvBhZ0MJtPvAqxRj5b9t6Om23W11P8Ca8baRYUMQcISALKmRAcORgRrXuiizK8QqoZq6I2iNaQTKuDGhQkcNIqCWPCMhdzho/DeLQpyUXxB/8nPwJ7eLVyUcmKJqlyT2N4lAu0q5SlCV/7ZJ59hNX9UDofiLYwlLNwSxDwh0TkAVnZSBwmtTa1bxyVFOzOEz3jlLk/eAMm5y9NB3rxJQRcGRkLsUIQUY/uTOAFaJhyTmYm8kVdc/mztpTWHfa4RgbeQMZrTiMQJKKRefchnsG2YbtNyJFNuhxa2ebmzVKP98i4KSkKvwSHHHb6TIYwlFHhUTvIOA0wTUwKDYMob5BiSKuNgynnqjah2qeT+CPaPT3L3WnhoIXefnr8LKFj3b2KPV7Zj1/HWjMGrZ0nqtz+gPCHidgFLGz7OA+252lZCQuxQxHfQM/yEbiEdplG2MMuP8QJ2Ev3An6HWl/MfFOP1jfoIeraepuhOm3T1JV/ACAX8R0B+I49HwCxs08deu7e5RpbpLtR3+gV8N/r8gvLbrEVRTD0KgcY59JaAPCIoiPjsds5Rx6Vgs8vJ+1NeO4uCuEoAy7ipeNB5QArpwi4Tc5QtBBw5/cnvAlVJ+dylENxbSdJ+V8sXSAJVqUXsNY28Q8DABNWX04LDTniTfMjuE+91g/bwhGTpeIAACIGCTgBoIPMfKDdaK24Rp8O5Qxg0OHrruWQJHCbZIyF0OmQ4e/uT2gCulvLBWpzuFOn2fT9DXhTFMmbKHFXsbQECS8oMJuZV+7+fgSMUNCCC6CAKGEFDKuCy5w1pxQ4LmQjehjLsAFU0GnoAu1E7wzKMsz5xGQt6jS0MC8F52ja7lqnQlFyP4k9sDr+zQ4E9ujyP2BgEQAAEQAAEhAGUc14EQgDKO6wAEnCegC7T6UmYk5M4zP7RFKYoykRJ/8i36cGaTrmQaWEt+KKn2PlQJOfzJ2+OFrUAABEAABEDgOAJQxo+jE5zvoIwHJ9Y4094QCPEUxxy7VFzn4m1HFftGQt6bWLAVGlHEskMr0Sdn2Z88W7OmKIxwkbdkPEJRLo6CV/sE1FpyVXUdNkjts8OWIAACIAACIKAIQBlXJIL9DmU82PHH2TtPQJYZJlmQHUvW6SILsr+b2SBRxuWVZtecg0W+kZBbWHrzP5KUX+A1WX+EP7lt4GotuSTk+edlWmYbjrXtuGXDATsk23jRAAiAAAiAQEAIQBkPSKBbnCaU8RaA8DUIdEBAkvEQC7G5oW0ujrlG77AQOzsdpYmhpgAbFdecA4IsEvIO4Dqx6VGL+aGUd0dXV8ofriTpb/Mn6fFamuq7IdrlKtR4gQAIgAAIgAAIvEoAyvirPIL6k1LGF9frdJ+L5YrAIVayC5tJgs94UK8KnLcdAiLApqKijNcsZfy3ZzZotsVSZSTkdoh3sW+rRf3wJ+8Mqq6U31uO0Y3imKWU/7Ido232KMcLBEAABEAABEDgVQJQxl/lEdSflDL+YInoZn6Q5tYTtFWP0GY1SquVOFV2IkFFg/MGgY4JNJcoEyvjFfo1K+NvZ6s020YxbyTkHaN2ZgddKYc/uT2uSil/+Izox6UkPWB/8ifrg7TOSbnYM8MWyh5f7A0CIAACIOAPAlDG/RFHu2ehK+O3F2P0/fIbtLCRtBLy+i4EDbuMsX+wCChl/ESqqYx/xGvG2y3ijYS8T9eKrpTDn9xeIJRSbk25Ktboh0KclfJx6w/LDk+92kNGbg8w9gYBEAABEPAFASjjvgij7ZPQlfEHKylaLCVog5VxmbK+hyV/thmjgeAQ0JXxd1gZ78TmGgl5n68VpZSLP3k7Uxr63F3PH14p5XcWw/Tl/DDd5zXlz8oJKvP0K7xAAARAAARAIKgEoIwHNfKvnvdLZXyH7hVqJMr4D8sjB5Rx1N55lRh+AoHjCUgyPsjV1Mf314x3ooyrlpGQKxJ9ehd/chXAdhb996mbxhxWKeXiT347X6fv8qKUj1GBi5PgBQIgAAIgAAJBJQBlPKiRf/W8lTJ+X9aML6TpAQsXi6UB2qwpZfzV7fETCIDA0QSayrhUU5c14+tcTb0zZVy1jIRckejTu4xDSln86eEKvZ9bpWtcFv9iNkZTI7FXyuH3qXvGHlbs0B7mN+h2MUw3OSF/vDZo2aKhOImxIUXHQQAEQAAEOiQgzxgDXO13lJWbcyNltt9ZpdPsgyt2O2NDCcqdGKQh9sPFy/8EXijjLFjcZWX81mKclfHmmvEKzyKU5X14gQAItEdA5W8HlfEPZzbbXjOuHwUJuU6kDz9LUIcTdcoNb1vl8a/nyvTmJL1iGN+Hbhl9SJWQi1IOf3KjQ4nOgwAIgAAIdEFAPTBm09v0K672e26kRKMDNTo5HLYScUnIk4kIRSMo3tUFXuN2Ucr4vUWir56KMp6ylvRZyjivF5cCuHiBAAi0RyDMYmos0lTG/21qnd7O1DpaM64fBQm5TqRPP0tQZfr6+dES/e7Uc5qdqlN2PEXwJ+8uIGotuSTmldouzbONB5Ty7lhiLxAAARAAAbMINKv97ljK+MXxCsmaxlNvVK2TGGZFHMq4WfG009tXlfE6/ViM0X8tjVCeq6lXuZK6FHDDCwRAoD0CzYFOXjMe36GJVJWF1Ar95vQmXZ5q2BJSkZC3x9/1rcIc4Ui4YSXkn5xZpjdPbNFAPEqjPIKd4cQc/uSdhUCtJZeEPP+8TMsbe1DKO0OIrUEABEAABAwkoNY0ZnlN479NrvGaxhrNTscsZVxOJ8aKOJRxAwPbZZdfKuMh+pKV8ftsC/tsK04lXjMuldShjHcJFrsFkoDka0oZ/9WU+IzX6DIvNc6MRm0tNUZC7rHLSVVdF6V8bKBOEzy1DEp590HSlXLxJ/9s7iSvKU/TLv4QdQ8We4IACIAACHiKgKqiLrPtZID/NCviotzMZvagiHsqUr3pzOvKeJy+XWRlnIvc1nZDUMZ7EwYcxScERBmXaeqD8V1SPuO/OcXKeMaeMq7wICFXJDzyrvuTz3DxFSjl3QdHV8qliMnfn56wEvLqDoqYdE8We4IACIAACHiJgKqiLsq4PDzKWvGrrIxnRbnBWnEvhaonfTlUGWcb2BIXcIMy3pMQ4CA+IhCx1ozz4CbX+/rV5Dq9xWvGL+fsK+MKERJyRcJj77pSLn9Qz2aGrCnsHuuqEd1RSvm9pRB9nR8kUcoXS0kqVaOEOiZGhBCdBAEQAAEQOISAUsbPjaKK+iF4AvfRQWX8TmF/zfjiKJTxwF0JOGEnCMgSIEsZ55lHE4O8Znx8iz44XbK9ZlzvGxJynYhHftaV8qs8JQIJeffBUUp5Ya3Odh91+r6QoBuFMesPlKyfQlLePVvsCQIgAAIg0D8CShmXpW6oot6/OHjlyEoZv7vIa8bnec34fjX1MpRxr4QI/TCIgCz/ib+opr7Gynidrog9tc014zoCJOQ6EY/9PM1Tzyx/8lyViwbEHb8APHa6rndHKeXiT/753BtWcZOVSozgT+46ehwABEAABEDAQQJQxh2E6YOmlDJeFJ/xvCjjvGbcqqY+QHWpps51c/ACARBoj4BSxtNWNfWaZUv9wakSXbJZTf2ooyMhP4qMRz6XC2GKPUQvcdX1960LAf7kdkKjlPI8/8G6vVCn71gpv1kcpQIXOcELBEAABEAABEwhAGXclEj1pp8vlPFiiP71dMgSHJ5zNfVybX/NeG+6gaOAgC8IiDKeiMiacXGrkDXjdauautPKuIKFhFyR8Oi7uiBkKtrvZ57RVb4gUHXdfrDEDu1hfoNEKYc/uX2eaAEEQAAEQKA3BKCM94azKfEVKL0AAEAASURBVEc5qIzfUcr4/prxOldT38OaPFNCiX56gICyjRRB9CSvGX+T14z3QhBFQu6B4B/XBTVl4gIn5J+cXbamTKDq+nHE2vtOJeQFVsrXtuP0iG3QvhGlnAu94QUCIAACIAACXiUAZdyrkelPv5QyfoeV8S/mmsr4SoWV8ToXrUWNnP4EBUc1lkBUlPHoLk2zMn7t5C8shIrPuPtLhpGQG3LJ6FXX4U9uL3BqLbkk5pXaLs2vy9T1MbZDG7QSdKwpt8cXe4MACIAACDhLAMq4szxNb01Xxn8oxK0leOIzLuvFJRnHCwRAoD0CShkfSogyvs0CaIXey5Xo4lRvlgojIW8vTn3fSq+6Dn9yeyFRa8klIc8/L9Pyxh6UcntIsTcIgAAIgICLBKCMuwjXwKZ1Zfwe27keVMYNPCV0GQT6RkCU8SRbm4ky/o4o41M1utQDZVydMBJyRcKQd10phz+5vcDpSrn4k//lyaQ1hR1Tveyxxd4gAAIgAAL2CUAZt8/QTy3oyrjYuH5THLFsXKGM+ynSOJdeEBCPcanXNWQV0ZY14xW6Ps3K+GRvlHF1jkjIFQlD3nWlHP7k9gKnK+U/FBP0t7mT9Hg9zTYhKIZijy72BgEQAAEQsEsAyrhdgv7a/6Ay/vnc8L59q6wZj2Caur9CjbPpAYEYV1JP7Svjb7MyPjtVbyrjI1FKxiMUjYR70AsiJOQ9wez8QUQpb/qT11wxqHe+x95uUSnldxbD9NW+XchyOWH9gfN2z9E7EAABEAABPxKAMu7HqHZ/Tocr46P7yjghGe8eLfYMIAElcMqacUnIZSnw9VyZ3uyxMq7QIyFXJAx7H+SpFZNcjl/8yT84XaLLLhnVG4al6+4qpVyqrt9m25DvuTjKjcKY9Yeu60axIwiAAAiAAAh0SQDKeJfgfLrbYcq4+Ixv7UAZ92nIcVouElBLgKdZ4JQp6yeHw3QxG6OpkVhPlXF1ikjIFQnD3iO85kGmWZwfLdMfzixbhvXwJ7cfRGWHBn9y+yzRAgiAAAiAQGcEpNKvKDcjAzU6N1Km65lVOs3KjUydHBtKUO7EIA2lYp01iq2NJnBQGRfB4AdrzTiUcaODis73jYBSxiV/eje7ainjXrCTRkLet0vC3oH5bzZJIYLzY2X69OwS/Mnt4Xyxt0rI4U/+Agn+AQIgAAIg0AMCTdsdIlHGr02tcUJeolFOzEW5kURcEvJkondrGntwyjhEGwSUMn6bfcb/+aS5ZnyVfcahjLcBD5uAgEZAKePnR0s0NlAnr9hIIyHXAmXaj169sEzjqPqr1pLDn1wRwTsIgAAIgICbBNRacVnHGObRdlHEPzy9QafeqFqHHWZFHMq4mxHwZtuvKuM79H1e+YwP8Hpx9hn3ZrfRKxDwJAGvKuMKFhJyRcLQd69fYKZhVWvJ4U9uWuTQXxAAARAwk4BaK57ltYwy+00U8dnpmPUuZxTjKr9Qxs2MrZ1ev1TGwy+U8ZVKjCpSTd1Ow9gXBAJIwOsCJhJyn1yU+oUGf3J7gdWV8p9WkvQZ+5OLHdruHuzQ7NHF3iAAAiAAAkoZP8drGbFWHNeDUsR3dvYsGM829+j2AivjXGT2ZlGKzIoyztXUgQoEQKBtAqYIl0jI2w6ptzfULzj4k9uLl66U316M0+cLJ+gRJ+QyOi0e5XiBAAiAAAiAQLcElDIuaxmxVrxbiv7ZTynipa26dVJz6wn6x77P+CqUcf8EGmfSUwK6YOmVNeM6BCTkOhHDf5YLT/mTX+by/ZnR3hrbG47vte4rpfz+Uoi+KQzS/ecpKmwmabMWhefna7TwAQiAAAiAQCsCUMZbEQrW90oZX9+sUmFli55t7NHqdoweraXpptivlpL8vAFdPFhXBc7WLgFdqBSfcS9UUz/qvJCQH0XG0M/Fn/yk5U9eod+c3oQ/uc04KqW8uF6nu/v+5DeL47TASfmeTB3D30ibhLE7CIAACASLAJTxYMW71dkqZXyNE/Lt2g6JMn6DE/FHa4Mk1dQr7DOOFwiAQGcETFHG1VkhIVckfPIuVmixCNuh7fuTv52pEfzJ7QdXKeXiT/7FfNN2ZEVsR3j6Ol4gAAIgAAIg0IoAlPFWhIL1/XHK+I1C02c8WERwtiBgn4Bpyrg6YyTkioRP3mVlc4iT8guckH96Dv7kToVVKeX5tR0uslKn7woJLrIyak1fd+oYaAcEQAAEQMC/BKCM+ze23ZwZlPFuqGEfEDiegGnKuDobJOSKhM/eTb0gvR4GsUN7mN8gUcql6uljnlK2to0pZV6PG/oHAiAAAv0iAGW8X+S9eVwo496MC3plNgFTlXFFHQm5IuGzd9MvTK+GQyXkBVbKJRGXoivfiFLORVfwAgEQAAEQAAGdAJRxnUiwf4YyHuz44+zdIWC6EImE3J3rwjOt6hco/MnthUatJZfEvFLbpXkuvgKl3B5T7A0CIAACfiQAZdyPUe3+nKCMd88Oe4LAUQT8IkAiIT8qwj75XL9Q4U9uL7BqLbkk5PnnZVpmexIo5faYYm8QAAEQ8CMBKON+jGr35wRlvHt22BMEjiKgC49e9Rk/qv/qcyTkioTP3+WCfS+7RtdyVbqSgz+53XDrSvkD9if/y5NJerw+yHZoIdih2QWM/UEABEDAUAJQxg0NnEvdhjLuElg0G2gCuuDodZ/xVsFCQt6KkE++T8V26USyRpcmtuijmQ26kmlQZjxFQ8mYT86wt6ehK+U/FuP0n/MnOSFPU203RLt7Uu8eLxAAARAAgaARgDIetIgff75Qxo/ng29BoBsCflHG1bkjIVckfP4e4vwwwv+dHy3Rp2eX6O0s/MmdCLlSyu8uhumrhTTdZ6V8qZygci3qRPNoAwRAAARAwAACMgQ7EN2lUR74PjdSpuuZVTo9UqVkPEJjQwnKnRikoRQGwA0IpWNdhDLuGEo0BAIvCPhNGVcnhoRckQjAuyTlFzgh/yP8yR2LtlLKper6nbz4k8fpRmGM8puouu4YZDQEAiAAAh4mIMl4KNSgbHqbfpVZ44S8RKMDNTo5HLYScUnIk4kIRSNhD58FuuY0ASjjThNFeyBA5DdlXMUUCbkiEZB3v17I/Q6fskODP3m/I4HjgwAIgEBvCKi14kleEhbmrPz0G1VrSdgpfpfXMCviUMZ7EwsvHQXKuJeigb74hYBflXEVHyTkikRA3v1+QfcrjCohhz95vyKA44IACIBAbwmoteJZLpoqKrko4rPTMetdehJjRRzKeG9j4oWjQRn3QhTQB78R8LugiITcb1dsm+ejX9jwJ28T3BGbqbXk8Cc/AhA+BgEQAAGfEFDK+LlRrBX3SUgdOQ0o445gRCMg8AqBoAiJSMhfCXtwftAvcPiT24u9WksOf3J7HLE3CIAACHidgFLGpUgq1op7PVq96x+U8d6xxpGCQ0AXEE31GW8VMSTkrQj5/Ht1oV/jquuz01HKjEatqrAoPtNd4HWl/KeVJP11jv3J1wZph63QxKMcLxAAARAAAfMIQBk3L2a96DGU8V5QxjGCRkAXDk33GW8VPyTkrQj5/Hu54MeTdbrI/uS/Y3/y2ewe/MltxFxXyu8sxeiL/ISVkJdrEfYoR5VdG3ixKwiAAAj0jQCU8b6h9/SBoYx7OjzonKEElGAoM5HGBurkV2VchQcJuSIR4PcQ+6FND23RB7lVeidXpUvZOE2NQCm3c0kopfzBcoi+LQzSg5UU5TcG6JdqjBoNOy1jXxAAARAAgV4SgDLeS9rmHAvKuDmxQk/NIRA0ZVxFBgm5IhHw9+HEDmWHtunSiS26Pl2ii5MEpdzGNaGU8uJ6ne4V6vQ9+5PfLI7SwkaKdnnaOpJyG3CxKwiAAAj0kACU8R7CNuhQUMYNCha6agyBoCnjKjBIyBWJgL9Hww0SL9ULXDX2v51+RrNTdcqOp2hkKIE15TauDaWUiz/5v+aH6D4r5c+3ErRVj9hoFbuCAAiAAAi4TQDKuNuEzWwfyriZcUOvvU0gqMq4igoSckUi4O88a50ioQZdGCvRJ2eW6U1WygfiURrlhDzDiflQMhZwQt2dvlLKxZ/81kJTKb9RHKPCZrK7BrEXCIAACIBATwhAGe8JZuMOAmXcuJChwwYQCKoyrkKDhFyRwLtFIOi/EG5dBmKH9jC/QaKU3+SEXKqur23HqbIDpdwt5mgXBEAABLohAGW8G2r+3wfKuP9jjDPsPYGgK+OKOBJyRQLvFgH8YrhzIaiEXJRyScQfraXpG15TXihBKXeHOFoFARAAge4IQBnvjpvf94Iy7vcI4/z6QQBCYJM6EvJ+XH0GHFP/BcmyP/nZzJA1hd2A7nuui2otuSTmldouza8noJR7LkroEAiAQJAJQBkPcvSPPnco40ezwTcg0C0BCICvkkNC/ioP/LRPQP9FuZppICG3cXWoteSSkOefl2l5Yw9KuQ2e2BUEQAAEnCYAZdxpov5oD8q4P+KIs/AWAV3487vPeCv6SMhbEQr499NDFXqf/cmvsT/5ZfEnZ6U8GY9QNBIOOJnuTl9Xyh88T9FfnkzS4/VB2oMdWndQsRcIgAAI2CAAZdwGPB/vCmXcx8HFqfWNgC74zYxUUUSao4GEvG+XpBkHTsd3aCrd9Cd//1SJLk3Bn9xO5HSl/MdinP7+9KS1pry2G6LdPS53jxcIgAAIgEDPCEAZ7xlqow4EZdyocKGzhhCAMn54oJCQH84Fn+4TiLA/eSKyR+dHS/T7mWd0NQN/cicuDqWU310K09cLabrPSvlSKUGlWtSJ5tEGCIAACIDAMQTE6lOUmpGBGp0bKdP1zCqdZqVGZoCNsd1n7sQgDaVg93kMQt9+BWXct6HFifWRAJTx4+EjIT+eT+C/lYeWsPiTc0L+ydllugh/ckeuCaWUS9X1O4U6fZeP043CGOXhT+4IXzQCAiAAAkcRkL9rEf5PlPFrU2uckJdolBPzk8NhKxGXhDyZwNKso/j5/XMo436PMM6vHwSgjB9PHQn58Xzw7T4B/CK5cykoOzT4k7vDF62CAAiAgCKg1oqnYrs80EyWIv7h6Q069UbV2mSYFXEo44pW8N6hjAcv5jhj9wlAGW+PMRLy9jgFfiv8QrlzCaiEHP7k7vBFqyAAAiCgCKi14lkuVsr5uKWIz07HrHfZJsbFSqGMK1rBe4cyHryY44zdJwBBrz3GSMjb44St9gnov1jwJ7d3aai15PAnt8cRe4MACIDAUQSUMn5uFGvFj2IU5M+hjAc5+jh3twhAyOuMLBLyzngFfmv9Fwz+5PYuCbWWHP7k9jhibxAAARA4ioBSxqU4KdaKH0UpuJ9DGQ9u7HHm7hHQBbyg+4y3Io2EvBUhfH8oAflFez+3Rtey7E+ei1EG/uSHcmr3Q10p/2klSX+bO8n+5Gmqsx2aeJTjBQIgAAIg0D4BKOPtswrillDGgxh1nLPbBHThDj7j7RFHQt4eJ2ylERjkojgTgzW6xFXXpSjO5UyDMuMpGkrCJkZD1daPulJ+dylGXxfHLX/yjWqUqjvhttrBRiAAAiAAAk0CUMZxJRxHAMr4cXTwHQh0RwDKeHfckJB3xy3we0mFWvEov8Br8j4+u0RvZ2qU5YR8ROxi2Mc1ysVx8OqcgFLKf1om+mEpRQ/Yn3z+lxStb8eo0SDi/8cLBEAABEDgGAJQxo+Bg68IyjguAhBwngCUcXtMkZDb4xfYvWUCtXi5ypq8P55bgj+5Q1eCUsqL63W6X6jRD8U43WSlfGEjSTt7MnXdoQOhGRAAARDwKQEo4z4NrEOnBWXcIZBoBgQOEIAyfgBGF/9EQt4FNOzykgB+AV+ycPJfSim/sximL+eH6T6vKX9WTlC5HnHyMGgLBEAABHxDAMq4b0LpyolAGXcFKxoNOAEo485cAEjIneEY2Fbwi+hO6JVSLv7kt/N1+i4fpxvFMSpsJt05IFoFARAAAcMJQBk3PIAudx/KuMuA0XwgCUCYcybsSMid4Rj4VvRfSPiTO3NJiB3aw/wG3S6Geer6GD1eG6S17ThVdqCUO0MYrYAACJhOAMq46RF0t/9Qxt3li9aDSQCCnLNxR0LuLM/Atqb/YsKf3JlLQSXkopRLIv5oLU3fFEepUIJS7gxhtAICIGA6ASjjpkfQ3f5DGXeXL1oPJgFdiIPPuL3rAAm5PX7YWyMgv6DvZdmfPFelK/An1+h0/qNaSy6JeaW2S/PrCSjlnWPEHiAAAj4kAGXch0F18JSgjDsIE02BwD4BXYCDz7gzlwYScmc4opV9Ain2Jz+RavqTfzSzQVfgT27r2lBrySUhzz8v0/LGHpRyW0SxMwiAgF8IQBn3SyTdOQ8o4+5wRavBJgBl3J34IyF3h2tgWxUrNPEov8B2aJ+wP/k7WfiTO3Ex6Er5g+dJ+uvcJE9hH6TdRog9ysWIDi8QAAEQ8DcBudMNRHdpNFmjcyNlup5ZpdMjVUrGIzQ2lKDciUEaSsX8DQFndywBKOPH4sGXINAVASjjXWFreyck5G2jwobtEpCkXBJy+JO3S6z1drpSfmsxRv98OkGP1wepwlZoO3vh1o1gCxAAARAwmIAk4+FQgzLpbfpVZo0T8hKNDtTo5HDYSsQlIU8mIhSN4H5ocJhtdx3KuG2EaAAEXiMAZfw1JI5+gITcUZxoTBHAL64i4ey7UsrvLYXoZn6QHjxPUZELvG1Wo9Rw9lBoDQRAAAQ8QUCtFU/ykiiZgXX6jSrJkqhT/C6vYVbEoYx7IlR97QSU8b7ix8F9SgDKeG8Ci4S8N5wDdxT8ArsTcqWUF9brdJf9yb8vsD95YZzy7E/e4IwcSbk73NEqCIBA/wioteJZLhoqKrko4rPTMetdehVjRRzKeP/i45UjQxn3SiTQD78QCPGU11y6Qtezq3SeZ76ODdQJ1dTdiS4Scne4otV9ArpSDn9yZy4NpZSLP/nnc2/QfVbKVyox+JM7gxetgAAIeICAUsbPjWKtuAfC4dkuKGV8kQeq7xfqVvHT3b0QLfBA9Y3CqDVg7dnOo2Mg4FECUqR5LFmniye26Hc8I0mqqcsrzTOSMuMpGkqiVoeToUNC7iRNtPUaAV0phz/5a4i6+kAp5Xn2J7+9UKfvCmKHxv7k/ACCFwiAAAj4gYBSxkWZwVpxP0TUnXNQyviDJbKWcs2xPegW11aRpVyrlTgGqt3BjlZ9TMBSxnlGkhTNvMbFmWenozQx1KzNEY3yjCQuoolaHc5eAEjIneWJ1o4goJRy9YudGY3iF/oIVp18LHZoD/MbJEr5zeIYPeaq62vbeADphCG2BQEQ8BYBKOPeiodXe6Mr47e52On3y2/QwkbSSsjruyju59XYoV/eJCBLgqRWx0FlfDa7B0W8B+FCQt4DyDgE/4KzTc24TH2ZaE59wS+4M1eFSsgLrJRLIv5oLU3fiFLOhd7wAgEQAAETCUAZNzFqve+zrow/WEnRYilBG6yMy5T1PdiB9j4oOKKxBCQZD7GLRW5om5XxNcu2WJRxCGi9CSkS8t5wxlGsX/QQTQ9t0QfTMgWmShezMZoaiUEpt3F1qLXkkphXars0z1P1oJTbAIpdQQAE+kYAynjf0Bt14JfK+A7dK9RIlPEflkcOKOOSWuAFAiDQLgGxK06xcDaWrFlrxn97ZoNmM2wxibXi7SK0vR0SctsI0UAnBIYTOzQ9XLF+4a/nyvTmJOEXvhOA2rZqLbkk5PnnZauYDZRyDRJ+BAEQMIIAlHEjwtT3Tipl/L6sGV9I04OVJCvjA7RZU8p437uIDoCAMQQkGY/wf7K09NesjL/Ngtlsjgu3YWlpT2OIhLynuHGwWGSPpHLjea6a+7tTz2l2qk5ZHoEbGUpAKbdxeehKufiT/+XJpDWFHXZoNsBiVxAAAdcJQBl3HbEvDvBCGeclWqKM31qMv1gzXuEibjs8TR0vEACB9gkoZfxEqqmMf8TV1K9AGW8foINbIiF3ECaaak0gzOtTIuGGlZB/cmaZ3mQ7hYF4lEY5IcfUmNb8jtpCV8p/KCbob3Mn6fF6muq7spbuqD3xOQiAAAj0lwCU8f7yN+XoL5TxRaKv82m2+0zScpmVcVkzzuvFZfAZLxAAgfYI6Mr4O6yMX4Ey3h48F7ZCQu4CVDTZmoCqui52NmMDdZoYDkMpb42t5RZKKb+zGKavng5Z/uTL5QSVWT3ACwRAAAS8RADKuJei4d2+HFTG74oyXozTd/vV1Ks7UMa9Gzn0zKsEJBkf5Nmq4/trxqGM9z9SSMj7H4NA9kAexKR4hExdfze7SjMjVSjlDlwJSimXquu383X6vhCnG4UxysOf3AG6aAIEQMBJAlDGnaTp37aUMn6PlfGvnsqa8RQr4wkqyZpxKOP+DTzOzBUCTWVcqqnLmvF1rqYOZdwV0B02ioS8Q2DY3FkCulKe5SISZzND1hR2Z48UrNaUHRr8yYMVd5wtCJhAAMq4CVHqfx9fVcbr9GMxRv+1NEJ59hmvsse4WJvhBQIg0D6BpjK+Yynjl3jJ6Iczm1gz3j4+V7dEQu4qXjTeioCulF/lYhJIyFtRa/29SsjhT96aFbYAARDoLQEo473lberRXirjIfqSlfH7XKz02VbcUsbFYxxrxk2NLPrdDwIHlXHxGX87W8Oa8X4E4ohjIiE/Agw+7i2BaZ46836O/clzVbqcjdMU7BZsBUCtJYc/uS2M2BkEQMBBAlDGHYTp46ZeV8bj9O0iK+O89KrGRUqhjPs4+Dg1xwnIPJKDyvhFKOOOM3aiQSTkTlBEG7YJpOM7lElvk0yhee9UiS5NwZ/cDlS1lhz+5HYoYl8QAAGnCIT4idBSxqdW6RwX8xwdqNFJLuaZOzFIY2J7mYhQNBJ26nBox2AChyrjsmaci5NCGTc4sOh6XwiEOSOPRZprxn81tUZvZaCM9yUQLQ6KhLwFIHzdGwJihZZgj/IL/KD2HzPP6GoG/uROkNeV8p9WkvQZ+5OLHZqoDLBDc4Iy2gABEDiKgCgzTWW8TqLMfDTzC51+o2ptPpyKWQn5EL/jBQIHlfE7hf0144ujUMZxaYBAFwREGRer4cH4Limf8d+c2qTL8Bnvgqb7uyAhd58xjtAGAXlokxuHJOSfnF22HtzgT94GuBab6Er57cU4fb5wgh5xQl5htUE8yvECARAAATcIyH09wv+JMv5vrMy8zdV8r07HLGVcjhdjRRzKuBvkzWxTKeN3F3nN+DyvGedq6s/2bTuhjJsZU/S6fwQi/EwdY6ErN7xNv5pct5Txy/AZ719AWhwZCXkLQPi6twT0quvwJ3eGv1LK7y+F6JvCoFUcp8Dr8TbZNgaFcZxhjFZAAASaBNRa8RT73Mp0ydNsa/nh6Q2azfDDIU9RhyKOK+UgAaWMF9mu8y7bdf7IPuPfWtXUB3jQmKupcwE3vEAABNojoAQu8RmfGKzSxfEt+uB0iS5PNSgznqKhJGYktUeyt1shIe8tbxytBQG96jr8yVsAa/NrpZQX1+vWA4/4k98sjtMCJ+UybR1JeZsgsRkIgEBLAqqKepaLdUoqJWvFZ1kZz0mxTqwVb8kvaBu8UMaLIfrX0yFrwPg5V1Mv1/bXjAcNCM4XBGwQkCWg8f014zIz6S1eAnolG0OxZBtMe7ErEvJeUMYxOiagK+XwJ+8Y4aE7KKVc/Mm/mB+2HnxWKnHa4unreIEACICAHQJKGT83WqbrmVVLGU/GI1bRNijjdsj6c9+DyvgdpYzvrxmX5VSoceLPuOOs3CGglPG0Usa5ZscHVpFkKOPuEHe2VSTkzvJEaw4R0JVy+JM7A1Yp5XmeGnh7oU7fFRKslI+STF/HCwRAAATsEFDK+HlUUbeDMTD7KmX8DivjX8w1lXEZIC7Xm0upePIWXiAAAm0SOKiM/2pqf804lPE26fV/MyTk/Y8BenAMAVHK38+t0TUuBoRiFMeA6vArsUN7mN8gUcpvFsfo8dogrW3HqbIDpbxDlNgcBAJPAMp44C+BjgDoyvgP1hKqZjV1WS+OJVQd4cTGASfwQhln++CJVM0qigxl3LyLAgm5eTELVI/FrmFSilLw1BvYNTgXepWQF1gpl0T80VqavhGlvASl3DnKaAkEgkEAyngw4uzUWerK+L3nKTqojDt1HLQDAkEgoGyDc8PsZmFVU6/TZSjjxoUeCblxIQtWh6VCb4yLU8gUyI/PLFu2DVmuEjkylCBZmxhl2xy8Oieg1pJLYl6p7dL8ukxdh1LeOUnsAQLBJQBlPLix7+bMoYx3Qw37gMDhBJq2kg0aEmWchas3uZr6+9aacUI19cORefpTJOSeDg86JxV65aYj/uSfnluCP7lDl4RaSy4Jef55mZY39qCUO8QWzYBAUAhAGQ9KpJ05TyjjznBEKyAgBKJcTT3JBdymWRl/++QvdHWqxsp4HNXUDb08kJAbGrigdVuvug5/cmeuAF0pf8BTB//yZJIerw9yhVus5XOGMloBAX8RgDLur3i6fTa6Mv49FxP9pjhCeS4mijXjbtNH+34joJTx4cQOTaa32We8QtenS3RxEsq4ybFGQm5y9ALUd73qOvzJnQm+rpT/WIzTf86f5IQ8TTW2ndndkzkKeIEACIDASwJQxl+ywL9aEziojH8+99Jus8x2myjg1poftgCBgwQOKuPXWBmfzdTokijjI1Es5TwIyrB/IyE3LGBB766ulMOf3JkrQinldxfD9NVC2vInXyonqFyLOnMAtAICIGA8ASjjxoewpydwUBm/zT7jP1jKuKqmTkjGexoNHMx0AuFQg6SAm6wZn0rLmnEo46bH9GD/kZAfpIF/e56ArpTDn9yZkCmlXKqu3+EHp+/YhuZGYcyaUujMEdAKCICA6QSgjJsewd72Xynjt9ln/J9Pmsr4KvuMb7G9JpTx3sYCRzOfQCyyR6kDa8Znp+pQxs0P64szQEL+AgX+YRIBUcrfy7I/ea5KV3Ixyoxiqo4T8VN2aPAnd4Im2gABfxCAMu6POPbqLF5Vxnfo+3ycXTxEGR/gRJxrk/SqIzgOCPiAgBKihnjNuCTksmTzeq5Mb2LNuA+i+/IUkJC/ZIF/GURAbkoTqSpdYn/yD2c26UqmAZsHB+KnEnL4kzsAE02AgE8IQBn3SSB7dBovlfHwC2V8pRKjiqwZ71EfcBgQ8AsBtVRzmoUombJ+cjhMF8VnfCSGNeN+CTKfBxJyHwUzSKeiqkyKHdonZ5fp7WyN4E9u/wpQa8nhT26fJVoAAZMJyD1WlJmRgRqdGynT9cwqnWZlJhmP0NhQgnInBmkoFTP5FNF3hwm8oowvsDLOS59uFmXpkyjjvGbc4eOhORDwMwGljJ8fLdO72VVLGR+IR2mU77+Z8RQNJXH/9VP8kZD7KZoBOxflT/5H+JM7Fnm1lhz+5I4hRUMgYByB5oAnkSjj16bWOCEv0Sgn5qLMSCIuCXkyEaFoJGzcuaHD7hF4oYwXwvSP/Wrqq1DG3QOOln1NQCnj51l4GhuoE+x+fR1uKOT+Dq//zw43LHdirCvlP60k6a9z7E++Nkg7bIUmHuV4gQAI+IuAWisuS4LC/CsuiviHpzfo1BtV60SHWRGHMu6vmNs5G6WI7+zsWc0829yj26yMS1HQpjKeZGUcurgdxtg3eASgjAcv5nLGUMiDGXffnDVuXO6EUlfK7yzF6Iv8hJWQl2sR9iiHMuYOebQKAv0joNaKZ3mtogy5iSI+Ox2z3qVXMVbEoYz3Lz5eO7JSxEtbdatrc+uJV5TxLV4zjhcIgEBnBCA0dcbLL1sjIfdLJAN+HvoNDP7kzlwQSil/sByibwuD9GAlRfmNAfqlGoNtjTOI0QoI9J2AUsbP8VpFrBXvezg83wGljK9vVqmwskXPNvZodTtGj9bSdFPsMktQxj0fRHTQcwQgMHkuJD3tEBLynuLGwdwioN/I4E/uDGmllBfX63SvUN8v0jNKCxsp2hX7GsxGdAY0WgGBPhJQyrisVcRa8T4GwpBDK2V8jRPy7doOiTJ+gxPxR7ykSXzGK+wzjhcIgEBnBHRhCWvGO+Nn+tZIyE2PIPr/CgF1QxN/8ln4k7/Cxs4PSikXf/J/zQ/RfVbKn28lCFMS7VDFviDQXwJQxvvL37SjH6eM3yiIz3jStFNCf0Gg7wR0QUl8xlFNve9h6XkHkJD3HDkO6CYBKUY0nqzRRfYn/+2ZDZqFP7kjuJVSLv7ktxaaSvkNtrMp4AHMEb5oBAT6QQDKeD+om3tMKOPmxg499y4BJSShmrp3Y9SLniEh7wVlHKNnBKQQUSjUoAu8FvJTtkN7B/7kjrIXO7SH+Q0SpVyq6ErV9bVtTFF0FDIaAwGXCUAZdxmwz5qHMu6zgOJ0PEEAyrgnwuCZTiAh90wo0BGnCEhSfn6sRP8z/MmdQvqiHZWQi1IuibgU8fmmOEoFLuKDFwiAgBkEoIybESev9BLKuFcigX74iQCUcT9F0/65hE7891JDPIVRm8k+TLTgHQK40bkTC7WWXBLzSm2X5rmYD5Ryd1ijVRBwmgCUcaeJ+rs9KOP+ji/Orj8EoIz3h7vXjxrK/G8bjTp7CkvFZLxAwC8EcMNzJ5JqLbkk5PnnZVpmuxso5e6wRqsg4DQBKONOE/V3e1DG/R1fnF1/CEAw6g93rx819Ov/Y7mxVE5QuRb1el/RPxDomABufB0ja2sHXSl/8DxFn82dtKawWzNuMOWmLY7YCAR6QQDKeC8o++cYUMb9E0uciXcIQCjyTiy82JPQ//J/PWh8lR+DXYUXo4M+2SaAG6BthIc2oCvlPy7G6R/zE/RoPU3VHZ5xs4cZN4eCw4cg0AcCUMb7AN3gQ0IZNzh46LpnCUAg8mxoPNGx0P/5//xX40ZhjJWtQVqtoFqyJ6KCTjhOQL8RZkejdDYzRKNDCcePFaQGlVJ+dylENxbSdJ+V8sXSAJUw4yZIlwHO1aMEoIx7NDAe7RaUcY8GBt0ymgCEIaPD17POh/7v//F1Y3U7Zk01vVEYhVLeM/Q4UC8J6DfEq+xPjoTcfgSUUl5Yq9OdAvuT5xMk/uT5zRQ1Gpi3bp8wWgCB7glAGe+eXRD3hDIexKjjnN0moAtCE8Nhyo6naIQFoWQ8QtFI2O0uoH0DCIT+x/97s7Fd26E5rpYMpdyAiKGLtghMD1fog9wqXctV6VI2TlMjUdwQbRFt7qyU8lvsT/753BuWUr5aiVFlJ+JA62gCBECgEwJQxjuhhW2hjOMaAAHnCehC0MxIlQbiUWtmZoYT8qFkzPmDokVjCYQ+v3mnUVjZomdcLRlKubFxRMfbJDCU2KHsUIUundiid6fLdHGSCDfGNuEds5lSyvPsT35roamU34Q/+THE8BUIuEMgFAqRpYxPrdK50RKNDtToJCsyuRODNCaKTAKKjDvkzW0Vyri5sUPPvUsAyrh3Y+PFnoVu33/UKHJCvsY2RqKUyxrQP/98kh6upQnVkr0YMvTJDoFouEHJ2C6d5wfVfz/9nGan6pg6ZAeotq/YoT3Mb9BtVsrhT67BwY8g4CIBzsOpqYzX6SIPOH408wudfqNqHXE4FbMS8iF+xwsEFAEo44oE3kHAOQJQxp1jGaSWQo9/ftKo1HZpnR+kRSm/VYzRX+e4WjIn5FXxJ0e15CBdD74/V3lojYQadGGsRJ+cWaY3+cEVU4icC7tKyAuslMOf3DmuaAkEjiOg7msy++ffJtfo7WyNrk7HLGVc9ovxGkUo48cRDOZ3UMaDGXectbsEoIy7y9evrYfm5+etykvqxnxvkeirp2m6h2rJfo05zosJ4IbpzmWg1pJLYi4DfQ9XkvS3+ZP0mAf46rsh2m3ADs0d8mg1iATUWvEUz/qJ8OwfUcR/c3qTZjN7UMSDeEG0ec5QxtsEhc1AoAMCUMY7gIVNXyPwIiFXN+hFVrbuFmr0HVdLFn/yhc3kazvhAxAwnQBunO5EUK0ll4Q8/7xM95ZjVtV1mXHzC7s5bLNHOV4gAALOEFBV1EUZl6EuWSsuyrjYOkIRd4axH1tRAoxaqoiivn6MMs6p1wQg9PSauL+O9yIhV6clN+ifi5s8dZ19heFPrrDg3acE9Bso/MmdCbRSyh8+I/pxKUkPeMbNk/VBWuekXNzQYIjmDGe0EkwCShk/N1qm65lVOs3Ve8U+R4q2SfE2rBUP5nXR6qyV8KKWKKKYbyti+B4EWhOAwNOaEbZoTeDIhFzWgKLqemuA2MJsAvqNFP7kzsRTKeWL63W6X6zRD4U4K+XjtLCRpB2uS7GHjNwZ0GglkASUMi7FKVFFPZCXQFcnDWW8K2zYCQSOJaALO/AZPxYXvjyCwGsJOW7YR5DCx74mMM1TPt/f9ye/LP7kMuWTFacoF0PCq3sCSim/sximL+eH6T6vKX9WTlC5Dn/y7qliz6ASgDIe1MjbO28o4/b4YW8QOIyALujAZ/wwSvisXQKvJeS4cbeLDtv5iUA6vkNT6W3Ln/z9UyW6NAV/cifiq5RymXFzO1/n2hSilI9RAbUpnMCLNgJGAMp4wALu0OlCaHEIJJoBgQMEoIwfgIF/2ibwWkKuWtRv4LIG9M9P2J98NW1VSpZ1oHiBgF8ISIXiRGTP8if//cwzupqBP7mTsVV2aPAnd5Iq2goKASjjQYm0s+cJgcVZnmgNBIQAlHFcB24QODIh12/ktxdj9Pf5CXq4NkgVnm4q60DxAgG/EBAf37D4k/OazE/OLtNF+JM7GlqVkMOf3FGsaCwgBKCMByTQDp+mLqygmrrDgNFcIAlAGQ9k2F0/6SMTcnVkdUO/v0R0c6HpT17YHKDNahSVkhUkvPuGAG607oRSrSVX/uTz6wm6yVPXH/MA39p2nCo7WFPuDnm0ajIBKOMmR69/fdcFFVRT718scGT/EIAy7p9YevFMWibk6sa+uL5D99if/HvxJy+MWtWSG40QknIvRhV96poAbrhdozt2R+s+Ut0l5U++vLFnJeLiT/5NcZQKpeSx++NLEAgiASjjQYy6/XNWQgp8xu2zRAsgoAhAsFEk8O4GgZYJuTqousHfZn/yfz7hasm8pnylEqctVEtWiPDuIwL6jRf+5M4EV1fKpTbFZ3MnWSlHbQpnCPujlRcLovgfL/594NQGors0MlAjeffzK8uFJuEz7ucIO3tuSkCBz7izXNFasAlAqAl2/Ht19m0n5OpGX3xRLTlBN1gpz6Nacq9iheP0kIB+A4Y/uTPwdaX81mKc/v70hJWQV3naOmpTOMPZ5FZCXNBB5l5JIh7iug7y08sX/8w/TqUr9G+Ta5Yzwsvv/PcvuQ/BZ9x/cXXrjJRwAmXcLcJoN4gEdIEGPuNBvArcP+e2E3LVFbnR/1zcpFuslN8ojNEjXgO6yko51oAqQnj3EwG5Eb+fW6Nr2SpdzsUoA39yR8KrlPJ7SyH6Oj9IopQv8rT1Ui1qtf8yBRM7h1dTMuIkTV4vt7F+bH5mffjye0neDr7kx2aS1/w0zpX10/E6yTte/SegIh2PhiiViFAsErYScNWzZjgbzYR8ap2mBivqK1+/D6dilDsxSEP8jhcI6ASUYAJlXCeDn0GgewK6MAOf8e5ZYs/WBLpOyKVa8up2jBPyNJTy1pyxhaEEBuO7NDlYtaqu/+bUJl3ONCgznqKhJB6M7YRUKeWFtTrdLdTp+wL7k/MAn6wll6TMSrwsdVQUUZWmNY+oEmpJtl9Usdj/dzMBb3DFfKma36yc39yuua9U0o/wf+q7sWSVLoxs0liyZud0sK/DBJoJaIqGU/FXWuaQ8qthTVUfGaj7fsq6OnkZmEjyAEWU3/ECAZ0AlHGdCH4GAfsEoIzbZ4gW2ifQcUKOG3/7cLGl+QQkcYtFGpY/+cdnlumtTI2ynJCPDCUoGccDst0IK6X8/nKUvl0ctVRyycYl8bKmLcu/5Yf9l/qnlZTLd+oLmeIsCbz1wX7Czd9J/NTn8pX8J57zkpjLf2O8DvnC/9/enX+1cWWLHt9CEwLENdhgBnecXGfFUzrOTSfped133+vc9zffODd9+yXpju384CSelx2PEjh2gGYGIfTOKXwcqHgQqIYzfFmrIwNS1dmfXe3y1lbVHlEFef/G8y3xh/wF6AjnnwNWYL8AnXH7c8QK3ROgM+5eznxY8b4Lck4APqSdGLoViIo49R89n/yTf33MfPJu4bp8numUL20Uoruur+8af7a7+202p/Ox+2vP96rANl9R3vQ36g+7nxP9/NnzdPFe6eMj68bMpkc6wjZlg7XYKkCDxNbMsC6XBeiMu5w9d9e+74LchBo/Eei7rn/6w1G5rT7C3vn538Xm6Twi4LQAf0E7nT4WjwACCHgjQGPEm1QSiEUCdMYtSkaASzlwQR4/IXynrgE9f/dodE15WxXkFOUBHk0eh8xf1B4nl9AQQAABhwTiDZH7C3rqDTfZdSiFLNVCARovFiYloCUduCA3RubEcE3ddf2r+8Ny48mAPGU+ueHh0TOB+F/YzCf3LMGEgwACCFgqEG+EPFnc5ua6luaKZbkjQMPFnVz5vNKeC3JzgtDzya81WnK5UZWLzCf3+ZgJOrb4X9zMJw/6cCB4BBBAIDMB0wBhznhm5OwoAIF4o4U54wEk3cIQey7ITUzMJzcSPIYgoP8C/3hKzSef3pAzzCcPIeXEiAACCOQiYBofzBnPhZ+deioQb7AwZ9zTRDsSVuIFOfPJHck8y+xJYKDclrGBDTl1ZFX+cHxJzjCfvCdPXowAAggg8GIBOuMvduGnCPQiQGe8Fz1em7RAYgU5J4ykU8P2bBbQI7OKanyWHof2l7d+lPemmE9uc75YGwIIIOCaAJ1x1zLGel0QoDPuQpbCW2NiBTknjvAOntAj1kW5Lsj/k/nkoR8KxI8AAggkLkCjI3FSNoiA0BnnILBRILGC3AQXP4Ho+eTno/nkg2oUWkEYUW6kePRBgL/YfcgiMSCAAAL2CNDgsCcXrMQfATrj/uTSx0gSL8jjJ5LvZiry+b1xNZ98UFrtgmyropwvBHwR4C94XzJJHAgggIAdAvHGBnPG7cgLq3BbgAaK2/nzffWJF+QGzJxQrs8W5B8P6nLjaU1+XKnKymbJPIVHBLwRiP9Fz3xyb1JLIAgggEAmAvGGBnPGM2FnJ54L0DjxPMGehJdaQW5OLHo++fWmnk9ekQuNUWks1TyhIwwEfhaI/4XPfPKfbfgTAggggMDrBUwjgznjr7fiGQh0KxBvmDBnvFs5npelQGoFuQmC+eRGgscQBMxf/Ho++Vnmk4eQcmJEAAEEehIwDQzmjPfEyIsR2CMQb5QwZ3wPD99YJpBZQc58cssyz3JSEdDzyQ/XNuWkmk/+pzcX5SzzyVNxZqMIIICALwJ0xn3JJHHYJGAaJCfUNJzR/pbQGbcpO6wlLpB6Qc6JJk7O9z4L6FsWFqL55CvyiRqHdo755D6nm9gQQACBAwuYzri+tO9qoyX6mnH9pS/tu9Qc4RK/A8vywpAF6IyHnH13Y0+9IDcnHD6K5e5Bwsr3J6CL8hOjy/J/mU++PziejQACCAQkYBoWV2cK8uW9YXmwUBVdkq+1ijK3VpG1rWJAGoSKQDICdMaTcWQr2QqkXpCbcMyJx9ysJJpPfveo3JkbjEahMZ/cSPHogwAnBB+ySAwIIIBAcgKmQbG1tdMJf7K0LVcfbcm3zYp8M6M74v3SUaNh+fdQcuZsKQwB3QipqUsGR/o35cTIinw0NSdcMx5G7n2JMrOC3JyITKf8+5nyrvnkfdJmPrkvxxRxKAE+MsVhgAACCCCwW8A0JpZXW9GP9XzxL+4Pi25QzK2Vo844xfhuMf6MwOsFdi4VFJmur8tvJudUQc41469X4xm2CWRWkJvAzQlJzyf/+sGQmk8+II+ZT254ePRMgE65ZwklHAQQQGCfAvGGxO754t801TjY5ZrqjFOK75OVpyMgpjN+uNZ6fjPd4/+yEckMDZRl8vCA1GtlpBCwXiDzgtycmGbVTUyuMZ/c+gOEBfYmQKe8Nz9ejQACCLguYBoR5pI93Rm/pArxO/ODXCvuenJZf24CuzvjH6rO+LnpTTVutiRj9b5oTaVSn9QqRSkVd77PbaHsGIEuBDIvyM2amE9uJHgMQSDeKZ8aKclbk3UZqVdDCJ8YEUAAgeAETAPCXKq3uzPOXdSDOxwIOEGBgqrGB0ptGd3VGT87uU1HPEFjNpWtQO4FOfPJs004e8tHIN4pf1fNJ6cgzycX7BUBBBDIQoDOeBbK7CM0AV2MF9X/dKPjN5Pz8p4aL6s745Oq0UFHPLSjwZ94cyvIOVH5cxARSfcCx4bX5HfTc/L+1IacmqrIBCeQ7vF4JgIIIOCAAJ1xB5LEEp0UMJ3xIwOb0TXjfzy+KGdUg4NrxZ1MJ4veJZBbQc4Ja1cW+GMwAvXKlkyqd3VPja3Jx9PLcnJCOJEEk30CRQCBEARoOISQZWLMWiDeGT+nGhtnptWN22hsZJ0K9peCQG4FuYklfuK6pe66fv7uuLrZyVA0Co0bjxopHn0QKPV1pKque3pbzcn89+NP5N2Jlkypu4AeUteS81ErHzJMDAggEKoAjYZQM0/caQvoYnxQzRk/XKMznrY1289HIPeCPH4CuzJblr/dH5Pb6u6jG1tF2dpW/y/kCwFPBHbe4e1EczI/eetHeefIqvRXStHN3fjIlSdJJgwEEAhSIN5g4G7qQR4GBJ2wgPl308414wtCZzxhYDZnhUDuBblRMCeym7MiFxtqPvmTmsyo2ZzLGyVhOqdR4tEXgfhd18eG++iU+5Jc4kAAgaAE4o0F7qYeVPoJNkWBnc74VtQZP6UaGH84vsQ14yl6s+n8BKwpyM0JTc8nv9HclMvNilxUczofLdak0ylQlOd3jLDnFATid10/fmiDTnkKzmwSAQQQSFvANBSYM562NNsPSWB3Z/zDZ3dT55rxkI6AsGK1piA37ObEdnWmIF/eG5ab6pryn9YqstoqmqfwiIA3AvFOOfPJvUktgSCAgOcCppHAnHHPE014mQroC1V3d8ZP0hnP1J+d5SNgXUFuTnAzqlN+tdGSy42qXGqOSGOplo8Qe0UgRYF4p5z55Clis2kEEEAgQQHTQKAzniAqmwpeoE9V5OViJ5oz/sHEvPx6cpO7qQd/VPgPYF1Bbsj1Ce7uzJJcUZ3yS+qj63fUTd7mVKd8Td3ojS8EfBM4pkah/VbPJ5/elNNTZeaT+5Zg4kEAAW8ETOOAzrg3KSUQCwR0Z7yv0JHBSlvMnPHf/2pJTjNn3ILssIS0BawvyJuqUz63Xo7GoNEpT/twYPt5CQyp+eRHhzZE37Tkd79allMTHeaT55UM9osAAgi8QoDO+Ctw+BUCBxQoqmK8XNyW6eF1+eDoQtQZP82c8QNq8jLXBKwtyOMnPD2f/LN7ej75oLTVKLRtdaM3vhDwRaCo5pNX1Ee0Towsy3+o+eT6I1rMJ/clu8SBAAI+CNAZ9yGLxGCbgL5ePOqMqznjY4MbcvKwaky8sSynaUzYlirWk6KAtQV5/MR3Vc0n/+Lhkagg1zd4a7X7UmRh0whkK2BOSCdGVuSTtx6LvokJ88mzzQF7QwABBF4lEG8UMGf8VVr8DoHuBExDQt/k9t+ia8ZbcoZL97rD41neCFhbkBthcwK89Vjkm8ZgdNf1xlK/LG6U1Tg08yweEfBDIH7XdeaT+5FXokAAAXcF4g0C5oy7m0tWbo+AaUQMmc44l+zZkxxWkrmA9QW5ORHOLrTkZrMl3+r55I3D8lDddX1bFeQU5ZkfM+wwRYH4XdeZT54iNptGAAEEuhAwjQHupt4FFk9BoEuB3Z3xDyaeXTNOZ7xLPZ7mm4D1BbkBNyfEa+qu61/dH5Yb6pryp6vMJzc+PPolEO+UM5/cr/wSDQII2C9gGgLcTd3+XLFCdwSed8bVzWzHBjajS/S4ma07+WOl6Qg4U5CbE6OeT37t2Xzyi8wnT+eoYKu5C8Q75cwnzz0lLAABBAITMI0AOuOBJZ5wUxXQnfFqdDd1dc14dDf1FuNeUxVn4y4IOFOQG0zmkxsJHkMQ0J3y307Py/tTG8L4jxAyTowIIJC3gGkA0BnPOxPs3ycB3RnXo830mNdxdTf1d9Td1H8bjXkVxrz6lGhiOZCAswU588kPlG9e5JjAYHSzk81oPvkf3liU05PMJ3cshSwXAQQcE6Az7ljCWK4TAiXdGS+15djwmrw//k95V413PT1VkYmRktQqRSkVmZ7kRCJZZCoCzhXknChTOQ7YqKUCffodZXUSe1uNQ/s/ahzae8wntzRTLAsBBFwXoDPuegZZv40C5t8x9UprpzN+ZE0+nl6WkxN0xm3MF2vKR8C5gpwTZj4HCnvNR0DV46I/5nViZFn+81+ZT55PFtgrAgiEIMAb/iFkmRizFigXOzKgPu2nO+O/HluQdydacorOeNZpYH+WCzhXkBvP+Inzprrr+qc/HJU780PRKDRGlBspHn0QiN91nfnkPmSVGBBAwAYB3ui3IQuswTeBPnW9uP6E33B1SyaGdq4Z/3B6Rd45Smfct1wTT+8Czhbk8RPodzMV+e+7R+X2/KC0twvRjPLeedgCAnYIxO+6znxyO/LCKhBAwH2B+Bv89xeqcqk5qt7gH5S5tYqsbRXdD5IIEMhYoKzupG464+fUNeNnVWf8pJ4zfqjMNeMZ54Ld2S/gbEFuaM2J9LqaT/73BzvzyZ+sVGSlxQnUGPHoj0C8U858cn9ySyQIIJCtQPyN/SeL2zK3Xo4+aXeJsarZJoO9eSNgGgh11RnXBbluINAZ9ya9BJKSgPMFuTmh6vnk1/V88mZVLjRGpLFUS4mMzSKQn4A50Z1QN3n7aGpO3aW0I29N1mWkXs1vUewZAQQQcFDAvKHPnHEHk8eSrRUwjYNjamyr/sj6+HAfnXFrs8XCbBFwviA3kMwnNxI8hiCgT3gfT6n55NMbcma6LJOMDQkh7cSIAAIJCJg38pkzngAmm0DgmUC8YcCldRwaCHQv4F1Bznzy7pPPM90V0B8DOzKwM5/8j8cX5Qzzyd1NJitHAIFMBeiMZ8rNzgIRMJ1xPRVmtL8l3Hw2kMQTZiIC3hTknGATOR7YiCMCehSanu35tjrx/UXNJz83tSlThwfkkProeq1SlFKxz5FIWCYCCCCQjQCd8Wyc2UtYAnTGw8o30aYj4E1Bzok2nQOErdoroItyXZAzn9zeHLEyBBCwR4A37u3JBSvxR4DOuD+5JJL8BLwpyA1h/ISr55OfV/PJ9Ti0TqcgzCc3Ujz6IMCJ0IcsEgMCCKQpwBv2aeqy7VAF6IyHmnniTkPAu4I8fuLV88k/vzcezRNttfV8ctVW5AsBTwQ4IXqSSMJAAIHUBOJv1DNnPDVqNhyQAA2BgJJNqKkLeFeQGzFzAr4+W5B/PKjLjac1+XGlKiubJfMUHhHwRiB+YmQ+uTepJRAEEDigQPwNeuaMHxCSlyGwS4BGwC4M/ohAQgLeFuTmRBzNJ2+q+eSNippPPsp88oQOHDZjl0D8BMl8crvyw2oQQCB7AfPGPHPGs7dnj/4KxBsA3E3d31wTWXYC3hbkhpD55EaCxxAEzInyfXXX9bPHSswnDyHpxIgAAnsEzBvyzBnfw8I3CPQkEH/jnznjPXHyYgT2CARTkDOffE/e+cZTAX3CPFxrycmxVfmzmk9+dmpbJtU4tHqt7GnEhIUAAgjsFaAzvteD7xBIQsC84c+c8SQ02QYCewW8L8g5Me9NON/5L1BQ89CO1Vflt9Nz8v70hpyaqsjEoRLzyf1PPREiELQAnfGg00/wKQnQGU8Jls0isEvA+4KcE/SubPPHYATq1S2Zqq/JqSOr8tGxFTl5VOiUB5N9AkUgTAHegA8z70SdrgCd8XR92ToCWsD7gtykOX6i1vPJP7s7ruaTD0Wj0DoMKDdSWd5FAAAi2UlEQVRUPHogUOrrSK3cFv3Rsn9/46mcnWjJlPro+qF6lU65B/klBAQQ+FmAN95/tuBPCCQlQGc8KUm2g8DrBYIpyOMn7CszZfnr/TE1n3xINtp90t5mPvnrDxee4YqA+tS6FAsdeXt0Wf7y5o/yjuqU91dKMqIKcq4pdyWLrBMBBLoRiL/hzpzxbtR4DgKvFqAz/moffotAkgLBFOQGzZy4b8yKXHg4pOaTD8jscr8sM5/cEPHokQAnVI+SSSgIILBHIP5GO3PG9/DwDQIHEqAzfiA2XoRATwLBFeTmBD47vyXXm5tqPnk1mk/+aKnWEyQvRsBGAU6sNmaFNSGAQBIC5g125ownock2ENgR4I18jgQEshcIriA3xMwnNxI8hiAQP8FOjZTkrcl69BH2EOInRgQQ8EfAvLHOnHF/ckok+QvwBn7+OWAF4QoEX5Aznzzcgz+kyOMn2ncnOxTkIR0AxIqARwJ0xj1KJqFYIxB/435suI+bwVqTHRbiu0CwBTkndN8PbeJ7kcAxNQrNzCc/reeTq055rVKUUrHvRU/nZwgggIA1AnTGrUkFC/FIIP6G/fFDG9wE1qP8EoobAsEW5JzY3ThAWWWyAkOVLZkcWo/mk3/8q2U5NcF88mSF2RoCCKQlwBvpacmy3ZAF6IyHnH1it0Ug2ILcJCB+gr+l55PfU/PJ54ak3SkI88mNFI8+CBTVfPJqcVveVvPJ/9fxJ/LuJPPJfcgrMSDgswBvoPucXWLLS4DOeF7y7BeBXwoEX5DHT/RXZ8vy/x6Mye35QVlrFWWL+eS/PGr4ibMCej55n55Prgryv7z1o5xkPrmzuWThCIQiEH/jnDnjoWSeONMUoDOepi7bRmB/AsEX5IbLnPBvPhb55tHOfPLmUr8sbZSkY57EIwKeCHAi9iSRhIGAxwLxN8yZM+5xsgktMwE645lRsyMEuhagIH9GZU78swtbckPNJ/9WzydvjsijxZr62Lr66HrXpDwRAfsFOCHbnyNWiEDoAuaNcuaMh34kEH+SArwhn6Qm20IgGQEK8pij+QfA1ZmCfHlvWG6qa8p/WqvIqvr4Ol8I+CYQPzEzn9y3DBMPAu4JmDfImTPuXu5Ysb0CvBFvb25YGQIU5LFjwPxDYGZ+S642WnJZdcovqU55Y6kWeybfIuC+QPwEzXxy93NKBAi4LmDeGKcz7nomWb9NAvE34JkzblN2WEvoAhTkLzkC9D8E7s4syRXVKb/UHJU76iZvc6pTvrZFp/wlZPzYYQF9ot6ZT74pZ6bKzCd3OJcsHQFXBcwb4nTGXc0g67ZRIP7GO3PGbcwSawpdgIL8JUeAKcibqlM+t15WBfkQnfKXWPFj9wUG1Xzyo4Mb0Xzy372xLKcnOjJ5eEDqtbL7wREBAgg4IUBn3Ik0sUjHBOiMO5YwlhukAAX5S9LOPwxeAsOPvRQoqlFoZTWf/MTIivzvN3+UXzOf3Ms8ExQCNgrQGbcxK6zJdQE6465nkPWHJEBB/pJs8w+El8DwYy8F1HjyaD75idEV+eStx8wn9zLLBIWAnQK8AW5nXliV2wJ0xt3OH6sPS4CC/DX5jv9DQd91/dMfjspt9RH2DrPQXqPHr10TMCfwY+qa8mJfR4YHyjKlPro+pB756l6gv9iW4epW9ILFjZKst/fee8L8vqqe18vXhtqu3r7+2r2/g34fX098+/HfRzvmPwj0KLC81pLmT6vCnPEeIXk5AkqAzjiHAQLuCVCQvyZn8U75d82KnL97NLqmvK0Kcory1wDya6cEzIm8rorJ/lJbahWRgWpRSsU+6Yjuo4v6r/rTzh+dii3LxY4PbMjZI4vRLq8+HZYfV6t7dm9+rx97+dLb1dvXX7v3d9Dv4+uJbz/++2jH/AeBHgVa7W1Z39yS+wt6qgk3Ue2Rk5cHLmDeWD8xsiyj/S3hbuqBHxCE74QABXmXaTKd8mvqrutf3R+WG08G5CnzybvU42muCZRUd7xWbkfXlZvi27z5pL+nHn91RsdUof3ukX9GT7ry9F/kSawgN78fUzfS6+XryUpV9Pb11+79HfT7+Hri24//Ptox/0EgIYGmGi/KmNGEMNlMcALmDXV9L5iPpuaEu6kHdwgQsMMCFORdJs90yvV88mvP5pNfZD55l3o8zTUBXXTrG731qf89r77NJRoU5K9NZ1XdIG+42oqet7hRlo12357XmN/3+hHwnY+U71xOsHt/emcH+T6+nvj247/fExTfINCjwLoaK8p40R4ReXmwAnTGg009gXsgQEG+zySacWjMJ98nHE9HAAEEEEAAAQQQSFSAzniinGwMgVwEKMj3yW4KcuaT7xOOpyOAAAIIIIAAAggkKkBnPFFONoZALgIU5PtkN9eS68Kcm9DsE4+nI4AAAggggAACCPQsQGe8Z0I2gIA1AhTk+0yFuZZ8QRXkjGnZJx5PRwABBBBAAAEEEOhZgM54z4RsAAFrBCjID5iKeKdczyc/H80nH1Sj0PRgKL4QQAABBBBAAAEEEEhOgM54cpZsCQFbBCjID5iJeKf8u5mKfH5vXM0nH5RWuyDbqijnCwEEEEAAAQQQQACBpATojCclyXYQsEeAgrzHXJhO+fXZgvzjQV1uPK3Jj2o28Mpmqcct83IEEEAAAQQQQAABBETojHMUIOCvAAV5j7k1nXI9n/x6syWXGxW50BiVxlKtxy3zcgQQQAABBBBAAAEEROiMcxQg4K8ABXlCuTXj0JhPnhAom0EAAQQQQAABBAIXoDMe+AFA+EEIUJAnlGZTkDOfPCFQNoMAAggggAACCAQuQGc88AOA8IMQoCBPKM3mWnLmkycEymYQQAABBBBAAIFABeiMB5p4wg5SgII8obSba8mZT54QKJtBAAEEEEAAAQQCFaAzHmjiCTtIAQryhNMe75RH88nvHo3GoelRaB0GlCcszuYQQAABBBBAAAE/BOiM+5FHokBgPwIU5PvR6uK58U7592o++V/vj6mCfEg21Xzy9jbzybtg5CkIIIAAAggggEBwAnTGg0s5ASMgFOQpHQSmU35DzSf/+uGQmk8+II+Xq7LMfPKUxNksAggggAACCCDgpgCdcTfzxqoRSEKAgjwJxRdsw3TKZ2PzyR8xn/wFWvwIAQQQQAABBBAIV4DOeLi5J3IEKMhTPgbMODTmk6cMzeYRQAABBBBAAAHHBOiMO5YwlotACgIU5Cmg7t6kKciZT75bhT8jgAACCCCAAAJhCxQKBZkeWpMPp+bkxMiyjPa3ZGy4T6YOD8ihelVqlaKUin1hIxE9AgEIUJCnnGRzLTnzyVOGZvMIIIAAAggggIADAvr2vrVyW0ZrLTl5ZFX+fHxRjh/aiFY+NFCWSVWQ12tlByJhiQggkIQABXkSiq/YhrmWnPnkr0DiVwgggAACCCCAQAACuhhXjXGZrq/Lh5Nzcm5qU84eK8lYfacTXir10RkP4DggRAR2C1CQ79ZI8c/xTvktddf183fHo3FobeaTpyjPphFAAAEEEEAAgfwFTGf88LPO+J/eXJSzk9t0xPNPDStAIFcBCvKM+OOd8iuzZfmbmk9+e35QNraKssV88owywW4QQAABBBBAAIFsBXY6451nnfF5OTetOuPTJZkcKdERzzYV7A0B6wQoyDNOiemU35wVudhQ88mfDMjMcr8sbZQyXgm7QwABBBBAAAEEEEhbQH9EfaCkrxnfjK4Z3+mMd+iMpw3P9hFwRICCPONEmU65nk9+o7kpl5tVudAYlUdLA9LpdDJeDbtDAAEEEEAAAQQQSEtAF+NF9T89Z/w3k/Py3tSG6oyrG7fRGU+LnO0i4JwABXlOKTOd8qvNPvni/rDcVJ3yn9bKsqY+vs4XAggggAACCCCAgNsCpjN+ZGCnM/5HdTf1M5N0xt3OKqtHIHkBCvLkTbvaoumUz6hO+dVHW6pTXpFLzRFpLNW6ej1PQgABBBBAAAEEELBTIN4ZP6c642fojNuZLFaFQM4CFOQ5J0DPJ787syRXZgqqIB9Vd10flLm1Cp3ynPPC7hFAAAEEEEAAgYMI6GJ8UM0ZP/zsmnE64wdR5DUIhCNAQZ5zrk1B3lSd8rn1cjQGjU55zklh9wgggAACCCCAwAEEdjrj+m7q+prxBTVnnM74ARh5CQJBCVCQ55xucy25LszXN7dEzyf/7J6eTz4obTUKbVvNKOcLAQQQQAABBBBAwF4B/a+1QqGzpzP+h+NLXDNub8pYGQLWCFCQ55wKcy35girImz+tylU1n/yLh0eigny1VZRWuy/nFbJ7BBBAAAEEEEAAgVcJ9KlivFzc6Yz/28SCvDe5yTXjrwLjdwgg8FyAgvw5Rb5/MJ3yW49FvmkMyk3VKW8s9cviRlmNQ8t3bewdAQQQQAABBBBA4JcCO51xdc14ZUvGBjbUnPE1+f0bS3J6grup/1KLnyCAwIsEKMhfpJLDz0ynfHahJTebLflW3XX9YuOwmk9ek7YqyCnKc0gKu0QAAQQQQAABBF4h0KcqctMZ/2BCzxnflNNTzBl/BRm/QgCBmAAFeQwk729Np/yauuv6V2o++Q01n/ypuuu6/vg6XwgggAACCCCAAAL5C+jOuP6Y+mClLWbO+O9/pTrjzBnPPzmsAAHHBCjILUuY6ZTr+eTXGi253KjKReaTW5YlloMAAggggAACIQsUo2vGt2V6eF0+OLogv1bXjJ9mznjIhwSxI3BgAQryA9Ol+0IzDo355Ok6s3UEEEAAAQQQQKBbAT3WLOqMqznjY4PqmvHDq/K7N5a5ZrxbQJ6HAAK/EKAg/wWJHT8wBTnzye3IB6tAAAEEEEAAAQSKfR2pPL+b+rzqjLfkjLpmfGKkJLVKUUpFpuNwlCCAwP4EKMj355XZs8215GY++f2Fqlxqjkbj0ObUNeVrW1xTnlky2BECCCCAAAIIBC1gOuNDpjN+RHXGf7Usp7ibetDHBcEjkIQABXkSiilsw1xLbuaTP1nclrn1sirIh1RhPqJGotVS2CubRAABBBBAAAEEEIgL7O6Mf6DmjEfXjNMZjzPxPQIIHECAgvwAaFm+JN4p1/PJz/9wVG7PD6pRaAVhRHmW2WBfCCCAAAIIIBCSwPPOeDRnfFPNGaczHlL+iRWBLAQoyLNQ7mEf8U75dzMV+fzeePTR9Va7INuqKOcLAQQQQAABBBBAIHkB3RmvlrblWH1N3o/upt6K5oxzzXjy1mwRgVAFKMgdybzplF+fLcg/HtTlxtOa/LhSlZXNkiMRsEwEEEAAAQQQQMANAd0Z16PNhlRnfFzfTV11xj8+pq8ZF5k8PCD1WtmNQFglAghYL0BBbn2KdhZoOuV6Pvn1pp5PXpELjVGuJXckfywTAQQQQAABBNwRKEWd8bYcG9ad8X/KuxNqzvhUhbupu5NCVoqAMwIU5M6kamehZhwa88kdSxzLRQABBBBAAAHrBUxnvF7VnfF11Rlfk4+nl+UknXHrc8cCEXBVgILcscyZgpz55I4ljuUigAACCCCAgPUCujNeU6PNdGf83PhOZ/wUnXHr88YCEXBZgILcseyZa8mZT+5Y4lguAggggAACCFgr0KevGVfFeF1dMz4xtC7vHF6TD9U14yePcs24tUljYQh4IkBB7lgizbXkzCd3LHEsFwEEEEAAAQSsFSgXOzLwrDP+3viCnJ1oSdQZP1SSWqUopWKftWtnYQgg4LYABbmj+Yt3yqP55HePyp25wWgUGvPJHU0sy0YAAQQQQACBzAT61J3UdWd8WF0zPjG0oTrjq/Lh9Iq8Q2c8sxywIwRCF6Agd/QIiHfKv58p75pP3idt5pM7mlmWjQACCCCAAAJZCZSL28874/qacd0ZPzlVlolDZTrjWSWB/SAQuAAFueMHgOmU6/nkXz8YUvPJB+Qx88kdzyrLRwABBBBAAIE0BWqltozWNkXfTV1/VP34oQ0642mCs20EEHipAAX5S2nc+IXplM+q+eTXmE/uRtJYJQIIIIAAAgjkKjBdX5OPpublmHrUH1kfH+6jM55rRtg5AuEKUJB7knszDo355J4klDAQQAABBBBAIHEB0xk/MbKiCvK5qDPeXynJSL0qk4cHpF4rJ75PNogAAgi8SoCC/FU6Dv3OFOTMJ3coaSwVAQQQQAABBDIVMJ3xEyPLMtrfkjHVGZ9ShfghVZBzN/VMU8HOEEDgmQAFuSeHgrmWnPnkniSUMBBAAAEEEEAgMQE644lRsiEEEEhYgII8YdC8NmeuJWc+eV4ZYL8IIIAAAgggYKsAnXFbM8O6EECAgtyzYyDeKdfzyT+7Oy6354d25pMzoNyzjBMOAggggAACCLxMgM74y2T4OQII2CJAQW5LJhJaR7xTfkXNJ//r/TG5owryjbaaT75dSGhPbAYBBBBAAAEEELBbgM643flhdQggIEJB7ulRYDrlN2ZFLjzcmU8+u9wvy5slTyMmLAQQQAABBBBAYEeAzjhHAgIIuCJAQe5Kpva5TtMp1/PJrzc35XKjKhcao/JoqbbPLfF0BBBAAAEEEEDALQE6427li9UiELIABbnn2Tfj0JhP7nmiCQ8BBBBAAAEEhM44BwECCLgmQEHuWsb2uV5TkDOffJ9wPB0BBBBAAAEEnBOgM+5cylgwAsELUJB7fgiYa8mZT+55ogkPAQQQQACBgAXojAecfEJHwHEBCnLHE/i65ZtryZlP/jopfo8AAggggAACrgrQGXc1c6wbAQQoyAM5BuKd8lt6Pvm98Wgcmh6Fts188kCOBMJEAAEEEEDAHwE64/7kkkgQCFWAgjyQzMc75Vdny/LFwyNRQb7aKkqrzXzyQA4FwkQAAQQQQMAbATrj3qSSQBAIVoCCPLDUm075rcci3zQG5abqlDfUKLTFjZJ06JIHdjQQLgIIIIAAAm4K0Bl3M2+sGgEEfilAQf5LE69/YjrlswstudlsybfNqlxU88kfqqJcf2ydotzr9BMcAggggAACXgjQGfcijQSBAAJKgII80MPAdMqvzRTkq/vDckN1yp+uVkR/fJ0vBBBAAAEEEEDARgE64zZmhTUhgEAvAhTkveg5/FrTKZ+Z35JrjZZcbqhOeXMk+vi6w2GxdAQQQAABBBDwWIDOuMfJJTQEAhWgIA808SZsPZ/87sySXFGd8kvNUXWTt0GZW6vI2hadcmPEIwIIIIAAAgjkK0BnPF9/9o4AAukJUJCnZ+vElk1B3lSd8rn1cnTX9Ut0yp3IHYtEAAEEEEAgFAE646FkmjgRCE+Agjy8nO+J2FxLrgvz9c0tub9QpVO+R4hvEEAAAQQQQCAvATrjecmzXwQQyEqAgjwraUv3Y64lX1AFefOnVXmyuE2n3NJcsSwEEEAAAQRCE6AzHlrGiReB8AQoyMPL+QsjjnfK9XzyT384KrfnhxiF9kIxfogAAggggAACaQnQGU9Llu0igIBtAhTktmUkp/XEO+XfNivy2d2dgpz55Dklhd0igAACCCAQqACd8UATT9gIBChAQR5g0l8VsumUM5/8VUr8DgEEEEAAAQTSEKAznoYq20QAAZsFKMhtzk4OazOdcuaT54DPLhFAAAEEEAhcgM544AcA4SMQoAAFeYBJ7yZkMw6N+eTdaPEcBBBAAAEEEOhFgM54L3q8FgEEXBagIHc5eymu3RTkzCdPEZlNI4AAAggggEAkQGecAwEBBEIVoCAPNfOvidtcS8588tdA8WsEEEAAAQQQOLAAnfED0/FCBBDwRICC3JNEJh2GuZac+eRJy7I9BBBAAAEEEDACdMaNBI8IIBCqAAV5qJnvMu54p9zMJ7/zbD55p8vt8DQEEEAAAQQQQMAI0Bk3EjwigEDoAhTkoR8Br4k/3in/bqYi/x3NJx+U9nZB9IxyvhBAAAEEEEAAgf0I0BnfjxbPRQABnwUoyH3OboKxmU759ZmC/P3BsNx4OiBPViqy0iomuBc2hQACCCCAAAI+C9AZ9zm7xIYAAgcRoCA/iFqArzGdcj2f/HqjJZebVbnQGJHGUi1ADUJGAAEEEEAAgYMI0Bk/iBqvQQABnwUoyH3ObgqxmXFozCdPAZdNIoAAAggg4KkAnXFPE0tYCCDQswAFec+EYW3AFOTMJw8r70SLAAIIIIBALwJ0xnvR47UIIOCzAAW5z9lNITZzLTnzyVPAZZMIIIAAAgh4JkBn3LOEEg4CCCQuQEGeOKnfGzTXkjOf3O88Ex0CCCCAAAJJCNAZT0KRbSCAgM8CFOQ+ZzfF2OKdcj2f/Lwah3ZnflCNQitIh3FoKeqzaQQQQAABBOwWoDNud35YHQII2CNAQW5PLpxaSbxT/r2aT/7X+2OqIB+SzXYhmlHuVEAsFgEEEEAAAQQSE6AznhglG0IAAc8FKMg9T3Da4ZlO+Y3Zgnz9cCiaT/54uSrLm6W0d832EUAAAQQQQMAyATrjliWE5SCAgPUCFOTWp8juBZpO+ayeT95U88kbFTWffFQeMZ/c7sSxOgQQQAABBFIQoDOeAiqbRAABrwUoyL1Ob3bBmXFozCfPzpw9IYAAAgggYIsAnXFbMsE6EEDANQEKctcyZul6TUHOfHJLE8SyEEAAAQQQSFGAzniKuGwaAQS8FqAg9zq92QVnriVnPnl25uwJAQQQQACBvAXojOedAfaPAAKuC1CQu55BS9ZvriVnPrklCWEZCCCAAAIIZCBAZzwDZHaBAAJeC1CQe53e7IOLd8pvRfPJx6NxaG3mk2efEPaIAAIIIIBACgJ0xlNAZZMIIBCkAAV5kGlPL+h4p/zKbFn+puaT354flI2tomxtF9LbOVtGAAEEEEAAgUwE6IxnwsxOEEAgAAEK8gCSnEeIplN+c1bkYkPNJ39Skxk1Cm2J+eR5pIN9IoAAAgggkIgAnfFEGNkIAggg8FyAgvw5BX9IUsB0yvV88hvNTbncrMrXej75Yi3J3bAtBBBAAAEEEMhQgM54htjsCgEEghCgIA8izfkFacahMZ88vxywZwQQQAABBHoVoDPeqyCvRwABBF4sQEH+Yhd+mpCAKciZT54QKJtBAAEEEEAgBwE64zmgs0sEEAhCgII8iDTnF6S5lpz55PnlgD0jgAACCCBwUAE64weV43UIIIBAdwIU5N058awDCphryZlPfkBAXoYAAggggECOAnTGc8Rn1wggEIQABXkQac4/SDrl+eeAFSCAAAIIINCtAJ3xbqV4HgIIINCbAAV5b368uksBOuVdQvE0BBBAAAEELBCgM25BElgCAggEIUBBHkSa7Qky3im/+XRA/uuHo3Jnbkg69iyTlSCAAAIIIBCkAJ3xINNO0AggkKMABXmO+CHuOt4p/7ZZkfOqIL89PyidToGiPMSDgpgRQAABBKwRoDNuTSpYCAIIBCJAQR5Iom0L03TKr84U5Mt7w6I75T+tVWS1VbRtqawHAQQQQAAB7wXojHufYgJEAAFLBSjILU2M78synfKZ+S252mjJ5UZVLjVHpLFU8z104kMAAQQQQMA6ATrj1qWEBSGAQCACFOSBJNrWMPV88rszS3JFdcovNUfljvro+pzqlK9t0Sm3NWesCwEEEEDAHwE64/7kkkgQQMBNAQpyN/PmzapNQd5UnfK59bIqyIfolHuTXQJBAAEEELBdgM647RlifQgg4LsABbnvGbY8PnMtuS7M1ze35P6C/ug6nXLL08byEEAAAQQcF6Az7ngCWT4CCHgjQEHuTSrdDMRcS76gCvLmT6vyZHGbTrmbqWTVCCCAAAIOCdAZdyhZLBUBBLwWoCD3Or3uBBfvlOu7rn8ajUNT88kZUO5OIlkpAggggIDVAnTGrU4Pi0MAgQAFKMgDTLqNIcc75d+p+eSf3R1X88mHpK3nk1OU25g21oQAAggg4JgAnXHHEsZyEUDAewEKcu9T7FaAplN+Td11/e/363JDdcqfrFaZT+5WGlktAggggIBlAnTGLUsIy0EAAQSeCVCQcyhYJWA65Xo++bVn88kvMp/cqhyxGAQQQAAB9wTojLuXM1aMAAJhCFCQh5Fn56I049CYT+5c6lgwAggggIBFAnTGLUoGS0EAAQReIEBB/gIUfpS/gCnImU+efy5YAQIIIICAuwJ0xt3NHStHAIEwBCjIw8izc1Gaa8mZT+5c6lgwAggggIAFAnTGLUgCS0AAAQS6EKAg7wKJp2QvYK4lZz559vbsEQEEEEDAfQE64+7nkAgQQCAMAQryMPLsbJTxTrmeT37+7lG5Mzco23ocmrORsXAEEEAAAQSSF6AznrwpW0QAAQTSFKAgT1OXbfcsEO+Ufz9Tls/vjcud+UFptfuiGeU974QNIIAAAggg4IkAnXFPEkkYCCAQjAAFeTCpdjtQ0ym/PluQrx8MRfPJH69UZWWz5HZgrB4BBBBAAIEEBOiMJ4DIJhBAAIEcBCjIc0Bnl/sXMJ3yWT2fvNmSy42KXGiMSmOptv+N8QoEEEAAAQQ8EigUCjI9tCYfTs3JiZFlGe1vydhwn0wdHpBD9arUKkUpFfs8iphQEEAAAX8EKMj9yWUQkZhxaMwnDyLdBIkAAggg8AqBgvpdrdyW0VpLTh5ZlT8fX5TjhzaiVwwNlGVSFeT1WvkVW+BXCCCAAAJ5C1CQ550B9r8vAVOQM598X2w8GQEEEEDAMwFdjBcKHZmur8uHk/NybmpTzh4ryVh9pxNeKvXRGfcs54SDAAJ+ClCQ+5lXb6My15Izn9zbFBMYAggggMBrBExn/HBtM+qM/+nNRTk72aEj/ho3fo0AAgjYKEBBbmNWWNNLBcy15MwnfykRv0AAAQQQ8FjgF53x6Q05O60+nj5SoiPucd4JDQEE/BWgIPc3t15HFu+U6/nkn90dl9vzQzvzyRlQ7nX+CQ4BBBAITcDcRV1fM64/lP6GulacznhoRwHxIoCAjwIU5D5mNYCY4p3yK2o++f/cH4sK8g09n3xb9xD4QgABBBBAwA8BM19cP+ovfRd1OuN+5JYoEEAgbAEK8rDz73z0plN+Y1bk4sOd+eQzy/2yzHxy53NLAAgggAAC6i7qJX0X9U01zmxFPlJjzfRd1PsrJRlR48y4izpHCAIIIOC+AAW5+zkMOgLTKdfzya83N9V88mo0n/wR88mDPi4IHgEEEPBFwHTGmS/uS0aJAwEEENgrQEG+14PvHBUw49CYT+5oAlk2AggggMAeATrjezj4BgEEEPBWgILc29SGFZgpyJlPHlbeiRYBBBDwVYDOuK+ZJS4EEEBgrwAF+V4PvnNUwFxLznxyRxPIshFAAAEEIgE64xwICCCAQFgCFORh5dvbaM215Mwn9zbFBIYAAggEIUBnPIg0EyQCCCDwXICC/DkFf/BBIN4pv6Xnk98blzvzg9EotO0O49B8yDMxIIAAAr4J0Bn3LaPEgwACCHQnQEHenRPPckQg3im/OluWLx4eiQry1VZRWmpGOV8IIIAAAgjYJkBn3LaMsB4EEEAgGwEK8myc2UvGAqZTfuuxyDeNQbn5tCaNxZosbpSlk/Fa2B0CCCCAAAIvE6Az/jIZfo4AAgiEIUBBHkaeg4vSdMpnF1pys9mSy83KznxyVZR31MfWKcqDOyQIGAEEELBSgM64lWlhUQgggEBmAhTkmVGzozwETKf86kxBvrw3rDrlA/LTWkX0x9f5QgABBBBAIC8BOuN5ybNfBBBAwC4BCnK78sFqEhYwnfKZ+S252lCd8kZVLjVHpLFUS3hPbA4BBBBAAIHuBeiMd2/FMxFAAAGfBSjIfc4usT0X0PPJ784syRXVKb/UHFUFef/z3/EHBBBAAAEEshaYrq/LR1NzcvzQhvRXSjJSr8rk4QGp18pZL4X9IYAAAgjkKEBBniM+u85OwBTkTdUpn1svy9oWH1nPTp89IYAAAgjEBaKPrPe3ZGy4T6ZUIX5IFeS1SlFKRaaBxK34HgEEEPBZ4P8Dc2syrbYbvWkAAAAASUVORK5CYII=;" vertex="1" parent="1">
          <mxGeometry x="2000" y="504.73999999999995" width="106" height="104.51" as="geometry" />
        </mxCell>
        <mxCell id="ps5qEVWJUaTA2GxRnyP9-2" style="edgeStyle=orthogonalEdgeStyle;orthogonalLoop=1;jettySize=auto;html=1;entryX=0.187;entryY=0.468;entryDx=0;entryDy=0;entryPerimeter=0;rounded=1;strokeColor=#00CC00;strokeWidth=3;" edge="1" parent="1">
          <mxGeometry relative="1" as="geometry">
            <mxPoint x="1241" y="536.8" as="sourcePoint" />
            <mxPoint x="1564.025" y="537.0239999999999" as="targetPoint" />
          </mxGeometry>
        </mxCell>
        <mxCell id="ps5qEVWJUaTA2GxRnyP9-3" value="&amp;nbsp;webui.exemple.com port 443&amp;nbsp;" style="edgeLabel;html=1;align=center;verticalAlign=middle;resizable=0;points=[];fontSize=17;" vertex="1" connectable="0" parent="ps5qEVWJUaTA2GxRnyP9-2">
          <mxGeometry x="-0.2204" y="-1" relative="1" as="geometry">
            <mxPoint x="17" y="-1" as="offset" />
          </mxGeometry>
        </mxCell>
        <mxCell id="ps5qEVWJUaTA2GxRnyP9-10" style="edgeStyle=orthogonalEdgeStyle;rounded=1;orthogonalLoop=1;jettySize=auto;html=1;entryX=0.369;entryY=0.522;entryDx=0;entryDy=0;entryPerimeter=0;strokeColor=#3333FF;strokeWidth=3;" edge="1" parent="1" source="ps5qEVWJUaTA2GxRnyP9-1" target="tbnC4OxJD7dCI2JrZYAd-1">
          <mxGeometry relative="1" as="geometry">
            <Array as="points">
              <mxPoint x="1260" y="730" />
              <mxPoint x="1260" y="560" />
              <mxPoint x="1578" y="560" />
            </Array>
          </mxGeometry>
        </mxCell>
        <mxCell id="ps5qEVWJUaTA2GxRnyP9-1" value="External Client" style="verticalLabelPosition=top;aspect=fixed;html=1;verticalAlign=bottom;strokeColor=none;shape=mxgraph.citrix.thin_client;fillColor=#66B2FF;gradientColor=#0066CC;fontSize=14;labelPosition=center;align=center;" vertex="1" parent="1">
          <mxGeometry x="1147.5" y="690" width="71" height="71" as="geometry" />
        </mxCell>
        <mxCell id="ps5qEVWJUaTA2GxRnyP9-7" value="&amp;nbsp;443&amp;nbsp;" style="edgeLabel;html=1;align=center;verticalAlign=middle;resizable=0;points=[];fontSize=17;labelBackgroundColor=#d5e8d4;" vertex="1" connectable="0" parent="1">
          <mxGeometry x="1680" y="549" as="geometry">
            <mxPoint x="225" y="-10" as="offset" />
          </mxGeometry>
        </mxCell>
        <mxCell id="Dv7iAgsDUTEMUGpV3Tn1-1" value="External User" style="verticalLabelPosition=bottom;aspect=fixed;verticalAlign=top;strokeColor=none;shape=mxgraph.citrix.laptop_2;fillColor=#66B2FF;gradientColor=#0066CC;fontSize=14;html=1;" vertex="1" parent="1">
          <mxGeometry x="1125" y="490" width="116" height="86.5" as="geometry" />
        </mxCell>
        <mxCell id="ps5qEVWJUaTA2GxRnyP9-11" value="&amp;nbsp;client.exemple.com port 443&amp;nbsp;" style="edgeLabel;html=1;align=center;verticalAlign=middle;resizable=0;points=[];fontSize=17;" vertex="1" connectable="0" parent="1">
          <mxGeometry x="1393.9222714555012" y="559.9957747972771" as="geometry" />
        </mxCell>
        <mxCell id="ps5qEVWJUaTA2GxRnyP9-12" style="edgeStyle=orthogonalEdgeStyle;rounded=1;orthogonalLoop=1;jettySize=auto;html=1;entryX=0;entryY=0.5;entryDx=0;entryDy=0;strokeColor=#3333FF;strokeWidth=3;" edge="1" parent="1">
          <mxGeometry relative="1" as="geometry">
            <mxPoint x="1625" y="559" as="sourcePoint" />
            <mxPoint x="1730" y="559" as="targetPoint" />
            <Array as="points">
              <mxPoint x="1710" y="559" />
              <mxPoint x="1710" y="559" />
            </Array>
          </mxGeometry>
        </mxCell>
        <mxCell id="ps5qEVWJUaTA2GxRnyP9-13" value="&amp;nbsp;443&amp;nbsp;" style="edgeLabel;html=1;align=center;verticalAlign=middle;resizable=0;points=[];fontSize=17;labelBackgroundColor=#d5e8d4;" vertex="1" connectable="0" parent="ps5qEVWJUaTA2GxRnyP9-12">
          <mxGeometry x="-0.0667" y="-2" relative="1" as="geometry">
            <mxPoint x="-4" y="-2" as="offset" />
          </mxGeometry>
        </mxCell>
        <mxCell id="ps5qEVWJUaTA2GxRnyP9-14" style="edgeStyle=orthogonalEdgeStyle;rounded=1;orthogonalLoop=1;jettySize=auto;html=1;strokeColor=#3333FF;strokeWidth=3;" edge="1" parent="1">
          <mxGeometry relative="1" as="geometry">
            <mxPoint x="1831" y="558" as="sourcePoint" />
            <mxPoint x="1999" y="558" as="targetPoint" />
            <Array as="points">
              <mxPoint x="1915" y="558" />
              <mxPoint x="1915" y="558" />
            </Array>
          </mxGeometry>
        </mxCell>
      </root>
    </mxGraphModel>
  </diagram>
</mxfile>
